RobotoCondensed-Bold.ufo
<glyph name="exclam" format="1">
  <advance width="539"/>
  <unicode hex="0021"/>
  <outline>
    <contour>
      <point x="447" y="1456" type="line"/>
      <point x="112" y="1456" type="line"/>
      <point x="152" y="461" type="line"/>
      <point x="407" y="461" type="line"/>
    </contour>
    <contour>
      <point x="106" y="151" type="curve" smooth="yes"/>
      <point x="106" y="55"/>
      <point x="175" y="-18"/>
      <point x="277" y="-18" type="curve" smooth="yes"/>
      <point x="379" y="-18"/>
      <point x="447" y="55"/>
      <point x="447" y="151" type="curve" smooth="yes"/>
      <point x="447" y="247"/>
      <point x="379" y="320"/>
      <point x="277" y="320" type="curve" smooth="yes"/>
      <point x="175" y="320"/>
      <point x="106" y="247"/>
    </contour>
  </outline>
</glyph>
<glyph name="quotedbl" format="1">
  <advance width="652"/>
  <unicode hex="0022"/>
  <outline>
    <contour>
      <point x="259" y="1537" type="line"/>
      <point x="38" y="1537" type="line"/>
      <point x="38" y="1384" type="line"/>
      <point x="38" y="969" type="line"/>
      <point x="217" y="969" type="line"/>
      <point x="259" y="1398" type="line"/>
    </contour>
    <contour>
      <point x="602" y="1537" type="line"/>
      <point x="382" y="1537" type="line"/>
      <point x="382" y="1393" type="line"/>
      <point x="382" y="969" type="line"/>
      <point x="560" y="969" type="line"/>
      <point x="602" y="1398" type="line"/>
    </contour>
  </outline>
</glyph>
<glyph name="numbersign" format="1">
  <advance width="1061"/>
  <unicode hex="0023"/>
  <outline>
    <contour>
      <point x="176" y="0" type="line"/>
      <point x="361" y="0" type="line"/>
      <point x="563" y="1456" type="line"/>
      <point x="379" y="1456" type="line"/>
    </contour>
    <contour>
      <point x="474" y="0" type="line"/>
      <point x="659" y="0" type="line"/>
      <point x="862" y="1456" type="line"/>
      <point x="677" y="1456" type="line"/>
    </contour>
    <contour>
      <point x="990" y="857" type="line"/>
      <point x="990" y="1040" type="line"/>
      <point x="116" y="1040" type="line"/>
      <point x="116" y="857" type="line"/>
    </contour>
    <contour>
      <point x="926" y="410" type="line"/>
      <point x="926" y="593" type="line"/>
      <point x="53" y="593" type="line"/>
      <point x="53" y="410" type="line"/>
    </contour>
  </outline>
</glyph>
<glyph name="dollar" format="1">
  <advance width="1044"/>
  <unicode hex="0024"/>
  <outline>
    <contour>
      <point x="633" y="1685" type="line"/>
      <point x="482" y="1685" type="line"/>
      <point x="482" y="1394" type="line"/>
      <point x="633" y="1394" type="line"/>
    </contour>
    <contour>
      <point x="611" y="52" type="line"/>
      <point x="461" y="52" type="line"/>
      <point x="461" y="-218" type="line"/>
      <point x="611" y="-218" type="line"/>
    </contour>
    <contour>
      <point x="638" y="386" type="curve"/>
      <point x="638" y="302"/>
      <point x="609" y="234"/>
      <point x="536" y="234" type="curve" smooth="yes"/>
      <point x="463" y="234"/>
      <point x="400" y="289"/>
      <point x="400" y="467" type="curve"/>
      <point x="87" y="467" type="line"/>
      <point x="87" y="101"/>
      <point x="320" y="-21"/>
      <point x="536" y="-21" type="curve" smooth="yes"/>
      <point x="783" y="-21"/>
      <point x="952" y="128"/>
      <point x="952" y="388" type="curve"/>
      <point x="952" y="657"/>
      <point x="792" y="757"/>
      <point x="572" y="867" type="curve" smooth="yes"/>
      <point x="480" y="927"/>
      <point x="446" y="976"/>
      <point x="446" y="1066" type="curve"/>
      <point x="446" y="1151"/>
      <point x="473" y="1222"/>
      <point x="539" y="1222" type="curve" smooth="yes"/>
      <point x="597" y="1222"/>
      <point x="645" y="1159"/>
      <point x="645" y="1006" type="curve"/>
      <point x="958" y="1006" type="line"/>
      <point x="958" y="1302"/>
      <point x="789" y="1477"/>
      <point x="544" y="1477" type="curve" smooth="yes"/>
      <point x="302" y="1477"/>
      <point x="133" y="1316"/>
      <point x="133" y="1068" type="curve"/>
      <point x="133" y="796"/>
      <point x="290" y="701"/>
      <point x="514" y="594" type="curve" smooth="yes"/>
      <point x="602" y="540"/>
      <point x="638" y="495"/>
    </contour>
  </outline>
</glyph>
<glyph name="percent" format="1">
  <advance width="1314"/>
  <unicode hex="0025"/>
  <outline>
    <contour>
      <point x="94" y="1099" type="line"/>
      <point x="94" y="936"/>
      <point x="186" y="800"/>
      <point x="373" y="800" type="curve" smooth="yes"/>
      <point x="561" y="800"/>
      <point x="650" y="936"/>
      <point x="650" y="1099" type="curve" smooth="yes"/>
      <point x="650" y="1176" type="line" smooth="yes"/>
      <point x="650" y="1341"/>
      <point x="561" y="1477"/>
      <point x="371" y="1477" type="curve" smooth="yes"/>
      <point x="186" y="1477"/>
      <point x="94" y="1341"/>
      <point x="94" y="1176" type="curve" smooth="yes"/>
    </contour>
    <contour>
      <point x="294" y="1176" type="line"/>
      <point x="294" y="1239"/>
      <point x="319" y="1295"/>
      <point x="371" y="1295" type="curve" smooth="yes"/>
      <point x="425" y="1295"/>
      <point x="450" y="1239"/>
      <point x="450" y="1176" type="curve" smooth="yes"/>
      <point x="450" y="1099" type="line" smooth="yes"/>
      <point x="450" y="1038"/>
      <point x="426" y="982"/>
      <point x="373" y="982" type="curve" smooth="yes"/>
      <point x="320" y="982"/>
      <point x="294" y="1038"/>
      <point x="294" y="1099" type="curve" smooth="yes"/>
    </contour>
    <contour>
      <point x="666" y="280" type="line"/>
      <point x="666" y="116"/>
      <point x="759" y="-20"/>
      <point x="946" y="-20" type="curve" smooth="yes"/>
      <point x="1134" y="-20"/>
      <point x="1223" y="116"/>
      <point x="1223" y="280" type="curve" smooth="yes"/>
      <point x="1223" y="357" type="line" smooth="yes"/>
      <point x="1223" y="521"/>
      <point x="1134" y="657"/>
      <point x="944" y="657" type="curve" smooth="yes"/>
      <point x="759" y="657"/>
      <point x="666" y="521"/>
      <point x="666" y="357" type="curve" smooth="yes"/>
    </contour>
    <contour>
      <point x="866" y="357" type="line"/>
      <point x="866" y="419"/>
      <point x="891" y="475"/>
      <point x="944" y="475" type="curve" smooth="yes"/>
      <point x="997" y="475"/>
      <point x="1023" y="419"/>
      <point x="1023" y="357" type="curve" smooth="yes"/>
      <point x="1023" y="280" type="line" smooth="yes"/>
      <point x="1023" y="218"/>
      <point x="1016" y="162"/>
      <point x="946" y="162" type="curve" smooth="yes"/>
      <point x="904" y="162"/>
      <point x="866" y="218"/>
      <point x="866" y="280" type="curve" smooth="yes"/>
    </contour>
    <contour>
      <point x="1027" y="1247" type="line"/>
      <point x="882" y="1326" type="line"/>
      <point x="285" y="188" type="line"/>
      <point x="429" y="109" type="line"/>
    </contour>
  </outline>
</glyph>
<glyph name="ampersand" format="1">
  <advance width="1209"/>
  <unicode hex="0026"/>
  <outline>
    <contour>
      <point x="281" y="765" type="line"/>
      <point x="151" y="657"/>
      <point x="63" y="560"/>
      <point x="63" y="391" type="curve"/>
      <point x="63" y="150"/>
      <point x="218" y="-21"/>
      <point x="469" y="-21" type="curve"/>
      <point x="617" y="-21"/>
      <point x="723" y="26"/>
      <point x="841" y="126" type="curve" smooth="yes"/>
      <point x="847" y="130"/>
      <point x="869" y="145"/>
      <point x="875" y="149" type="curve" smooth="yes"/>
      <point x="1035" y="285"/>
      <point x="1089" y="492"/>
      <point x="1089" y="728" type="curve"/>
      <point x="827" y="728" type="line"/>
      <point x="827" y="439"/>
      <point x="660" y="239"/>
      <point x="489" y="239" type="curve" smooth="yes"/>
      <point x="434" y="239"/>
      <point x="377" y="310"/>
      <point x="377" y="414" type="curve"/>
      <point x="377" y="473"/>
      <point x="387" y="521"/>
      <point x="407" y="572" type="curve" smooth="yes"/>
      <point x="697" y="805" type="line" smooth="yes"/>
      <point x="797" y="884"/>
      <point x="860" y="994"/>
      <point x="860" y="1127" type="curve"/>
      <point x="860" y="1316"/>
      <point x="728" y="1477"/>
      <point x="526" y="1477" type="curve" smooth="yes"/>
      <point x="309" y="1477"/>
      <point x="168" y="1314"/>
      <point x="168" y="1084" type="curve" smooth="yes"/>
      <point x="168" y="936"/>
      <point x="245" y="809"/>
      <point x="361" y="634" type="curve" smooth="yes"/>
      <point x="816" y="0" type="line"/>
      <point x="1167" y="0" type="line"/>
      <point x="598" y="788" type="line" smooth="yes"/>
      <point x="513" y="910"/>
      <point x="440" y="998"/>
      <point x="440" y="1088" type="curve" smooth="yes"/>
      <point x="440" y="1159"/>
      <point x="468" y="1217"/>
      <point x="525" y="1217" type="curve" smooth="yes"/>
      <point x="577" y="1217"/>
      <point x="608" y="1158"/>
      <point x="608" y="1103" type="curve"/>
      <point x="608" y="1058"/>
      <point x="608" y="1011"/>
      <point x="539" y="958" type="curve"/>
    </contour>
  </outline>
</glyph>
<glyph name="quotesingle" format="1">
  <advance width="321"/>
  <unicode hex="0027"/>
  <outline>
    <contour>
      <point x="281" y="1536" type="line"/>
      <point x="50" y="1536" type="line"/>
      <point x="50" y="1361" type="line"/>
      <point x="50" y="961" type="line"/>
      <point x="249" y="961" type="line"/>
      <point x="281" y="1374" type="line"/>
    </contour>
  </outline>
</glyph>
<glyph name="parenleft" format="1">
  <advance width="665"/>
  <unicode hex="0028"/>
  <outline>
    <contour>
      <point x="118" y="564" type="line"/>
      <point x="118" y="11"/>
      <point x="347" y="-350"/>
      <point x="551" y="-450" type="curve"/>
      <point x="609" y="-284" type="line"/>
      <point x="491" y="-174"/>
      <point x="371" y="83"/>
      <point x="371" y="562" type="curve"/>
      <point x="371" y="594" type="line" smooth="yes"/>
      <point x="371" y="1073"/>
      <point x="491" y="1330"/>
      <point x="609" y="1440" type="curve"/>
      <point x="551" y="1606" type="line"/>
      <point x="347" y="1506"/>
      <point x="118" y="1145"/>
      <point x="118" y="592" type="curve"/>
    </contour>
  </outline>
</glyph>
<glyph name="parenright" format="1">
  <advance width="662"/>
  <unicode hex="0029"/>
  <outline>
    <contour>
      <point x="567" y="592" type="line"/>
      <point x="567" y="1118"/>
      <point x="329" y="1506"/>
      <point x="114" y="1606" type="curve"/>
      <point x="56" y="1440" type="line"/>
      <point x="172" y="1330"/>
      <point x="294" y="1073"/>
      <point x="294" y="594" type="curve" smooth="yes"/>
      <point x="294" y="562" type="line"/>
      <point x="294" y="83"/>
      <point x="172" y="-174"/>
      <point x="56" y="-284" type="curve"/>
      <point x="114" y="-450" type="line"/>
      <point x="329" y="-350"/>
      <point x="567" y="38"/>
      <point x="567" y="564" type="curve"/>
    </contour>
  </outline>
</glyph>
<glyph name="asterisk" format="1">
  <advance width="945"/>
  <unicode hex="002A"/>
  <outline>
    <contour>
      <point x="125" y="684" type="line"/>
      <point x="293" y="571" type="line"/>
      <point x="476" y="855" type="line"/>
      <point x="659" y="561" type="line"/>
      <point x="827" y="679" type="line"/>
      <point x="611" y="944" type="line"/>
      <point x="938" y="1034" type="line"/>
      <point x="875" y="1225" type="line"/>
      <point x="567" y="1097" type="line"/>
      <point x="591" y="1456" type="line"/>
      <point x="383" y="1456" type="line"/>
      <point x="406" y="1104" type="line"/>
      <point x="90" y="1235" type="line"/>
      <point x="27" y="1046" type="line"/>
      <point x="349" y="956" type="line"/>
    </contour>
  </outline>
</glyph>
<glyph name="plus" format="1">
  <advance width="958"/>
  <unicode hex="002B"/>
  <outline>
    <contour>
      <point x="896" y="826" type="line"/>
      <point x="57" y="826" type="line"/>
      <point x="57" y="537" type="line"/>
      <point x="896" y="537" type="line"/>
    </contour>
    <contour>
      <point x="626" y="1206" type="line"/>
      <point x="332" y="1206" type="line"/>
      <point x="332" y="146" type="line"/>
      <point x="626" y="146" type="line"/>
    </contour>
  </outline>
</glyph>
<glyph name="comma" format="1">
  <advance width="536"/>
  <unicode hex="002C"/>
  <outline>
    <contour>
      <point x="409" y="254" type="line"/>
      <point x="147" y="254" type="line"/>
      <point x="147" y="21" type="line"/>
      <point x="147" y="-136"/>
      <point x="85" y="-221"/>
      <point x="41" y="-312" type="curve"/>
      <point x="205" y="-392" type="line"/>
      <point x="320" y="-292"/>
      <point x="408" y="-122"/>
      <point x="408" y="40" type="curve"/>
    </contour>
    <contour>
      <point x="397" y="264" type="move" name="_bottom"/>
    </contour>
    <contour>
      <point x="173" y="35" type="move" name="_right"/>
    </contour>
  </outline>
</glyph>
<glyph name="hyphen" format="1">
  <advance width="824"/>
  <unicode hex="002D"/>
  <outline>
    <contour>
      <point x="663" y="758" type="line"/>
      <point x="149" y="758" type="line"/>
      <point x="149" y="497" type="line"/>
      <point x="663" y="497" type="line"/>
    </contour>
  </outline>
</glyph>
<glyph name="period" format="1">
  <advance width="612"/>
  <unicode hex="002E"/>
  <outline>
    <contour>
      <point x="120" y="158" type="curve" smooth="yes"/>
      <point x="120" y="62"/>
      <point x="192" y="-11"/>
      <point x="299" y="-11" type="curve" smooth="yes"/>
      <point x="406" y="-11"/>
      <point x="478" y="62"/>
      <point x="478" y="158" type="curve" smooth="yes"/>
      <point x="478" y="254"/>
      <point x="406" y="327"/>
      <point x="299" y="327" type="curve" smooth="yes"/>
      <point x="192" y="327"/>
      <point x="120" y="254"/>
    </contour>
  </outline>
</glyph>
<glyph name="zero" format="1">
  <advance width="1044"/>
  <unicode hex="0030"/>
  <outline>
    <contour>
      <point x="955" y="861" type="line"/>
      <point x="955" y="1281"/>
      <point x="773" y="1476"/>
      <point x="521" y="1476" type="curve" smooth="yes"/>
      <point x="268" y="1476"/>
      <point x="89" y="1281"/>
      <point x="89" y="861" type="curve"/>
      <point x="89" y="595" type="line"/>
      <point x="89" y="175"/>
      <point x="270" y="-20"/>
      <point x="523" y="-20" type="curve" smooth="yes"/>
      <point x="775" y="-20"/>
      <point x="955" y="175"/>
      <point x="955" y="595" type="curve"/>
    </contour>
    <contour>
      <point x="641" y="554" type="line"/>
      <point x="641" y="318"/>
      <point x="594" y="240"/>
      <point x="523" y="240" type="curve" smooth="yes"/>
      <point x="450" y="240"/>
      <point x="402" y="318"/>
      <point x="402" y="554" type="curve" smooth="yes"/>
      <point x="402" y="904" type="line" smooth="yes"/>
      <point x="402" y="1136"/>
      <point x="450" y="1216"/>
      <point x="521" y="1216" type="curve" smooth="yes"/>
      <point x="593" y="1216"/>
      <point x="641" y="1136"/>
      <point x="641" y="904" type="curve"/>
    </contour>
  </outline>
</glyph>
<glyph name="one" format="1">
  <advance width="1044"/>
  <unicode hex="0031"/>
  <outline>
    <contour>
      <point x="740" y="1456" type="line"/>
      <point x="710" y="1456" type="line"/>
      <point x="157" y="1235" type="line"/>
      <point x="157" y="979" type="line"/>
      <point x="426" y="1076" type="line"/>
      <point x="426" y="0" type="line"/>
      <point x="740" y="0" type="line"/>
    </contour>
  </outline>
</glyph>
<glyph name="two" format="1">
  <advance width="1044"/>
  <unicode hex="0032"/>
  <outline>
    <contour>
      <point x="959" y="260" type="line"/>
      <point x="497" y="260" type="line"/>
      <point x="640" y="477" type="line" smooth="yes"/>
      <point x="826" y="693"/>
      <point x="932" y="852"/>
      <point x="932" y="1055" type="curve" smooth="yes"/>
      <point x="932" y="1321"/>
      <point x="789" y="1477"/>
      <point x="512" y="1477" type="curve" smooth="yes"/>
      <point x="242" y="1477"/>
      <point x="64" y="1256"/>
      <point x="64" y="988" type="curve"/>
      <point x="379" y="988" type="line"/>
      <point x="379" y="1118"/>
      <point x="424" y="1217"/>
      <point x="505" y="1217" type="curve" smooth="yes"/>
      <point x="577" y="1217"/>
      <point x="617" y="1150"/>
      <point x="617" y="1025" type="curve" smooth="yes"/>
      <point x="617" y="950"/>
      <point x="581" y="854"/>
      <point x="481" y="712" type="curve" smooth="yes"/>
      <point x="89" y="220" type="line"/>
      <point x="89" y="0" type="line"/>
      <point x="959" y="0" type="line"/>
    </contour>
  </outline>
</glyph>
<glyph name="three" format="1">
  <advance width="1044"/>
  <unicode hex="0033"/>
  <outline>
    <contour>
      <point x="349" y="869" type="line"/>
      <point x="349" y="697" type="line"/>
      <point x="545" y="697" type="line" smooth="yes"/>
      <point x="774" y="697"/>
      <point x="937" y="861"/>
      <point x="937" y="1061" type="curve" smooth="yes"/>
      <point x="937" y="1333"/>
      <point x="755" y="1477"/>
      <point x="491" y="1477" type="curve" smooth="yes"/>
      <point x="266" y="1477"/>
      <point x="73" y="1328"/>
      <point x="73" y="1081" type="curve"/>
      <point x="386" y="1081" type="line"/>
      <point x="386" y="1166"/>
      <point x="445" y="1217"/>
      <point x="501" y="1217" type="curve" smooth="yes"/>
      <point x="584" y="1217"/>
      <point x="624" y="1141"/>
      <point x="624" y="1054" type="curve" smooth="yes"/>
      <point x="624" y="940"/>
      <point x="583" y="869"/>
      <point x="493" y="869" type="curve" smooth="yes"/>
    </contour>
    <contour>
      <point x="349" y="618" type="line"/>
      <point x="493" y="618" type="line" smooth="yes"/>
      <point x="588" y="618"/>
      <point x="642" y="563"/>
      <point x="642" y="416" type="curve" smooth="yes"/>
      <point x="642" y="318"/>
      <point x="589" y="240"/>
      <point x="499" y="240" type="curve" smooth="yes"/>
      <point x="429" y="240"/>
      <point x="371" y="312"/>
      <point x="371" y="405" type="curve"/>
      <point x="57" y="405" type="line"/>
      <point x="57" y="107"/>
      <point x="280" y="-20"/>
      <point x="489" y="-20" type="curve" smooth="yes"/>
      <point x="753" y="-20"/>
      <point x="955" y="136"/>
      <point x="955" y="409" type="curve" smooth="yes"/>
      <point x="955" y="652"/>
      <point x="798" y="786"/>
      <point x="545" y="786" type="curve" smooth="yes"/>
      <point x="349" y="786" type="line"/>
    </contour>
  </outline>
</glyph>
<glyph name="four" format="1">
  <advance width="1044"/>
  <unicode hex="0034"/>
  <outline>
    <contour>
      <point x="970" y="569" type="line"/>
      <point x="362" y="569" type="line"/>
      <point x="536" y="983" type="line"/>
      <point x="792" y="1456" type="line"/>
      <point x="546" y="1456" type="line"/>
      <point x="65" y="515" type="line"/>
      <point x="83" y="309" type="line"/>
      <point x="970" y="309" type="line"/>
    </contour>
    <contour>
      <point x="857" y="1456" type="line"/>
      <point x="544" y="1456" type="line"/>
      <point x="544" y="0" type="line"/>
      <point x="857" y="0" type="line"/>
    </contour>
  </outline>
</glyph>
<glyph name="five" format="1">
  <advance width="1044"/>
  <unicode hex="0035"/>
  <outline>
    <contour>
      <point x="352" y="649" type="line"/>
      <point x="370" y="683"/>
      <point x="407" y="725"/>
      <point x="483" y="725" type="curve"/>
      <point x="595" y="725"/>
      <point x="639" y="635"/>
      <point x="639" y="492" type="curve" smooth="yes"/>
      <point x="639" y="356"/>
      <point x="615" y="240"/>
      <point x="515" y="240" type="curve" smooth="yes"/>
      <point x="446" y="240"/>
      <point x="398" y="308"/>
      <point x="393" y="414" type="curve"/>
      <point x="80" y="414" type="line"/>
      <point x="76" y="146"/>
      <point x="296" y="-20"/>
      <point x="517" y="-20" type="curve" smooth="yes"/>
      <point x="812" y="-20"/>
      <point x="952" y="218"/>
      <point x="952" y="469" type="curve" smooth="yes"/>
      <point x="952" y="781"/>
      <point x="819" y="958"/>
      <point x="573" y="958" type="curve"/>
      <point x="501" y="958"/>
      <point x="436" y="924"/>
      <point x="410" y="905" type="curve"/>
      <point x="434" y="1194" type="line"/>
      <point x="906" y="1194" type="line"/>
      <point x="906" y="1456" type="line"/>
      <point x="179" y="1456" type="line"/>
      <point x="103" y="712" type="line"/>
    </contour>
  </outline>
</glyph>
<glyph name="six" format="1">
  <advance width="1044"/>
  <unicode hex="0036"/>
  <outline>
    <contour>
      <point x="736" y="1477" type="line" name="hr00"/>
      <point x="369" y="1477"/>
      <point x="89" y="1187"/>
      <point x="89" y="689" type="curve" smooth="yes"/>
      <point x="89" y="566" type="line" smooth="yes"/>
      <point x="89" y="197"/>
      <point x="277" y="-20"/>
      <point x="542" y="-20" type="curve" smooth="yes"/>
      <point x="801" y="-20"/>
      <point x="979" y="197"/>
      <point x="979" y="482" type="curve" smooth="yes"/>
      <point x="979" y="764"/>
      <point x="859" y="982"/>
      <point x="633" y="982" type="curve" smooth="yes"/>
      <point x="420" y="982"/>
      <point x="306" y="776"/>
      <point x="306" y="616" type="curve"/>
      <point x="384" y="534" type="line"/>
      <point x="384" y="624"/>
      <point x="429" y="724"/>
      <point x="526" y="724" type="curve" smooth="yes"/>
      <point x="605" y="724"/>
      <point x="666" y="632"/>
      <point x="666" y="482" type="curve" smooth="yes"/>
      <point x="666" y="344"/>
      <point x="611" y="240"/>
      <point x="534" y="240" type="curve" smooth="yes"/>
      <point x="447" y="240"/>
      <point x="402" y="329"/>
      <point x="402" y="516" type="curve"/>
      <point x="402" y="771" type="line" smooth="yes"/>
      <point x="402" y="1069"/>
      <point x="548" y="1212"/>
      <point x="768" y="1212" type="curve" smooth="yes"/>
      <point x="783" y="1212" type="line"/>
      <point x="783" y="1477" type="line"/>
    </contour>
  </outline>
</glyph>
<glyph name="seven" format="1">
  <advance width="1044"/>
  <unicode hex="0037"/>
  <outline>
    <contour>
      <point x="957" y="1456" type="line"/>
      <point x="63" y="1456" type="line"/>
      <point x="63" y="1196" type="line"/>
      <point x="628" y="1196" type="line"/>
      <point x="178" y="0" type="line"/>
      <point x="509" y="0" type="line"/>
      <point x="957" y="1276" type="line"/>
    </contour>
  </outline>
</glyph>
<glyph name="eight" format="1">
  <advance width="1044"/>
  <unicode hex="0038"/>
  <outline>
    <contour>
      <point x="950" y="401" type="curve" smooth="yes"/>
      <point x="950" y="654"/>
      <point x="769" y="809"/>
      <point x="521" y="809" type="curve" smooth="yes"/>
      <point x="277" y="809"/>
      <point x="92" y="654"/>
      <point x="92" y="401" type="curve" smooth="yes"/>
      <point x="92" y="122"/>
      <point x="277" y="-20"/>
      <point x="523" y="-20" type="curve" smooth="yes"/>
      <point x="770" y="-20"/>
      <point x="950" y="122"/>
    </contour>
    <contour>
      <point x="635" y="428" type="curve" smooth="yes"/>
      <point x="635" y="311"/>
      <point x="594" y="240"/>
      <point x="523" y="240" type="curve" smooth="yes"/>
      <point x="451" y="240"/>
      <point x="406" y="311"/>
      <point x="406" y="428" type="curve" smooth="yes"/>
      <point x="406" y="547"/>
      <point x="451" y="615"/>
      <point x="521" y="615" type="curve" smooth="yes"/>
      <point x="593" y="615"/>
      <point x="635" y="547"/>
    </contour>
    <contour>
      <point x="926" y="1067" type="curve" smooth="yes"/>
      <point x="926" y="1334"/>
      <point x="761" y="1477"/>
      <point x="521" y="1477" type="curve" smooth="yes"/>
      <point x="285" y="1477"/>
      <point x="116" y="1334"/>
      <point x="116" y="1067" type="curve" smooth="yes"/>
      <point x="116" y="839"/>
      <point x="285" y="687"/>
      <point x="523" y="687" type="curve" smooth="yes"/>
      <point x="761" y="687"/>
      <point x="926" y="839"/>
    </contour>
    <contour>
      <point x="613" y="1049" type="curve" smooth="yes"/>
      <point x="613" y="945"/>
      <point x="588" y="875"/>
      <point x="523" y="875" type="curve" smooth="yes"/>
      <point x="459" y="875"/>
      <point x="431" y="945"/>
      <point x="431" y="1049" type="curve" smooth="yes"/>
      <point x="431" y="1154"/>
      <point x="459" y="1217"/>
      <point x="521" y="1217" type="curve" smooth="yes"/>
      <point x="586" y="1217"/>
      <point x="613" y="1152"/>
    </contour>
  </outline>
</glyph>
<glyph name="nine" format="1">
  <advance width="1044"/>
  <unicode hex="0039"/>
  <outline>
    <contour>
      <point x="275" y="250" type="line"/>
      <point x="275" y="-20" type="line"/>
      <point x="295" y="-20" type="line" smooth="yes"/>
      <point x="675" y="-20"/>
      <point x="948" y="248"/>
      <point x="948" y="765" type="curve" smooth="yes"/>
      <point x="948" y="881" type="line" smooth="yes"/>
      <point x="948" y="1263"/>
      <point x="757" y="1477"/>
      <point x="518" y="1477" type="curve" smooth="yes"/>
      <point x="262" y="1477"/>
      <point x="86" y="1241"/>
      <point x="86" y="957" type="curve" smooth="yes"/>
      <point x="86" y="661"/>
      <point x="219" y="465"/>
      <point x="446" y="465" type="curve" smooth="yes"/>
      <point x="608" y="465"/>
      <point x="746" y="644"/>
      <point x="746" y="814" type="curve"/>
      <point x="654" y="891" type="line"/>
      <point x="654" y="808"/>
      <point x="610" y="708"/>
      <point x="531" y="708" type="curve" smooth="yes"/>
      <point x="440" y="708"/>
      <point x="399" y="816"/>
      <point x="399" y="957" type="curve" smooth="yes"/>
      <point x="399" y="1083"/>
      <point x="440" y="1217"/>
      <point x="515" y="1217" type="curve" smooth="yes"/>
      <point x="585" y="1217"/>
      <point x="635" y="1130"/>
      <point x="635" y="943" type="curve"/>
      <point x="635" y="642" type="line"/>
      <point x="635" y="360"/>
      <point x="507" y="250"/>
      <point x="290" y="250" type="curve" smooth="yes"/>
    </contour>
  </outline>
</glyph>
<glyph name="less" format="1">
  <advance width="916"/>
  <unicode hex="003C"/>
  <outline>
    <contour>
      <point x="309" y="631" type="line"/>
      <point x="56" y="706" type="line"/>
      <point x="56" y="478" type="line"/>
      <point x="799" y="118" type="line"/>
      <point x="799" y="425" type="line"/>
    </contour>
    <contour>
      <point x="799" y="798" type="line"/>
      <point x="799" y="1104" type="line"/>
      <point x="56" y="744" type="line"/>
      <point x="56" y="516" type="line"/>
      <point x="309" y="588" type="line"/>
    </contour>
  </outline>
</glyph>
<glyph name="equal" format="1">
  <advance width="1048"/>
  <unicode hex="003D"/>
  <outline>
    <contour>
      <point x="910" y="982" type="line"/>
      <point x="127" y="982" type="line"/>
      <point x="127" y="722" type="line"/>
      <point x="910" y="722" type="line"/>
    </contour>
    <contour>
      <point x="910" y="543" type="line"/>
      <point x="127" y="543" type="line"/>
      <point x="127" y="283" type="line"/>
      <point x="910" y="283" type="line"/>
    </contour>
  </outline>
</glyph>
<glyph name="greater" format="1">
  <advance width="925"/>
  <unicode hex="003E"/>
  <outline>
    <contour>
      <point x="606" y="591" type="line"/>
      <point x="859" y="514" type="line"/>
      <point x="859" y="743" type="line"/>
      <point x="116" y="1103" type="line"/>
      <point x="116" y="797" type="line"/>
    </contour>
    <contour>
      <point x="116" y="423" type="line"/>
      <point x="116" y="117" type="line"/>
      <point x="859" y="477" type="line"/>
      <point x="859" y="705" type="line"/>
      <point x="605" y="634" type="line"/>
    </contour>
  </outline>
</glyph>
<glyph name="question" format="1">
  <advance width="933"/>
  <unicode hex="003F"/>
  <outline>
    <contour>
      <point x="570" y="461" type="line"/>
      <point x="573" y="566"/>
      <point x="589" y="628"/>
      <point x="650" y="696" type="curve" smooth="yes"/>
      <point x="759" y="819"/>
      <point x="857" y="907"/>
      <point x="857" y="1080" type="curve" smooth="yes"/>
      <point x="857" y="1338"/>
      <point x="703" y="1476"/>
      <point x="451" y="1476" type="curve" smooth="yes"/>
      <point x="221" y="1476"/>
      <point x="45" y="1351"/>
      <point x="41" y="1053" type="curve"/>
      <point x="355" y="1053" type="line"/>
      <point x="358" y="1168"/>
      <point x="408" y="1216"/>
      <point x="451" y="1216" type="curve" smooth="yes"/>
      <point x="511" y="1216"/>
      <point x="542" y="1168"/>
      <point x="542" y="1065" type="curve" smooth="yes"/>
      <point x="542" y="981"/>
      <point x="494" y="915"/>
      <point x="421" y="838" type="curve" smooth="yes"/>
      <point x="329" y="746"/>
      <point x="301" y="636"/>
      <point x="302" y="461" type="curve"/>
    </contour>
    <contour>
      <point x="269" y="157" type="curve" smooth="yes"/>
      <point x="269" y="61"/>
      <point x="337" y="-12"/>
      <point x="439" y="-12" type="curve" smooth="yes"/>
      <point x="541" y="-12"/>
      <point x="609" y="61"/>
      <point x="609" y="157" type="curve" smooth="yes"/>
      <point x="609" y="253"/>
      <point x="541" y="326"/>
      <point x="439" y="326" type="curve" smooth="yes"/>
      <point x="337" y="326"/>
      <point x="269" y="253"/>
    </contour>
  </outline>
</glyph>
<glyph name="at" format="1">
  <advance width="1570"/>
  <unicode hex="0040"/>
  <outline>
    <contour>
      <point x="1489" y="550" type="curve"/>
      <point x="1508" y="1061"/>
      <point x="1261" y="1410"/>
      <point x="824" y="1410" type="curve" smooth="yes"/>
      <point x="376" y="1410"/>
      <point x="92" y="1005"/>
      <point x="72" y="458" type="curve" smooth="yes"/>
      <point x="54" y="-142"/>
      <point x="311" y="-453"/>
      <point x="766" y="-453" type="curve" smooth="yes"/>
      <point x="871" y="-453"/>
      <point x="1002" y="-424"/>
      <point x="1082" y="-364" type="curve"/>
      <point x="1048" y="-198" type="line"/>
      <point x="977" y="-234"/>
      <point x="867" y="-263"/>
      <point x="769" y="-263" type="curve" smooth="yes"/>
      <point x="441" y="-263"/>
      <point x="258" y="-22"/>
      <point x="276" y="458" type="curve" smooth="yes"/>
      <point x="292" y="901"/>
      <point x="485" y="1238"/>
      <point x="820" y="1238" type="curve" smooth="yes"/>
      <point x="1165" y="1238"/>
      <point x="1321" y="957"/>
      <point x="1304" y="540" type="curve" smooth="yes"/>
      <point x="1299" y="321"/>
      <point x="1232" y="154"/>
      <point x="1143" y="154" type="curve" smooth="yes"/>
      <point x="1098" y="154"/>
      <point x="1063" y="182"/>
      <point x="1073" y="293" type="curve"/>
      <point x="1117" y="880" type="line"/>
      <point x="907" y="880" type="line"/>
      <point x="864" y="293" type="line" smooth="yes"/>
      <point x="855" y="100"/>
      <point x="957" y="-21"/>
      <point x="1102" y="-21" type="curve"/>
      <point x="1371" y="-21"/>
      <point x="1481" y="267"/>
    </contour>
    <contour>
      <point x="669" y="436" type="curve" smooth="yes"/>
      <point x="688" y="671"/>
      <point x="734" y="799"/>
      <point x="863" y="799" type="curve" smooth="yes"/>
      <point x="933" y="799"/>
      <point x="985" y="759"/>
      <point x="1017" y="724" type="curve"/>
      <point x="1117" y="880" type="line"/>
      <point x="1045" y="937"/>
      <point x="981" y="990"/>
      <point x="844" y="990" type="curve" smooth="yes"/>
      <point x="634" y="990"/>
      <point x="471" y="773"/>
      <point x="437" y="436" type="curve" smooth="yes"/>
      <point x="414" y="162"/>
      <point x="523" y="-17"/>
      <point x="688" y="-17" type="curve" smooth="yes"/>
      <point x="818" y="-17"/>
      <point x="915" y="80"/>
      <point x="966" y="271" type="curve"/>
      <point x="880" y="385" type="line"/>
      <point x="849" y="207"/>
      <point x="792" y="173"/>
      <point x="764" y="173" type="curve" smooth="yes"/>
      <point x="693" y="173"/>
      <point x="659" y="264"/>
    </contour>
  </outline>
</glyph>
<glyph name="A" format="1">
  <advance width="1234"/>
  <unicode hex="0041"/>
  <outline>
    <contour>
      <point x="619" y="1600" type="move" name="top"/>
    </contour>
    <contour>
      <point x="619" y="9" type="move" name="bottom"/>
    </contour>
    <contour>
      <point x="1221" y="0" type="move" name="right"/>
    </contour>
    <contour>
      <point x="300" y="1454" type="move" name="tonos"/>
    </contour>
    <contour>
      <point x="1121" y="0" type="move" name="ogonek"/>
    </contour>
    <contour>
      <point x="1214" y="1600" type="move" name="top_dd"/>
    </contour>
    <contour>
      <point x="1214" y="-407" type="move" name="bottom_dd"/>
    </contour>
    <contour>
      <point x="1214" y="1600" type="move" name="top0315"/>
    </contour>
    <contour>
      <point x="648" y="1150" type="line"/>
      <point x="683" y="1456" type="line"/>
      <point x="465" y="1456" type="line"/>
      <point x="15" y="0" type="line"/>
      <point x="363" y="0" type="line"/>
    </contour>
    <contour>
      <point x="871" y="0" type="line"/>
      <point x="1221" y="0" type="line"/>
      <point x="768" y="1456" type="line"/>
      <point x="546" y="1456" type="line"/>
      <point x="585" y="1150" type="line"/>
    </contour>
    <contour>
      <point x="882" y="543" type="line"/>
      <point x="242" y="543" type="line"/>
      <point x="242" y="272" type="line"/>
      <point x="882" y="272" type="line"/>
    </contour>
  </outline>
</glyph>
<glyph name="B" format="1">
  <advance width="1159"/>
  <unicode hex="0042"/>
  <outline>
    <contour>
      <point x="613" y="619" type="line"/>
      <point x="694" y="710" type="line"/>
      <point x="959" y="713"/>
      <point x="1050" y="875"/>
      <point x="1050" y="1054" type="curve"/>
      <point x="1050" y="1326"/>
      <point x="868" y="1456"/>
      <point x="563" y="1456" type="curve"/>
      <point x="105" y="1456" type="line"/>
      <point x="105" y="0" type="line"/>
      <point x="431" y="0" type="line"/>
      <point x="431" y="1185" type="line"/>
      <point x="563" y="1185" type="line"/>
      <point x="677" y="1185"/>
      <point x="723" y="1135"/>
      <point x="723" y="1012" type="curve"/>
      <point x="723" y="904"/>
      <point x="678" y="849"/>
      <point x="559" y="849" type="curve"/>
      <point x="311" y="849" type="line"/>
      <point x="313" y="619" type="line"/>
    </contour>
    <contour>
      <point x="602" y="0" type="line"/>
      <point x="912" y="0"/>
      <point x="1070" y="145"/>
      <point x="1070" y="431" type="curve" smooth="yes"/>
      <point x="1070" y="598"/>
      <point x="992" y="769"/>
      <point x="738" y="757" type="curve"/>
      <point x="661" y="849" type="line"/>
      <point x="360" y="849" type="line"/>
      <point x="358" y="619" type="line"/>
      <point x="613" y="619" type="line" smooth="yes"/>
      <point x="711" y="619"/>
      <point x="745" y="548"/>
      <point x="745" y="436" type="curve" smooth="yes"/>
      <point x="745" y="344"/>
      <point x="709" y="270"/>
      <point x="602" y="270" type="curve" smooth="yes"/>
      <point x="345" y="270" type="line"/>
      <point x="228" y="0" type="line"/>
    </contour>
    <contour>
      <point x="526" y="1612" type="move" name="top"/>
    </contour>
    <contour>
      <point x="525" y="10" type="move" name="bottom"/>
    </contour>
    <contour>
      <point x="1139" y="1600" type="move" name="top_dd"/>
    </contour>
    <contour>
      <point x="1139" y="-407" type="move" name="bottom_dd"/>
    </contour>
    <contour>
      <point x="1139" y="1612" type="move" name="top0315"/>
    </contour>
  </outline>
</glyph>
<glyph name="C" format="1">
  <advance width="1171"/>
  <unicode hex="0043"/>
  <outline>
    <contour>
      <point x="788" y="493" type="line"/>
      <point x="784" y="288"/>
      <point x="725" y="250"/>
      <point x="600" y="250" type="curve" smooth="yes"/>
      <point x="447" y="250"/>
      <point x="407" y="324"/>
      <point x="407" y="606" type="curve" smooth="yes"/>
      <point x="407" y="851" type="line" smooth="yes"/>
      <point x="407" y="1134"/>
      <point x="461" y="1207"/>
      <point x="598" y="1207" type="curve" smooth="yes"/>
      <point x="743" y="1207"/>
      <point x="786" y="1157"/>
      <point x="790" y="953" type="curve"/>
      <point x="1116" y="953" type="line"/>
      <point x="1091" y="1292"/>
      <point x="926" y="1477"/>
      <point x="598" y="1477" type="curve" smooth="yes"/>
      <point x="280" y="1477"/>
      <point x="80" y="1265"/>
      <point x="80" y="849" type="curve"/>
      <point x="80" y="606" type="line"/>
      <point x="80" y="190"/>
      <point x="267" y="-20"/>
      <point x="600" y="-20" type="curve" smooth="yes"/>
      <point x="912" y="-20"/>
      <point x="1100" y="151"/>
      <point x="1114" y="493" type="curve"/>
    </contour>
    <contour>
      <point x="603" y="1600" type="move" name="top"/>
    </contour>
    <contour>
      <point x="599" y="0" type="move" name="bottom"/>
    </contour>
    <contour>
      <point x="1151" y="1600" type="move" name="top_dd"/>
    </contour>
    <contour>
      <point x="1151" y="-407" type="move" name="bottom_dd"/>
    </contour>
    <contour>
      <point x="1151" y="1600" type="move" name="top0315"/>
    </contour>
  </outline>
</glyph>
<glyph name="D" format="1">
  <advance width="1153"/>
  <unicode hex="0044"/>
  <outline>
    <contour>
      <point x="505" y="0" type="line"/>
      <point x="841" y="0"/>
      <point x="1070" y="229"/>
      <point x="1070" y="617" type="curve"/>
      <point x="1070" y="838" type="line"/>
      <point x="1070" y="1226"/>
      <point x="841" y="1456"/>
      <point x="503" y="1456" type="curve"/>
      <point x="236" y="1456" type="line"/>
      <point x="236" y="1185" type="line"/>
      <point x="503" y="1185" type="line"/>
      <point x="696" y="1185"/>
      <point x="743" y="1093"/>
      <point x="743" y="840" type="curve"/>
      <point x="743" y="617" type="line" smooth="yes"/>
      <point x="743" y="362"/>
      <point x="696" y="270"/>
      <point x="505" y="270" type="curve"/>
      <point x="243" y="270" type="line"/>
      <point x="241" y="0" type="line"/>
    </contour>
    <contour>
      <point x="431" y="1456" type="line"/>
      <point x="105" y="1456" type="line"/>
      <point x="105" y="0" type="line"/>
      <point x="431" y="0" type="line"/>
    </contour>
    <contour>
      <point x="422" y="1600" type="move" name="top"/>
    </contour>
    <contour>
      <point x="290" y="726" type="move" name="cross"/>
    </contour>
    <contour>
      <point x="422" y="10" type="move" name="bottom"/>
    </contour>
    <contour>
      <point x="1133" y="1600" type="move" name="top_dd"/>
    </contour>
    <contour>
      <point x="1133" y="-407" type="move" name="bottom_dd"/>
    </contour>
    <contour>
      <point x="1133" y="1600" type="move" name="top0315"/>
    </contour>
  </outline>
</glyph>
<glyph name="E" format="1">
  <advance width="1001"/>
  <unicode hex="0045"/>
  <outline>
    <contour>
      <point x="957" y="270" type="line"/>
      <point x="322" y="270" type="line"/>
      <point x="322" y="0" type="line"/>
      <point x="957" y="0" type="line"/>
    </contour>
    <contour>
      <point x="431" y="1456" type="line"/>
      <point x="105" y="1456" type="line"/>
      <point x="105" y="0" type="line"/>
      <point x="431" y="0" type="line"/>
    </contour>
    <contour>
      <point x="874" y="878" type="line"/>
      <point x="322" y="878" type="line"/>
      <point x="322" y="617" type="line"/>
      <point x="874" y="617" type="line"/>
    </contour>
    <contour>
      <point x="958" y="1456" type="line"/>
      <point x="322" y="1456" type="line"/>
      <point x="322" y="1185" type="line"/>
      <point x="958" y="1185" type="line"/>
    </contour>
    <contour>
      <point x="562" y="1600" type="move" name="top"/>
    </contour>
    <contour>
      <point x="566" y="10" type="move" name="bottom"/>
    </contour>
    <contour>
      <point x="-69" y="1457" type="move" name="tonos"/>
    </contour>
    <contour>
      <point x="786" y="0" type="move" name="ogonek"/>
    </contour>
    <contour>
      <point x="981" y="1600" type="move" name="top_dd"/>
    </contour>
    <contour>
      <point x="981" y="-407" type="move" name="bottom_dd"/>
    </contour>
    <contour>
      <point x="981" y="1600" type="move" name="top0315"/>
    </contour>
  </outline>
</glyph>
<glyph name="F" format="1">
  <advance width="973"/>
  <unicode hex="0046"/>
  <outline>
    <contour>
      <point x="431" y="1456" type="line"/>
      <point x="105" y="1456" type="line"/>
      <point x="105" y="0" type="line"/>
      <point x="431" y="0" type="line"/>
    </contour>
    <contour>
      <point x="881" y="850" type="line"/>
      <point x="345" y="850" type="line"/>
      <point x="345" y="580" type="line"/>
      <point x="881" y="580" type="line"/>
    </contour>
    <contour>
      <point x="927" y="1456" type="line"/>
      <point x="345" y="1456" type="line"/>
      <point x="345" y="1185" type="line"/>
      <point x="927" y="1185" type="line"/>
    </contour>
    <contour>
      <point x="297" y="291" type="move" name="cross"/>
    </contour>
    <contour>
      <point x="562" y="1612" type="move" name="top"/>
    </contour>
    <contour>
      <point x="466" y="10" type="move" name="bottom"/>
    </contour>
    <contour>
      <point x="953" y="1600" type="move" name="top_dd"/>
    </contour>
    <contour>
      <point x="953" y="-407" type="move" name="bottom_dd"/>
    </contour>
    <contour>
      <point x="953" y="1612" type="move" name="top0315"/>
    </contour>
  </outline>
</glyph>
<glyph name="G" format="1">
  <advance width="1195"/>
  <unicode hex="0047"/>
  <outline>
    <contour>
      <point x="1120" y="778" type="line"/>
      <point x="602" y="778" type="line"/>
      <point x="602" y="537" type="line"/>
      <point x="793" y="537" type="line"/>
      <point x="793" y="290" type="line"/>
      <point x="771" y="280"/>
      <point x="733" y="250"/>
      <point x="649" y="250" type="curve" smooth="yes"/>
      <point x="482" y="250"/>
      <point x="414" y="342"/>
      <point x="414" y="607" type="curve" smooth="yes"/>
      <point x="414" y="850" type="line" smooth="yes"/>
      <point x="414" y="1117"/>
      <point x="489" y="1207"/>
      <point x="621" y="1207" type="curve" smooth="yes"/>
      <point x="741" y="1207"/>
      <point x="789" y="1166"/>
      <point x="805" y="981" type="curve"/>
      <point x="1119" y="981" type="line"/>
      <point x="1093" y="1309"/>
      <point x="954" y="1477"/>
      <point x="610" y="1477" type="curve" smooth="yes"/>
      <point x="297" y="1477"/>
      <point x="88" y="1275"/>
      <point x="88" y="848" type="curve" smooth="yes"/>
      <point x="88" y="607" type="line" smooth="yes"/>
      <point x="88" y="180"/>
      <point x="296" y="-20"/>
      <point x="627" y="-20" type="curve" smooth="yes"/>
      <point x="898" y="-20"/>
      <point x="1054" y="93"/>
      <point x="1120" y="159" type="curve"/>
    </contour>
    <contour>
      <point x="613" y="1600" type="move" name="top"/>
    </contour>
    <contour>
      <point x="629" y="0" type="move" name="bottom"/>
    </contour>
    <contour>
      <point x="1191" y="1600" type="move" name="top_dd"/>
    </contour>
    <contour>
      <point x="1191" y="-407" type="move" name="bottom_dd"/>
    </contour>
    <contour>
      <point x="1191" y="1600" type="move" name="top0315"/>
    </contour>
  </outline>
</glyph>
<glyph name="H" format="1">
  <advance width="1252"/>
  <unicode hex="0048"/>
  <outline>
    <contour>
      <point x="921" y="878" type="line"/>
      <point x="329" y="878" type="line"/>
      <point x="329" y="608" type="line"/>
      <point x="921" y="608" type="line"/>
    </contour>
    <contour>
      <point x="431" y="1456" type="line"/>
      <point x="105" y="1456" type="line"/>
      <point x="105" y="0" type="line"/>
      <point x="431" y="0" type="line"/>
    </contour>
    <contour>
      <point x="1146" y="1456" type="line"/>
      <point x="821" y="1456" type="line"/>
      <point x="821" y="0" type="line"/>
      <point x="1146" y="0" type="line"/>
    </contour>
    <contour>
      <point x="631" y="1600" type="move" name="top"/>
    </contour>
    <contour>
      <point x="1144" y="0" type="move" name="right"/>
    </contour>
    <contour>
      <point x="-71" y="1451" type="move" name="tonos"/>
    </contour>
    <contour>
      <point x="634" y="10" type="move" name="bottom"/>
    </contour>
    <contour>
      <point x="1232" y="1600" type="move" name="top_dd"/>
    </contour>
    <contour>
      <point x="1232" y="-407" type="move" name="bottom_dd"/>
    </contour>
    <contour>
      <point x="1232" y="1600" type="move" name="top0315"/>
    </contour>
  </outline>
</glyph>
<glyph name="I" format="1">
  <advance width="567"/>
  <unicode hex="0049"/>
  <outline>
    <contour>
      <point x="446" y="1456" type="line"/>
      <point x="121" y="1456" type="line"/>
      <point x="121" y="0" type="line"/>
      <point x="446" y="0" type="line"/>
    </contour>
    <contour>
      <point x="282" y="1600" type="move" name="top"/>
    </contour>
    <contour>
      <point x="283" y="0" type="move" name="bottom"/>
    </contour>
    <contour>
      <point x="-75" y="1457" type="move" name="tonos"/>
    </contour>
    <contour>
      <point x="438" y="0" type="move" name="right"/>
    </contour>
    <contour>
      <point x="380" y="0" type="move" name="ogonek"/>
    </contour>
    <contour>
      <point x="547" y="1600" type="move" name="top_dd"/>
    </contour>
    <contour>
      <point x="547" y="-407" type="move" name="bottom_dd"/>
    </contour>
    <contour>
      <point x="547" y="1600" type="move" name="top0315"/>
    </contour>
  </outline>
</glyph>
<glyph name="J" format="1">
  <advance width="1009"/>
  <unicode hex="004A"/>
  <outline>
    <contour>
      <point x="734" y="1600" type="move" name="top"/>
    </contour>
    <contour>
      <point x="450" y="-10" type="move" name="bottom"/>
    </contour>
    <contour>
      <point x="989" y="1600" type="move" name="top_dd"/>
    </contour>
    <contour>
      <point x="989" y="-407" type="move" name="bottom_dd"/>
    </contour>
    <contour>
      <point x="989" y="1600" type="move" name="top0315"/>
    </contour>
    <contour>
      <point x="579" y="457" type="line"/>
      <point x="579" y="327"/>
      <point x="544" y="250"/>
      <point x="474" y="250" type="curve" smooth="yes"/>
      <point x="410" y="250"/>
      <point x="371" y="292"/>
      <point x="371" y="440" type="curve"/>
      <point x="44" y="440" type="line"/>
      <point x="44" y="124"/>
      <point x="226" y="-20"/>
      <point x="474" y="-20" type="curve" smooth="yes"/>
      <point x="716" y="-20"/>
      <point x="904" y="165"/>
      <point x="904" y="457" type="curve"/>
      <point x="904" y="1456" type="line"/>
      <point x="579" y="1456" type="line"/>
    </contour>
  </outline>
</glyph>
<glyph name="K" format="1">
  <advance width="1139"/>
  <unicode hex="004B"/>
  <outline>
    <contour>
      <point x="431" y="1456" type="line"/>
      <point x="105" y="1456" type="line"/>
      <point x="105" y="0" type="line"/>
      <point x="431" y="0" type="line"/>
    </contour>
    <contour>
      <point x="1154" y="1456" type="line"/>
      <point x="753" y="1456" type="line"/>
      <point x="518" y="999" type="line"/>
      <point x="343" y="679" type="line"/>
      <point x="405" y="357" type="line"/>
      <point x="690" y="718" type="line"/>
    </contour>
    <contour>
      <point x="765" y="0" type="line"/>
      <point x="1151" y="0" type="line"/>
      <point x="734" y="857" type="line"/>
      <point x="483" y="656" type="line"/>
    </contour>
    <contour>
      <point x="568" y="53" type="move" name="bottom"/>
    </contour>
    <contour>
      <point x="1029" y="0" type="move" name="right"/>
    </contour>
    <contour>
      <point x="224" y="1225" type="move" name="cross"/>
    </contour>
    <contour>
      <point x="518" y="1600" type="move" name="top"/>
    </contour>
    <contour>
      <point x="1119" y="1600" type="move" name="top_dd"/>
    </contour>
    <contour>
      <point x="1119" y="-407" type="move" name="bottom_dd"/>
    </contour>
    <contour>
      <point x="1119" y="1600" type="move" name="top0315"/>
    </contour>
  </outline>
</glyph>
<glyph name="L" format="1">
  <advance width="981"/>
  <unicode hex="004C"/>
  <outline>
    <contour>
      <point x="277" y="1600" type="move" name="top"/>
    </contour>
    <contour>
      <point x="515" y="10" type="move" name="bottom"/>
    </contour>
    <contour>
      <point x="603" y="1456" type="move" name="caron"/>
    </contour>
    <contour>
      <point x="523" y="848" type="move" name="dot"/>
    </contour>
    <contour>
      <point x="961" y="1600" type="move" name="top_dd"/>
    </contour>
    <contour>
      <point x="961" y="-407" type="move" name="bottom_dd"/>
    </contour>
    <contour>
      <point x="961" y="1600" type="move" name="top0315"/>
    </contour>
    <contour>
      <point x="931" y="270" type="line"/>
      <point x="322" y="270" type="line"/>
      <point x="322" y="0" type="line"/>
      <point x="931" y="0" type="line"/>
    </contour>
    <contour>
      <point x="431" y="1456" type="line"/>
      <point x="105" y="1456" type="line"/>
      <point x="105" y="0" type="line"/>
      <point x="431" y="0" type="line"/>
    </contour>
  </outline>
</glyph>
<glyph name="M" format="1">
  <advance width="1554"/>
  <unicode hex="004D"/>
  <outline>
    <contour>
      <point x="264" y="1456" type="line"/>
      <point x="667" y="0" type="line"/>
      <point x="884" y="0" type="line"/>
      <point x="1287" y="1456" type="line"/>
      <point x="1020" y="1456" type="line"/>
      <point x="776" y="443" type="line"/>
      <point x="532" y="1456" type="line"/>
    </contour>
    <contour>
      <point x="105" y="1456" type="line"/>
      <point x="105" y="0" type="line"/>
      <point x="431" y="0" type="line"/>
      <point x="431" y="340" type="line"/>
      <point x="379" y="1456" type="line"/>
    </contour>
    <contour>
      <point x="1172" y="1456" type="line"/>
      <point x="1120" y="340" type="line"/>
      <point x="1120" y="0" type="line"/>
      <point x="1447" y="0" type="line"/>
      <point x="1447" y="1456" type="line"/>
    </contour>
    <contour>
      <point x="771" y="1600" type="move" name="top"/>
    </contour>
    <contour>
      <point x="1444" y="0" type="move" name="right"/>
    </contour>
    <contour>
      <point x="775" y="10" type="move" name="bottom"/>
    </contour>
    <contour>
      <point x="1534" y="1600" type="move" name="top_dd"/>
    </contour>
    <contour>
      <point x="1534" y="-407" type="move" name="bottom_dd"/>
    </contour>
    <contour>
      <point x="1534" y="1600" type="move" name="top0315"/>
    </contour>
  </outline>
</glyph>
<glyph name="N" format="1">
  <advance width="1249"/>
  <unicode hex="004E"/>
  <outline>
    <contour>
      <point x="630" y="1600" type="move" name="top"/>
    </contour>
    <contour>
      <point x="630" y="0" type="move" name="bottom"/>
    </contour>
    <contour>
      <point x="1141" y="0" type="move" name="right"/>
    </contour>
    <contour>
      <point x="1229" y="1600" type="move" name="top_dd"/>
    </contour>
    <contour>
      <point x="1229" y="-407" type="move" name="bottom_dd"/>
    </contour>
    <contour>
      <point x="1229" y="1600" type="move" name="top0315"/>
    </contour>
    <contour>
      <point x="1143" y="1456" type="line"/>
      <point x="818" y="1456" type="line"/>
      <point x="818" y="550" type="line"/>
      <point x="431" y="1456" type="line"/>
      <point x="105" y="1456" type="line"/>
      <point x="105" y="0" type="line"/>
      <point x="431" y="0" type="line"/>
      <point x="431" y="906" type="line"/>
      <point x="818" y="0" type="line"/>
      <point x="1143" y="0" type="line"/>
    </contour>
  </outline>
</glyph>
<glyph name="O" format="1">
  <advance width="1236"/>
  <unicode hex="004F"/>
  <outline>
    <contour>
      <point x="1153" y="837" type="line"/>
      <point x="1153" y="1258"/>
      <point x="933" y="1476"/>
      <point x="617" y="1476" type="curve" smooth="yes"/>
      <point x="298" y="1476"/>
      <point x="82" y="1258"/>
      <point x="82" y="837" type="curve"/>
      <point x="82" y="595" type="line"/>
      <point x="82" y="188"/>
      <point x="300" y="-20"/>
      <point x="619" y="-20" type="curve" smooth="yes"/>
      <point x="935" y="-20"/>
      <point x="1153" y="188"/>
      <point x="1153" y="595" type="curve"/>
    </contour>
    <contour>
      <point x="826" y="595" type="line"/>
      <point x="826" y="351"/>
      <point x="754" y="249"/>
      <point x="619" y="249" type="curve" smooth="yes"/>
      <point x="478" y="249"/>
      <point x="408" y="351"/>
      <point x="408" y="595" type="curve" smooth="yes"/>
      <point x="408" y="839" type="line" smooth="yes"/>
      <point x="408" y="1101"/>
      <point x="476" y="1206"/>
      <point x="617" y="1206" type="curve" smooth="yes"/>
      <point x="753" y="1206"/>
      <point x="826" y="1101"/>
      <point x="826" y="839" type="curve"/>
    </contour>
    <contour>
      <point x="617" y="1600" type="move" name="top"/>
    </contour>
    <contour>
      <point x="623" y="0" type="move" name="bottom"/>
    </contour>
    <contour>
      <point x="99" y="1454" type="move" name="tonos"/>
    </contour>
    <contour>
      <point x="1216" y="1600" type="move" name="top_dd"/>
    </contour>
    <contour>
      <point x="1216" y="-407" type="move" name="bottom_dd"/>
    </contour>
    <contour>
      <point x="1216" y="1600" type="move" name="top0315"/>
    </contour>
  </outline>
</glyph>
<glyph name="P" format="1">
  <advance width="1173"/>
  <unicode hex="0050"/>
  <outline>
    <contour>
      <point x="-29" y="1454" type="move" name="tonos"/>
    </contour>
    <contour>
      <point x="526" y="1612" type="move" name="top"/>
    </contour>
    <contour>
      <point x="465" y="10" type="move" name="bottom"/>
    </contour>
    <contour>
      <point x="1153" y="1600" type="move" name="top_dd"/>
    </contour>
    <contour>
      <point x="1153" y="-407" type="move" name="bottom_dd"/>
    </contour>
    <contour>
      <point x="1153" y="1612" type="move" name="top0315"/>
    </contour>
    <contour>
      <point x="609" y="494" type="line"/>
      <point x="907" y="494"/>
      <point x="1093" y="680"/>
      <point x="1093" y="962" type="curve"/>
      <point x="1093" y="1247"/>
      <point x="908" y="1456"/>
      <point x="609" y="1456" type="curve"/>
      <point x="105" y="1456" type="line"/>
      <point x="105" y="0" type="line"/>
      <point x="431" y="0" type="line"/>
      <point x="431" y="1185" type="line"/>
      <point x="609" y="1185" type="line"/>
      <point x="717" y="1185"/>
      <point x="763" y="1079"/>
      <point x="763" y="960" type="curve"/>
      <point x="763" y="847"/>
      <point x="717" y="765"/>
      <point x="609" y="765" type="curve"/>
      <point x="316" y="765" type="line"/>
      <point x="316" y="494" type="line"/>
    </contour>
  </outline>
</glyph>
<glyph name="Q" format="1">
  <advance width="1236"/>
  <unicode hex="0051"/>
  <outline>
    <contour>
      <point x="608" y="1600" type="move" name="top"/>
    </contour>
    <contour>
      <point x="606" y="-10" type="move" name="bottom"/>
    </contour>
    <contour>
      <point x="1216" y="1600" type="move" name="top_dd"/>
    </contour>
    <contour>
      <point x="1216" y="-407" type="move" name="bottom_dd"/>
    </contour>
    <contour>
      <point x="1216" y="1600" type="move" name="top0315"/>
    </contour>
    <contour>
      <point x="799" y="240" type="line"/>
      <point x="604" y="56" type="line"/>
      <point x="952" y="-266" type="line"/>
      <point x="1154" y="-82" type="line"/>
    </contour>
    <contour>
      <point x="1154" y="837" type="line"/>
      <point x="1154" y="1258"/>
      <point x="934" y="1476"/>
      <point x="618" y="1476" type="curve" smooth="yes"/>
      <point x="299" y="1476"/>
      <point x="83" y="1258"/>
      <point x="83" y="837" type="curve"/>
      <point x="83" y="618" type="line"/>
      <point x="83" y="197"/>
      <point x="301" y="-20"/>
      <point x="620" y="-20" type="curve" smooth="yes"/>
      <point x="936" y="-20"/>
      <point x="1154" y="197"/>
      <point x="1154" y="618" type="curve"/>
    </contour>
    <contour>
      <point x="827" y="618" type="line"/>
      <point x="827" y="359"/>
      <point x="755" y="249"/>
      <point x="620" y="249" type="curve" smooth="yes"/>
      <point x="479" y="249"/>
      <point x="409" y="359"/>
      <point x="409" y="618" type="curve" smooth="yes"/>
      <point x="409" y="839" type="line" smooth="yes"/>
      <point x="409" y="1101"/>
      <point x="477" y="1206"/>
      <point x="618" y="1206" type="curve" smooth="yes"/>
      <point x="754" y="1206"/>
      <point x="827" y="1101"/>
      <point x="827" y="839" type="curve"/>
    </contour>
  </outline>
</glyph>
<glyph name="R" format="1">
  <advance width="1153"/>
  <unicode hex="0052"/>
  <outline>
    <contour>
      <point x="106" y="1456" type="line"/>
      <point x="106" y="0" type="line"/>
      <point x="432" y="0" type="line"/>
      <point x="432" y="1185" type="line"/>
      <point x="595" y="1185" type="line" smooth="yes"/>
      <point x="693" y="1185"/>
      <point x="739" y="1109"/>
      <point x="739" y="984" type="curve" smooth="yes"/>
      <point x="739" y="860"/>
      <point x="688" y="785"/>
      <point x="587" y="785" type="curve" smooth="yes"/>
      <point x="315" y="785" type="line"/>
      <point x="317" y="514" type="line"/>
      <point x="704" y="514" type="line"/>
      <point x="808" y="579" type="line"/>
      <point x="964" y="649"/>
      <point x="1065" y="766"/>
      <point x="1065" y="1016" type="curve" smooth="yes"/>
      <point x="1065" y="1303"/>
      <point x="886" y="1456"/>
      <point x="595" y="1456" type="curve" smooth="yes"/>
    </contour>
    <contour>
      <point x="756" y="0" type="line"/>
      <point x="1106" y="0" type="line"/>
      <point x="1106" y="15" type="line"/>
      <point x="840" y="646" type="line"/>
      <point x="495" y="644" type="line"/>
    </contour>
    <contour>
      <point x="517" y="1600" type="move" name="top"/>
    </contour>
    <contour>
      <point x="536" y="10" type="move" name="bottom"/>
    </contour>
    <contour>
      <point x="1133" y="1600" type="move" name="top_dd"/>
    </contour>
    <contour>
      <point x="1133" y="-407" type="move" name="bottom_dd"/>
    </contour>
    <contour>
      <point x="1133" y="1600" type="move" name="top0315"/>
    </contour>
  </outline>
</glyph>
<glyph name="S" format="1">
  <advance width="1121"/>
  <unicode hex="0053"/>
  <outline>
    <contour>
      <point x="717" y="387" type="curve" smooth="yes"/>
      <point x="717" y="309"/>
      <point x="687" y="244"/>
      <point x="588" y="244" type="curve" smooth="yes"/>
      <point x="454" y="244"/>
      <point x="398" y="301"/>
      <point x="398" y="472" type="curve"/>
      <point x="71" y="472" type="line"/>
      <point x="71" y="127"/>
      <point x="332" y="-20"/>
      <point x="588" y="-20" type="curve" smooth="yes"/>
      <point x="868" y="-20"/>
      <point x="1044" y="127"/>
      <point x="1044" y="389" type="curve"/>
      <point x="1044" y="634"/>
      <point x="902" y="772"/>
      <point x="636" y="870" type="curve"/>
      <point x="519" y="924"/>
      <point x="432" y="977"/>
      <point x="432" y="1064" type="curve"/>
      <point x="432" y="1144"/>
      <point x="479" y="1211"/>
      <point x="576" y="1211" type="curve" smooth="yes"/>
      <point x="678" y="1211"/>
      <point x="721" y="1134"/>
      <point x="721" y="1024" type="curve"/>
      <point x="1046" y="1024" type="line"/>
      <point x="1046" y="1299"/>
      <point x="858" y="1476"/>
      <point x="583" y="1476" type="curve" smooth="yes"/>
      <point x="307" y="1476"/>
      <point x="107" y="1317"/>
      <point x="107" y="1067" type="curve"/>
      <point x="107" y="805"/>
      <point x="312" y="685"/>
      <point x="523" y="600" type="curve"/>
      <point x="695" y="527"/>
      <point x="717" y="478"/>
    </contour>
    <contour>
      <point x="577" y="1600" type="move" name="top"/>
    </contour>
    <contour>
      <point x="577" y="0" type="move" name="bottom"/>
    </contour>
    <contour>
      <point x="1101" y="1600" type="move" name="top_dd"/>
    </contour>
    <contour>
      <point x="1101" y="-407" type="move" name="bottom_dd"/>
    </contour>
    <contour>
      <point x="1101" y="1600" type="move" name="top0315"/>
    </contour>
  </outline>
</glyph>
<glyph name="T" format="1">
  <advance width="1128"/>
  <unicode hex="0054"/>
  <outline>
    <contour>
      <point x="723" y="1456" type="line"/>
      <point x="396" y="1456" type="line"/>
      <point x="396" y="0" type="line"/>
      <point x="723" y="0" type="line"/>
    </contour>
    <contour>
      <point x="1078" y="1456" type="line"/>
      <point x="49" y="1456" type="line"/>
      <point x="49" y="1185" type="line"/>
      <point x="1078" y="1185" type="line"/>
    </contour>
    <contour>
      <point x="557" y="1600" type="move" name="top"/>
    </contour>
    <contour>
      <point x="556" y="10" type="move" name="bottom"/>
    </contour>
    <contour>
      <point x="682" y="0" type="move" name="right"/>
    </contour>
    <contour>
      <point x="530" y="814" type="move" name="cross"/>
    </contour>
    <contour>
      <point x="1108" y="1600" type="move" name="top_dd"/>
    </contour>
    <contour>
      <point x="1108" y="-407" type="move" name="bottom_dd"/>
    </contour>
    <contour>
      <point x="1108" y="1600" type="move" name="top0315"/>
    </contour>
  </outline>
</glyph>
<glyph name="U" format="1">
  <advance width="1179"/>
  <unicode hex="0055"/>
  <outline>
    <contour>
      <point x="751" y="1456" type="line"/>
      <point x="751" y="465" type="line" smooth="yes"/>
      <point x="751" y="285"/>
      <point x="699" y="250"/>
      <point x="590" y="250" type="curve" smooth="yes"/>
      <point x="481" y="250"/>
      <point x="427" y="285"/>
      <point x="427" y="465" type="curve" smooth="yes"/>
      <point x="427" y="1456" type="line"/>
      <point x="99" y="1456" type="line"/>
      <point x="99" y="465" type="line"/>
      <point x="99" y="124"/>
      <point x="298" y="-20"/>
      <point x="590" y="-20" type="curve" smooth="yes"/>
      <point x="882" y="-20"/>
      <point x="1077" y="124"/>
      <point x="1077" y="465" type="curve"/>
      <point x="1077" y="1456" type="line"/>
    </contour>
    <contour>
      <point x="581" y="1600" type="move" name="top"/>
    </contour>
    <contour>
      <point x="584" y="0" type="move" name="bottom"/>
    </contour>
    <contour>
      <point x="728" y="0" type="move" name="right"/>
    </contour>
    <contour>
      <point x="909" y="76" type="move" name="ogonek"/>
    </contour>
    <contour>
      <point x="1159" y="1600" type="move" name="top_dd"/>
    </contour>
    <contour>
      <point x="1159" y="-407" type="move" name="bottom_dd"/>
    </contour>
    <contour>
      <point x="1159" y="1600" type="move" name="top0315"/>
    </contour>
  </outline>
</glyph>
<glyph name="V" format="1">
  <advance width="1193"/>
  <unicode hex="0056"/>
  <outline>
    <contour>
      <point x="576" y="343" type="line"/>
      <point x="535" y="0" type="line"/>
      <point x="771" y="0" type="line"/>
      <point x="1180" y="1456" type="line"/>
      <point x="815" y="1456" type="line"/>
    </contour>
    <contour>
      <point x="377" y="1456" type="line"/>
      <point x="14" y="1456" type="line"/>
      <point x="420" y="0" type="line"/>
      <point x="658" y="0" type="line"/>
      <point x="615" y="343" type="line"/>
    </contour>
    <contour>
      <point x="595" y="1612" type="move" name="top"/>
    </contour>
    <contour>
      <point x="595" y="10" type="move" name="bottom"/>
    </contour>
    <contour>
      <point x="1173" y="1600" type="move" name="top_dd"/>
    </contour>
    <contour>
      <point x="1173" y="-407" type="move" name="bottom_dd"/>
    </contour>
    <contour>
      <point x="1173" y="1612" type="move" name="top0315"/>
    </contour>
  </outline>
</glyph>
<glyph name="W" format="1">
  <advance width="1527"/>
  <unicode hex="0057"/>
  <outline>
    <contour>
      <point x="390" y="132" type="line"/>
      <point x="444" y="0" type="line"/>
      <point x="622" y="0" type="line"/>
      <point x="872" y="1343" type="line"/>
      <point x="785" y="1456" type="line"/>
      <point x="624" y="1456" type="line"/>
    </contour>
    <contour>
      <point x="360" y="1456" type="line"/>
      <point x="36" y="1456" type="line"/>
      <point x="287" y="0" type="line"/>
      <point x="490" y="0" type="line"/>
      <point x="553" y="122" type="line"/>
    </contour>
    <contour>
      <point x="974" y="129" type="line"/>
      <point x="1035" y="0" type="line"/>
      <point x="1238" y="0" type="line"/>
      <point x="1488" y="1456" type="line"/>
      <point x="1166" y="1456" type="line"/>
    </contour>
    <contour>
      <point x="899" y="1456" type="line"/>
      <point x="739" y="1456" type="line"/>
      <point x="648" y="1345" type="line"/>
      <point x="904" y="0" type="line"/>
      <point x="1081" y="0" type="line"/>
      <point x="1138" y="124" type="line"/>
    </contour>
    <contour>
      <point x="768" y="1600" type="move" name="top"/>
    </contour>
    <contour>
      <point x="763" y="10" type="move" name="bottom"/>
    </contour>
    <contour>
      <point x="1507" y="1600" type="move" name="top_dd"/>
    </contour>
    <contour>
      <point x="1507" y="-407" type="move" name="bottom_dd"/>
    </contour>
    <contour>
      <point x="1507" y="1600" type="move" name="top0315"/>
    </contour>
  </outline>
</glyph>
<glyph name="X" format="1">
  <advance width="1150"/>
  <unicode hex="0058"/>
  <outline>
    <contour>
      <point x="569" y="19" type="move" name="bottom"/>
    </contour>
    <contour>
      <point x="977" y="0" type="move" name="right"/>
    </contour>
    <contour>
      <point x="572" y="742" type="move" name="cross"/>
    </contour>
    <contour>
      <point x="552" y="1612" type="move" name="top"/>
    </contour>
    <contour>
      <point x="1130" y="1600" type="move" name="top_dd"/>
    </contour>
    <contour>
      <point x="1130" y="-407" type="move" name="bottom_dd"/>
    </contour>
    <contour>
      <point x="1130" y="1612" type="move" name="top0315"/>
    </contour>
    <contour>
      <point x="401" y="1456" type="line"/>
      <point x="29" y="1456" type="line"/>
      <point x="361" y="734" type="line"/>
      <point x="21" y="0" type="line"/>
      <point x="398" y="0" type="line"/>
      <point x="575" y="493" type="line"/>
      <point x="753" y="0" type="line"/>
      <point x="1129" y="0" type="line"/>
      <point x="790" y="734" type="line"/>
      <point x="1121" y="1456" type="line"/>
      <point x="749" y="1456" type="line"/>
      <point x="575" y="972" type="line"/>
    </contour>
  </outline>
</glyph>
<glyph name="Y" format="1">
  <advance width="1124"/>
  <unicode hex="0059"/>
  <outline>
    <contour>
      <point x="364" y="1456" type="line"/>
      <point x="13" y="1456" type="line"/>
      <point x="397" y="523" type="line"/>
      <point x="397" y="0" type="line"/>
      <point x="728" y="0" type="line"/>
      <point x="728" y="523" type="line"/>
      <point x="1112" y="1456" type="line"/>
      <point x="760" y="1456" type="line"/>
      <point x="563" y="824" type="line"/>
    </contour>
    <contour>
      <point x="564" y="1600" type="move" name="top"/>
    </contour>
    <contour>
      <point x="560" y="47" type="move" name="bottom"/>
    </contour>
    <contour>
      <point x="567" y="604" type="move" name="cross"/>
    </contour>
    <contour>
      <point x="-40" y="1454" type="move" name="tonos"/>
    </contour>
    <contour>
      <point x="1104" y="1600" type="move" name="top_dd"/>
    </contour>
    <contour>
      <point x="1104" y="-407" type="move" name="bottom_dd"/>
    </contour>
    <contour>
      <point x="1104" y="1600" type="move" name="top0315"/>
    </contour>
  </outline>
</glyph>
<glyph name="Z" format="1">
  <advance width="1091"/>
  <unicode hex="005A"/>
  <outline>
    <contour>
      <point x="1034" y="270" type="line"/>
      <point x="151" y="270" type="line"/>
      <point x="151" y="0" type="line"/>
      <point x="1034" y="0" type="line"/>
    </contour>
    <contour>
      <point x="1029" y="1276" type="line"/>
      <point x="1029" y="1456" type="line"/>
      <point x="805" y="1456" type="line"/>
      <point x="74" y="185" type="line"/>
      <point x="74" y="0" type="line"/>
      <point x="308" y="0" type="line"/>
    </contour>
    <contour>
      <point x="923" y="1456" type="line"/>
      <point x="65" y="1456" type="line"/>
      <point x="65" y="1185" type="line"/>
      <point x="923" y="1185" type="line"/>
    </contour>
    <contour>
      <point x="557" y="1600" type="move" name="top"/>
    </contour>
    <contour>
      <point x="551" y="10" type="move" name="bottom"/>
    </contour>
    <contour>
      <point x="1071" y="1600" type="move" name="top_dd"/>
    </contour>
    <contour>
      <point x="1071" y="-407" type="move" name="bottom_dd"/>
    </contour>
    <contour>
      <point x="1071" y="1600" type="move" name="top0315"/>
    </contour>
  </outline>
</glyph>
<glyph name="bracketleft" format="1">
  <advance width="545"/>
  <unicode hex="005B"/>
  <outline>
    <contour>
      <point x="507" y="1706" type="line"/>
      <point x="103" y="1706" type="line"/>
      <point x="103" y="-349" type="line"/>
      <point x="507" y="-349" type="line"/>
      <point x="507" y="-104" type="line"/>
      <point x="417" y="-104" type="line"/>
      <point x="417" y="1460" type="line"/>
      <point x="507" y="1460" type="line"/>
    </contour>
  </outline>
</glyph>
<glyph name="backslash" format="1">
  <advance width="787"/>
  <unicode hex="005C"/>
  <outline>
    <contour>
      <point x="507" y="-125" type="line"/>
      <point x="832" y="-125" type="line"/>
      <point x="322" y="1456" type="line"/>
      <point x="-3" y="1456" type="line"/>
    </contour>
  </outline>
</glyph>
<glyph name="bracketright" format="1">
  <advance width="545"/>
  <unicode hex="005D"/>
  <outline>
    <contour>
      <point x="35" y="1460" type="line"/>
      <point x="126" y="1460" type="line"/>
      <point x="126" y="-104" type="line"/>
      <point x="35" y="-104" type="line"/>
      <point x="35" y="-349" type="line"/>
      <point x="439" y="-349" type="line"/>
      <point x="439" y="1706" type="line"/>
      <point x="35" y="1706" type="line"/>
    </contour>
  </outline>
</glyph>
<glyph name="asciicircum" format="1">
  <advance width="814"/>
  <unicode hex="005E"/>
  <outline>
    <contour>
      <point x="415" y="1201" type="line"/>
      <point x="468" y="1456" type="line"/>
      <point x="296" y="1456" type="line"/>
      <point x="44" y="729" type="line"/>
      <point x="281" y="729" type="line"/>
    </contour>
    <contour>
      <point x="539" y="729" type="line"/>
      <point x="775" y="729" type="line"/>
      <point x="524" y="1456" type="line"/>
      <point x="352" y="1456" type="line"/>
      <point x="405" y="1201" type="line"/>
    </contour>
  </outline>
</glyph>
<glyph name="underscore" format="1">
  <advance width="813"/>
  <unicode hex="005F"/>
  <outline>
    <contour>
      <point x="388" y="132" type="move" name="_bottom"/>
    </contour>
    <contour>
      <point x="791" y="0" type="line"/>
      <point x="20" y="0" type="line"/>
      <point x="20" y="-251" type="line"/>
      <point x="791" y="-251" type="line"/>
    </contour>
  </outline>
</glyph>
<glyph name="grave" format="1">
  <advance width="690"/>
  <unicode hex="0060"/>
  <outline>
    <contour>
      <point x="397" y="1536" type="line"/>
      <point x="54" y="1536" type="line"/>
      <point x="334" y="1222" type="line"/>
      <point x="596" y="1222" type="line"/>
    </contour>
    <contour>
      <point x="441" y="1290" type="move" name="_top"/>
    </contour>
    <contour>
      <point x="441" y="1670" type="move" name="mkmktop_acc"/>
    </contour>
  </outline>
</glyph>
<glyph name="a" format="1">
  <advance width="958"/>
  <unicode hex="0061"/>
  <outline>
    <contour>
      <point x="554" y="272" type="line"/>
      <point x="554" y="169"/>
      <point x="567" y="66"/>
      <point x="596" y="0" type="curve"/>
      <point x="909" y="0" type="line"/>
      <point x="909" y="17" type="line"/>
      <point x="883" y="71"/>
      <point x="868" y="132"/>
      <point x="868" y="273" type="curve" smooth="yes"/>
      <point x="868" y="736" type="line"/>
      <point x="868" y="993"/>
      <point x="704" y="1102"/>
      <point x="485" y="1102" type="curve" smooth="yes"/>
      <point x="236" y="1102"/>
      <point x="79" y="950"/>
      <point x="79" y="749" type="curve"/>
      <point x="392" y="749" type="line"/>
      <point x="392" y="825"/>
      <point x="416" y="861"/>
      <point x="478" y="861" type="curve" smooth="yes"/>
      <point x="526" y="861"/>
      <point x="554" y="829"/>
      <point x="554" y="741" type="curve"/>
    </contour>
    <contour>
      <point x="590" y="661" type="line"/>
      <point x="488" y="661" type="line"/>
      <point x="196" y="661"/>
      <point x="58" y="528"/>
      <point x="58" y="305" type="curve" smooth="yes"/>
      <point x="58" y="113"/>
      <point x="202" y="-20"/>
      <point x="372" y="-20" type="curve" smooth="yes"/>
      <point x="536" y="-20"/>
      <point x="594" y="97"/>
      <point x="635" y="194" type="curve"/>
      <point x="564" y="312" type="line"/>
      <point x="574" y="273"/>
      <point x="528" y="220"/>
      <point x="447" y="220" type="curve" smooth="yes"/>
      <point x="402" y="220"/>
      <point x="372" y="262"/>
      <point x="372" y="323" type="curve" smooth="yes"/>
      <point x="372" y="405"/>
      <point x="402" y="481"/>
      <point x="490" y="481" type="curve"/>
      <point x="592" y="481" type="line"/>
    </contour>
    <contour>
      <point x="468" y="1290" type="move" name="top"/>
    </contour>
    <contour>
      <point x="406" y="22" type="move" name="bottom"/>
    </contour>
    <contour>
      <point x="856" y="0" type="move" name="ogonek"/>
    </contour>
    <contour>
      <point x="599" y="1290" type="move" name="rhalfring"/>
    </contour>
    <contour>
      <point x="938" y="1600" type="move" name="top_dd"/>
    </contour>
    <contour>
      <point x="938" y="-407" type="move" name="bottom_dd"/>
    </contour>
    <contour>
      <point x="736" y="654" type="move" name="rhotichook"/>
    </contour>
    <contour>
      <point x="938" y="1290" type="move" name="top0315"/>
    </contour>
  </outline>
</glyph>
<glyph name="b" format="1">
  <advance width="1014"/>
  <unicode hex="0062"/>
  <outline>
    <contour>
      <point x="95" y="1536" type="line"/>
      <point x="95" y="0" type="line"/>
      <point x="385" y="0" type="line"/>
      <point x="408" y="266" type="line"/>
      <point x="408" y="1536" type="line"/>
    </contour>
    <contour>
      <point x="955" y="573" type="line"/>
      <point x="955" y="914"/>
      <point x="855" y="1102"/>
      <point x="608" y="1102" type="curve" smooth="yes"/>
      <point x="398" y="1102"/>
      <point x="309" y="874"/>
      <point x="276" y="594" type="curve"/>
      <point x="276" y="489" type="line"/>
      <point x="311" y="207"/>
      <point x="399" y="-20"/>
      <point x="610" y="-20" type="curve" smooth="yes"/>
      <point x="855" y="-20"/>
      <point x="955" y="159"/>
      <point x="955" y="512" type="curve" smooth="yes"/>
    </contour>
    <contour>
      <point x="642" y="512" type="line"/>
      <point x="642" y="310"/>
      <point x="632" y="239"/>
      <point x="519" y="239" type="curve" smooth="yes"/>
      <point x="406" y="239"/>
      <point x="375" y="321"/>
      <point x="381" y="462" type="curve"/>
      <point x="381" y="621" type="line"/>
      <point x="376" y="758"/>
      <point x="414" y="842"/>
      <point x="517" y="842" type="curve" smooth="yes"/>
      <point x="628" y="842"/>
      <point x="642" y="756"/>
      <point x="642" y="573" type="curve" smooth="yes"/>
    </contour>
    <contour>
      <point x="604" y="1600" type="move" name="top"/>
    </contour>
    <contour>
      <point x="608" y="-10" type="move" name="bottom"/>
    </contour>
    <contour>
      <point x="994" y="1600" type="move" name="top_dd"/>
    </contour>
    <contour>
      <point x="994" y="-407" type="move" name="bottom_dd"/>
    </contour>
    <contour>
      <point x="994" y="1600" type="move" name="top0315"/>
    </contour>
  </outline>
</glyph>
<glyph name="c" format="1">
  <advance width="940"/>
  <unicode hex="0063"/>
  <outline>
    <contour>
      <point x="468" y="1290" type="move" name="top"/>
    </contour>
    <contour>
      <point x="495" y="0" type="move" name="bottom"/>
    </contour>
    <contour>
      <point x="468" y="1290" type="move" name="marktop"/>
    </contour>
    <contour>
      <point x="920" y="1600" type="move" name="top_dd"/>
    </contour>
    <contour>
      <point x="920" y="-407" type="move" name="bottom_dd"/>
    </contour>
    <contour>
      <point x="920" y="1290" type="move" name="top0315"/>
    </contour>
    <contour>
      <point x="489" y="240" type="curve" smooth="yes"/>
      <point x="380" y="240"/>
      <point x="375" y="323"/>
      <point x="375" y="509" type="curve" smooth="yes"/>
      <point x="375" y="572" type="line" smooth="yes"/>
      <point x="375" y="752"/>
      <point x="381" y="842"/>
      <point x="487" y="842" type="curve"/>
      <point x="567" y="842"/>
      <point x="594" y="778"/>
      <point x="592" y="668" type="curve"/>
      <point x="886" y="668" type="line"/>
      <point x="887" y="956"/>
      <point x="730" y="1102"/>
      <point x="494" y="1102" type="curve" smooth="yes"/>
      <point x="204" y="1102"/>
      <point x="61" y="909"/>
      <point x="61" y="572" type="curve" smooth="yes"/>
      <point x="61" y="509" type="line" smooth="yes"/>
      <point x="61" y="172"/>
      <point x="204" y="-20"/>
      <point x="496" y="-20" type="curve"/>
      <point x="719" y="-20"/>
      <point x="887" y="129"/>
      <point x="886" y="386" type="curve"/>
      <point x="592" y="386" type="line"/>
      <point x="594" y="279"/>
      <point x="560" y="240"/>
    </contour>
  </outline>
</glyph>
<glyph name="d" format="1">
  <advance width="1014"/>
  <unicode hex="0064"/>
  <outline>
    <contour>
      <point x="604" y="248" type="line"/>
      <point x="635" y="-1" type="line"/>
      <point x="919" y="0" type="line"/>
      <point x="919" y="1536" type="line"/>
      <point x="604" y="1536" type="line"/>
    </contour>
    <contour>
      <point x="57" y="508" type="line"/>
      <point x="57" y="169"/>
      <point x="171" y="-20"/>
      <point x="403" y="-20" type="curve" smooth="yes"/>
      <point x="602" y="-20"/>
      <point x="704" y="209"/>
      <point x="737" y="480" type="curve"/>
      <point x="737" y="585" type="line"/>
      <point x="706" y="876"/>
      <point x="603" y="1102"/>
      <point x="404" y="1102" type="curve" smooth="yes"/>
      <point x="171" y="1102"/>
      <point x="57" y="924"/>
      <point x="57" y="569" type="curve" smooth="yes"/>
    </contour>
    <contour>
      <point x="371" y="569" type="line"/>
      <point x="371" y="763"/>
      <point x="400" y="842"/>
      <point x="496" y="842" type="curve" smooth="yes"/>
      <point x="587" y="842"/>
      <point x="637" y="762"/>
      <point x="633" y="612" type="curve"/>
      <point x="633" y="453" type="line"/>
      <point x="638" y="323"/>
      <point x="593" y="240"/>
      <point x="495" y="240" type="curve" smooth="yes"/>
      <point x="396" y="240"/>
      <point x="371" y="320"/>
      <point x="371" y="508" type="curve" smooth="yes"/>
    </contour>
    <contour>
      <point x="1014" y="1536" type="move" name="caron"/>
    </contour>
    <contour>
      <point x="718" y="1306" type="move" name="cross"/>
    </contour>
    <contour>
      <point x="503" y="0" type="move" name="bottom"/>
    </contour>
    <contour>
      <point x="413" y="1600" type="move" name="top"/>
    </contour>
    <contour>
      <point x="994" y="1600" type="move" name="top_dd"/>
    </contour>
    <contour>
      <point x="994" y="-407" type="move" name="bottom_dd"/>
    </contour>
    <contour>
      <point x="994" y="1600" type="move" name="top0315"/>
    </contour>
  </outline>
</glyph>
<glyph name="e" format="1">
  <advance width="986"/>
  <unicode hex="0065"/>
  <outline>
    <contour>
      <point x="546" y="-20" type="curve"/>
      <point x="728" y="-20"/>
      <point x="859" y="65"/>
      <point x="915" y="140" type="curve"/>
      <point x="800" y="329" type="line"/>
      <point x="741" y="271"/>
      <point x="659" y="240"/>
      <point x="567" y="240" type="curve" smooth="yes"/>
      <point x="449" y="240"/>
      <point x="384" y="297"/>
      <point x="384" y="485" type="curve" smooth="yes"/>
      <point x="384" y="563" type="line" smooth="yes"/>
      <point x="384" y="748"/>
      <point x="402" y="842"/>
      <point x="512" y="842" type="curve"/>
      <point x="593" y="842"/>
      <point x="629" y="793"/>
      <point x="629" y="672" type="curve"/>
      <point x="629" y="646" type="line"/>
      <point x="192" y="646" type="line"/>
      <point x="192" y="435" type="line"/>
      <point x="936" y="435" type="line"/>
      <point x="936" y="572" type="line" smooth="yes"/>
      <point x="936" y="923"/>
      <point x="785" y="1102"/>
      <point x="514" y="1102" type="curve" smooth="yes"/>
      <point x="219" y="1102"/>
      <point x="71" y="903"/>
      <point x="71" y="563" type="curve" smooth="yes"/>
      <point x="71" y="485" type="line" smooth="yes"/>
      <point x="71" y="177"/>
      <point x="240" y="-20"/>
    </contour>
    <contour>
      <point x="466" y="1291" type="move" name="top"/>
    </contour>
    <contour>
      <point x="500" y="0" type="move" name="bottom"/>
    </contour>
    <contour>
      <point x="760" y="35" type="move" name="ogonek"/>
    </contour>
    <contour>
      <point x="968" y="1600" type="move" name="top_dd"/>
    </contour>
    <contour>
      <point x="968" y="-407" type="move" name="bottom_dd"/>
    </contour>
    <contour>
      <point x="792" y="654" type="move" name="rhotichook"/>
    </contour>
    <contour>
      <point x="968" y="1291" type="move" name="top0315"/>
    </contour>
  </outline>
</glyph>
<glyph name="f" format="1">
  <advance width="677"/>
  <unicode hex="0066"/>
  <outline>
    <contour>
      <point x="470" y="0" type="line"/>
      <point x="470" y="1170" type="line"/>
      <point x="470" y="1252"/>
      <point x="512" y="1297"/>
      <point x="589" y="1297" type="curve" smooth="yes"/>
      <point x="616" y="1297"/>
      <point x="637" y="1294"/>
      <point x="655" y="1288" type="curve"/>
      <point x="654" y="1536" type="line"/>
      <point x="612" y="1548"/>
      <point x="569" y="1557"/>
      <point x="519" y="1557" type="curve" smooth="yes"/>
      <point x="296" y="1557"/>
      <point x="155" y="1421"/>
      <point x="155" y="1170" type="curve"/>
      <point x="155" y="0" type="line"/>
    </contour>
    <contour>
      <point x="636" y="1082" type="line"/>
      <point x="27" y="1082" type="line"/>
      <point x="27" y="848" type="line"/>
      <point x="636" y="848" type="line"/>
    </contour>
    <contour>
      <point x="381" y="1662" type="move" name="top"/>
    </contour>
    <contour>
      <point x="297" y="10" type="move" name="bottom"/>
    </contour>
    <contour>
      <point x="657" y="1600" type="move" name="top_dd"/>
    </contour>
    <contour>
      <point x="657" y="-407" type="move" name="bottom_dd"/>
    </contour>
    <contour>
      <point x="657" y="1662" type="move" name="top0315"/>
    </contour>
  </outline>
</glyph>
<glyph name="g" format="1">
  <advance width="1036"/>
  <unicode hex="0067"/>
  <outline>
    <contour>
      <point x="659" y="1082" type="line"/>
      <point x="628" y="826" type="line"/>
      <point x="628" y="4" type="line" smooth="yes"/>
      <point x="628" y="-136"/>
      <point x="574" y="-177"/>
      <point x="463" y="-177" type="curve" smooth="yes"/>
      <point x="378" y="-177"/>
      <point x="286" y="-131"/>
      <point x="242" y="-86" type="curve"/>
      <point x="141" y="-304" type="line"/>
      <point x="215" y="-384"/>
      <point x="366" y="-426"/>
      <point x="475" y="-426" type="curve" smooth="yes"/>
      <point x="757" y="-426"/>
      <point x="942" y="-298"/>
      <point x="942" y="2" type="curve" smooth="yes"/>
      <point x="942" y="1082" type="line"/>
    </contour>
    <contour>
      <point x="61" y="508" type="line"/>
      <point x="61" y="169"/>
      <point x="195" y="-20"/>
      <point x="426" y="-20" type="curve" smooth="yes"/>
      <point x="637" y="-20"/>
      <point x="725" y="209"/>
      <point x="761" y="480" type="curve"/>
      <point x="761" y="585" type="line"/>
      <point x="727" y="876"/>
      <point x="669" y="1102"/>
      <point x="427" y="1102" type="curve" smooth="yes"/>
      <point x="194" y="1102"/>
      <point x="61" y="924"/>
      <point x="61" y="569" type="curve" smooth="yes"/>
    </contour>
    <contour>
      <point x="374" y="569" type="line"/>
      <point x="374" y="763"/>
      <point x="424" y="842"/>
      <point x="520" y="842" type="curve" smooth="yes"/>
      <point x="623" y="842"/>
      <point x="671" y="762"/>
      <point x="666" y="612" type="curve"/>
      <point x="666" y="453" type="line"/>
      <point x="672" y="323"/>
      <point x="631" y="240"/>
      <point x="518" y="240" type="curve" smooth="yes"/>
      <point x="420" y="240"/>
      <point x="374" y="320"/>
      <point x="374" y="508" type="curve" smooth="yes"/>
    </contour>
    <contour>
      <point x="483" y="1290" type="move" name="top"/>
    </contour>
    <contour>
      <point x="485" y="-447" type="move" name="bottom"/>
    </contour>
    <contour>
      <point x="1016" y="1600" type="move" name="top_dd"/>
    </contour>
    <contour>
      <point x="1016" y="-407" type="move" name="bottom_dd"/>
    </contour>
    <contour>
      <point x="1016" y="1290" type="move" name="top0315"/>
    </contour>
  </outline>
</glyph>
<glyph name="h" format="1">
  <advance width="1014"/>
  <unicode hex="0068"/>
  <outline>
    <contour>
      <point x="399" y="1536" type="line"/>
      <point x="85" y="1536" type="line"/>
      <point x="85" y="0" type="line"/>
      <point x="399" y="0" type="line"/>
    </contour>
    <contour>
      <point x="359" y="578" type="line"/>
      <point x="358" y="729"/>
      <point x="379" y="842"/>
      <point x="496" y="842" type="curve" smooth="yes"/>
      <point x="569" y="842"/>
      <point x="609" y="806"/>
      <point x="609" y="674" type="curve" smooth="yes"/>
      <point x="609" y="0" type="line"/>
      <point x="923" y="0" type="line"/>
      <point x="923" y="672" type="line" smooth="yes"/>
      <point x="923" y="986"/>
      <point x="796" y="1102"/>
      <point x="617" y="1102" type="curve" smooth="yes"/>
      <point x="414" y="1102"/>
      <point x="281" y="880"/>
      <point x="285" y="576" type="curve"/>
    </contour>
    <contour>
      <point x="476" y="1693" type="move" name="top"/>
    </contour>
    <contour>
      <point x="263" y="1302" type="move" name="cross"/>
    </contour>
    <contour>
      <point x="509" y="10" type="move" name="bottom"/>
    </contour>
    <contour>
      <point x="923" y="0" type="move" name="right"/>
    </contour>
    <contour>
      <point x="994" y="1600" type="move" name="top_dd"/>
    </contour>
    <contour>
      <point x="994" y="-407" type="move" name="bottom_dd"/>
    </contour>
    <contour>
      <point x="994" y="1693" type="move" name="top0315"/>
    </contour>
  </outline>
</glyph>
<glyph name="i" format="1">
  <advance width="529"/>
  <unicode hex="0069"/>
  <outline>
    <contour>
      <point x="422" y="1082" type="line"/>
      <point x="107" y="1082" type="line"/>
      <point x="107" y="0" type="line"/>
      <point x="422" y="0" type="line"/>
    </contour>
    <contour>
      <point x="93" y="1361" type="curve" smooth="yes"/>
      <point x="93" y="1265"/>
      <point x="161" y="1197"/>
      <point x="263" y="1197" type="curve"/>
      <point x="365" y="1197"/>
      <point x="433" y="1265"/>
      <point x="433" y="1361" type="curve"/>
      <point x="433" y="1457"/>
      <point x="365" y="1525"/>
      <point x="263" y="1525" type="curve"/>
      <point x="161" y="1525"/>
      <point x="93" y="1457"/>
    </contour>
    <contour>
      <point x="264" y="10" type="move" name="bottom"/>
    </contour>
    <contour>
      <point x="370" y="0" type="move" name="ogonek"/>
    </contour>
    <contour>
      <point x="262" y="1600" type="move" name="top"/>
    </contour>
    <contour>
      <point x="509" y="1600" type="move" name="top_dd"/>
    </contour>
    <contour>
      <point x="509" y="-407" type="move" name="bottom_dd"/>
    </contour>
    <contour>
      <point x="338" y="654" type="move" name="rhotichook"/>
    </contour>
    <contour>
      <point x="509" y="1600" type="move" name="top0315"/>
    </contour>
  </outline>
</glyph>
<glyph name="j" format="1">
  <advance width="516"/>
  <unicode hex="006A"/>
  <outline>
    <contour>
      <point x="112" y="1082" type="line"/>
      <point x="112" y="-35" type="line"/>
      <point x="112" y="-129"/>
      <point x="77" y="-174"/>
      <point x="11" y="-174" type="curve" smooth="yes"/>
      <point x="-16" y="-174"/>
      <point x="-38" y="-170"/>
      <point x="-68" y="-165" type="curve"/>
      <point x="-67" y="-420" type="line"/>
      <point x="-17" y="-433"/>
      <point x="23" y="-437"/>
      <point x="72" y="-437" type="curve" smooth="yes"/>
      <point x="293" y="-437"/>
      <point x="427" y="-295"/>
      <point x="427" y="-35" type="curve"/>
      <point x="427" y="1082" type="line"/>
    </contour>
    <contour>
      <point x="92" y="1361" type="curve" smooth="yes"/>
      <point x="92" y="1265"/>
      <point x="160" y="1197"/>
      <point x="262" y="1197" type="curve" smooth="yes"/>
      <point x="364" y="1197"/>
      <point x="432" y="1265"/>
      <point x="432" y="1361" type="curve" smooth="yes"/>
      <point x="432" y="1457"/>
      <point x="364" y="1525"/>
      <point x="262" y="1525" type="curve" smooth="yes"/>
      <point x="160" y="1525"/>
      <point x="92" y="1457"/>
    </contour>
    <contour>
      <point x="207" y="1600" type="move" name="top"/>
    </contour>
    <contour>
      <point x="180" y="-459" type="move" name="bottom"/>
    </contour>
    <contour>
      <point x="496" y="1600" type="move" name="top_dd"/>
    </contour>
    <contour>
      <point x="496" y="-407" type="move" name="bottom_dd"/>
    </contour>
    <contour>
      <point x="496" y="1600" type="move" name="top0315"/>
    </contour>
  </outline>
</glyph>
<glyph name="k" format="1">
  <advance width="997"/>
  <unicode hex="006B"/>
  <outline>
    <contour>
      <point x="513" y="31" type="move" name="bottom"/>
    </contour>
    <contour>
      <point x="228" y="1298" type="move" name="cross"/>
    </contour>
    <contour>
      <point x="622" y="1600" type="move" name="top"/>
    </contour>
    <contour>
      <point x="622" y="1600" type="move" name="marktop"/>
    </contour>
    <contour>
      <point x="977" y="1600" type="move" name="top_dd"/>
    </contour>
    <contour>
      <point x="977" y="-407" type="move" name="bottom_dd"/>
    </contour>
    <contour>
      <point x="868" y="1600" type="move" name="top0315"/>
    </contour>
    <contour>
      <point x="408" y="1537" type="line"/>
      <point x="94" y="1537" type="line"/>
      <point x="94" y="0" type="line"/>
      <point x="408" y="0" type="line"/>
    </contour>
    <contour>
      <point x="984" y="1082" type="line"/>
      <point x="611" y="1082" type="line"/>
      <point x="429" y="766" type="line"/>
      <point x="250" y="499" type="line"/>
      <point x="379" y="285" type="line"/>
      <point x="602" y="531" type="line"/>
    </contour>
    <contour>
      <point x="650" y="0" type="line"/>
      <point x="1008" y="0" type="line"/>
      <point x="662" y="670" type="line"/>
      <point x="434" y="493" type="line"/>
    </contour>
  </outline>
</glyph>
<glyph name="l" format="1">
  <advance width="529"/>
  <unicode hex="006C"/>
  <outline>
    <contour>
      <point x="422" y="1536" type="line"/>
      <point x="107" y="1536" type="line"/>
      <point x="107" y="0" type="line"/>
      <point x="422" y="0" type="line"/>
    </contour>
    <contour>
      <point x="264" y="1677" type="move" name="top"/>
    </contour>
    <contour>
      <point x="264" y="10" type="move" name="bottom"/>
    </contour>
    <contour>
      <point x="502" y="1536" type="move" name="caron"/>
    </contour>
    <contour>
      <point x="492" y="779" type="move" name="dot"/>
    </contour>
    <contour>
      <point x="632" y="1486" type="move" name="marktop"/>
    </contour>
    <contour>
      <point x="509" y="1600" type="move" name="top_dd"/>
    </contour>
    <contour>
      <point x="509" y="-407" type="move" name="bottom_dd"/>
    </contour>
    <contour>
      <point x="509" y="1677" type="move" name="top0315"/>
    </contour>
  </outline>
</glyph>
<glyph name="m" format="1">
  <advance width="1513"/>
  <unicode hex="006D"/>
  <outline>
    <contour>
      <point x="409" y="853" type="line"/>
      <point x="389" y="1082" type="line"/>
      <point x="96" y="1082" type="line"/>
      <point x="96" y="0" type="line"/>
      <point x="409" y="0" type="line"/>
    </contour>
    <contour>
      <point x="370" y="578" type="line"/>
      <point x="368" y="729"/>
      <point x="420" y="842"/>
      <point x="506" y="842" type="curve" smooth="yes"/>
      <point x="567" y="842"/>
      <point x="599" y="816"/>
      <point x="599" y="679" type="curve"/>
      <point x="599" y="0" type="line"/>
      <point x="913" y="0" type="line"/>
      <point x="913" y="722" type="line"/>
      <point x="913" y="992"/>
      <point x="803" y="1102"/>
      <point x="648" y="1102" type="curve" smooth="yes"/>
      <point x="412" y="1102"/>
      <point x="291" y="880"/>
      <point x="295" y="576" type="curve"/>
    </contour>
    <contour>
      <point x="879" y="578" type="line"/>
      <point x="877" y="729"/>
      <point x="920" y="842"/>
      <point x="1009" y="842" type="curve" smooth="yes"/>
      <point x="1069" y="842"/>
      <point x="1102" y="815"/>
      <point x="1102" y="681" type="curve" smooth="yes"/>
      <point x="1102" y="0" type="line"/>
      <point x="1416" y="0" type="line"/>
      <point x="1416" y="681" type="line" smooth="yes"/>
      <point x="1416" y="995"/>
      <point x="1298" y="1102"/>
      <point x="1131" y="1102" type="curve" smooth="yes"/>
      <point x="894" y="1102"/>
      <point x="781" y="880"/>
      <point x="786" y="576" type="curve"/>
    </contour>
    <contour>
      <point x="777" y="1290" type="move" name="top"/>
    </contour>
    <contour>
      <point x="778" y="10" type="move" name="bottom"/>
    </contour>
    <contour>
      <point x="777" y="1290" type="move" name="marktop"/>
    </contour>
    <contour>
      <point x="1493" y="1600" type="move" name="top_dd"/>
    </contour>
    <contour>
      <point x="1493" y="-407" type="move" name="bottom_dd"/>
    </contour>
    <contour>
      <point x="1493" y="1290" type="move" name="top0315"/>
    </contour>
  </outline>
</glyph>
<glyph name="n" format="1">
  <advance width="1014"/>
  <unicode hex="006E"/>
  <outline>
    <contour>
      <point x="400" y="851" type="line"/>
      <point x="380" y="1082" type="line"/>
      <point x="86" y="1082" type="line"/>
      <point x="86" y="0" type="line"/>
      <point x="400" y="0" type="line"/>
    </contour>
    <contour>
      <point x="360" y="578" type="line"/>
      <point x="359" y="729"/>
      <point x="397" y="842"/>
      <point x="497" y="842" type="curve" smooth="yes"/>
      <point x="570" y="842"/>
      <point x="609" y="812"/>
      <point x="609" y="682" type="curve" smooth="yes"/>
      <point x="609" y="0" type="line"/>
      <point x="923" y="0" type="line"/>
      <point x="923" y="681" type="line" smooth="yes"/>
      <point x="923" y="995"/>
      <point x="805" y="1102"/>
      <point x="638" y="1102" type="curve" smooth="yes"/>
      <point x="424" y="1102"/>
      <point x="282" y="907"/>
      <point x="286" y="576" type="curve"/>
    </contour>
    <contour>
      <point x="505" y="1290" type="move" name="top"/>
    </contour>
    <contour>
      <point x="505" y="10" type="move" name="bottom"/>
    </contour>
    <contour>
      <point x="-72" y="1534" type="move" name="caron"/>
    </contour>
    <contour>
      <point x="927" y="0" type="move" name="right"/>
    </contour>
    <contour>
      <point x="505" y="1290" type="move" name="marktop"/>
    </contour>
    <contour>
      <point x="994" y="1600" type="move" name="top_dd"/>
    </contour>
    <contour>
      <point x="994" y="-407" type="move" name="bottom_dd"/>
    </contour>
    <contour>
      <point x="994" y="1290" type="move" name="top0315"/>
    </contour>
  </outline>
</glyph>
<glyph name="o" format="1">
  <advance width="1014"/>
  <unicode hex="006F"/>
  <outline>
    <contour>
      <point x="63" y="510" type="line"/>
      <point x="63" y="170"/>
      <point x="228" y="-20"/>
      <point x="507" y="-20" type="curve" smooth="yes"/>
      <point x="785" y="-20"/>
      <point x="949" y="170"/>
      <point x="949" y="510" type="curve"/>
      <point x="949" y="571" type="line"/>
      <point x="949" y="911"/>
      <point x="785" y="1102"/>
      <point x="505" y="1102" type="curve" smooth="yes"/>
      <point x="228" y="1102"/>
      <point x="63" y="911"/>
      <point x="63" y="571" type="curve"/>
    </contour>
    <contour>
      <point x="377" y="571" type="line"/>
      <point x="377" y="755"/>
      <point x="421" y="842"/>
      <point x="505" y="842" type="curve" smooth="yes"/>
      <point x="593" y="842"/>
      <point x="636" y="755"/>
      <point x="636" y="571" type="curve"/>
      <point x="636" y="510" type="line"/>
      <point x="636" y="321"/>
      <point x="592" y="240"/>
      <point x="507" y="240" type="curve" smooth="yes"/>
      <point x="420" y="240"/>
      <point x="377" y="321"/>
      <point x="377" y="510" type="curve"/>
    </contour>
    <contour>
      <point x="505" y="1290" type="move" name="top"/>
    </contour>
    <contour>
      <point x="505" y="-10" type="move" name="bottom"/>
    </contour>
    <contour>
      <point x="993" y="1600" type="move" name="top_dd"/>
    </contour>
    <contour>
      <point x="993" y="-407" type="move" name="bottom_dd"/>
    </contour>
    <contour>
      <point x="821" y="654" type="move" name="rhotichook"/>
    </contour>
    <contour>
      <point x="993" y="1290" type="move" name="top0315"/>
    </contour>
  </outline>
</glyph>
<glyph name="p" format="1">
  <advance width="1014"/>
  <unicode hex="0070"/>
  <outline>
    <contour>
      <point x="408" y="874" type="line"/>
      <point x="386" y="1082" type="line"/>
      <point x="95" y="1082" type="line"/>
      <point x="95" y="-416" type="line"/>
      <point x="408" y="-416" type="line"/>
    </contour>
    <contour>
      <point x="955" y="574" type="line"/>
      <point x="955" y="929"/>
      <point x="842" y="1102"/>
      <point x="608" y="1102" type="curve" smooth="yes"/>
      <point x="398" y="1102"/>
      <point x="309" y="881"/>
      <point x="277" y="590" type="curve"/>
      <point x="277" y="483" type="line"/>
      <point x="311" y="213"/>
      <point x="399" y="-20"/>
      <point x="610" y="-20" type="curve" smooth="yes"/>
      <point x="842" y="-20"/>
      <point x="955" y="174"/>
      <point x="955" y="513" type="curve" smooth="yes"/>
    </contour>
    <contour>
      <point x="642" y="513" type="line"/>
      <point x="642" y="325"/>
      <point x="616" y="240"/>
      <point x="519" y="240" type="curve" smooth="yes"/>
      <point x="406" y="240"/>
      <point x="375" y="327"/>
      <point x="381" y="455" type="curve"/>
      <point x="381" y="617" type="line"/>
      <point x="376" y="767"/>
      <point x="414" y="842"/>
      <point x="517" y="842" type="curve" smooth="yes"/>
      <point x="612" y="842"/>
      <point x="642" y="770"/>
      <point x="642" y="574" type="curve" smooth="yes"/>
    </contour>
    <contour>
      <point x="602" y="1280" type="move" name="top"/>
    </contour>
    <contour>
      <point x="249" y="-407" type="move" name="bottom"/>
    </contour>
    <contour>
      <point x="602" y="1280" type="move" name="marktop"/>
    </contour>
    <contour>
      <point x="994" y="1600" type="move" name="top_dd"/>
    </contour>
    <contour>
      <point x="994" y="-407" type="move" name="bottom_dd"/>
    </contour>
    <contour>
      <point x="994" y="1280" type="move" name="top0315"/>
    </contour>
  </outline>
</glyph>
<glyph name="q" format="1">
  <advance width="1014"/>
  <unicode hex="0071"/>
  <outline>
    <contour>
      <point x="604" y="-416" type="line"/>
      <point x="919" y="-416" type="line"/>
      <point x="919" y="1082" type="line"/>
      <point x="647" y="1082" type="line"/>
      <point x="604" y="855" type="line"/>
    </contour>
    <contour>
      <point x="57" y="511" type="line"/>
      <point x="57" y="172"/>
      <point x="171" y="-20"/>
      <point x="403" y="-20" type="curve" smooth="yes"/>
      <point x="613" y="-20"/>
      <point x="701" y="212"/>
      <point x="737" y="483" type="curve"/>
      <point x="737" y="588" type="line"/>
      <point x="703" y="879"/>
      <point x="614" y="1102"/>
      <point x="404" y="1102" type="curve" smooth="yes"/>
      <point x="171" y="1102"/>
      <point x="57" y="927"/>
      <point x="57" y="572" type="curve" smooth="yes"/>
    </contour>
    <contour>
      <point x="371" y="572" type="line"/>
      <point x="371" y="766"/>
      <point x="400" y="842"/>
      <point x="496" y="842" type="curve" smooth="yes"/>
      <point x="600" y="842"/>
      <point x="637" y="765"/>
      <point x="633" y="615" type="curve"/>
      <point x="633" y="456" type="line"/>
      <point x="638" y="326"/>
      <point x="607" y="240"/>
      <point x="495" y="240" type="curve" smooth="yes"/>
      <point x="396" y="240"/>
      <point x="371" y="323"/>
      <point x="371" y="511" type="curve" smooth="yes"/>
    </contour>
    <contour>
      <point x="471" y="1290" type="move" name="top"/>
    </contour>
    <contour>
      <point x="767" y="-407" type="move" name="bottom"/>
    </contour>
    <contour>
      <point x="471" y="1290" type="move" name="marktop"/>
    </contour>
    <contour>
      <point x="994" y="1600" type="move" name="top_dd"/>
    </contour>
    <contour>
      <point x="994" y="-407" type="move" name="bottom_dd"/>
    </contour>
    <contour>
      <point x="994" y="1290" type="move" name="top0315"/>
    </contour>
  </outline>
</glyph>
<glyph name="r" format="1">
  <advance width="697"/>
  <unicode hex="0072"/>
  <outline>
    <contour>
      <point x="408" y="814" type="line"/>
      <point x="388" y="1082" type="line"/>
      <point x="94" y="1082" type="line"/>
      <point x="94" y="0" type="line"/>
      <point x="408" y="0" type="line"/>
    </contour>
    <contour>
      <point x="660" y="1090" type="line"/>
      <point x="639" y="1098"/>
      <point x="607" y="1102"/>
      <point x="580" y="1102" type="curve"/>
      <point x="430" y="1102"/>
      <point x="334" y="902"/>
      <point x="334" y="612" type="curve"/>
      <point x="389" y="572" type="line"/>
      <point x="389" y="714"/>
      <point x="438" y="785"/>
      <point x="558" y="785" type="curve"/>
      <point x="584" y="785"/>
      <point x="632" y="780"/>
      <point x="656" y="777" type="curve"/>
    </contour>
    <contour>
      <point x="366" y="1290" type="move" name="top"/>
    </contour>
    <contour>
      <point x="252" y="10" type="move" name="bottom"/>
    </contour>
    <contour>
      <point x="677" y="1600" type="move" name="top_dd"/>
    </contour>
    <contour>
      <point x="677" y="-407" type="move" name="bottom_dd"/>
    </contour>
    <contour>
      <point x="677" y="1290" type="move" name="top0315"/>
    </contour>
  </outline>
</glyph>
<glyph name="s" format="1">
  <advance width="928"/>
  <unicode hex="0073"/>
  <outline>
    <contour>
      <point x="559" y="294" type="curve" smooth="yes"/>
      <point x="559" y="231"/>
      <point x="529" y="203"/>
      <point x="464" y="203" type="curve" smooth="yes"/>
      <point x="385" y="203"/>
      <point x="341" y="231"/>
      <point x="339" y="337" type="curve"/>
      <point x="45" y="337" type="line"/>
      <point x="45" y="163"/>
      <point x="188" y="-20"/>
      <point x="456" y="-20" type="curve" smooth="yes"/>
      <point x="704" y="-20"/>
      <point x="862" y="113"/>
      <point x="862" y="304" type="curve"/>
      <point x="862" y="485"/>
      <point x="769" y="573"/>
      <point x="555" y="652" type="curve" smooth="yes"/>
      <point x="420" y="709"/>
      <point x="371" y="739"/>
      <point x="371" y="787" type="curve"/>
      <point x="371" y="849"/>
      <point x="413" y="880"/>
      <point x="456" y="880" type="curve" smooth="yes"/>
      <point x="526" y="880"/>
      <point x="549" y="842"/>
      <point x="549" y="760" type="curve"/>
      <point x="862" y="760" type="line"/>
      <point x="862" y="968"/>
      <point x="706" y="1102"/>
      <point x="457" y="1102" type="curve" smooth="yes"/>
      <point x="214" y="1102"/>
      <point x="74" y="953"/>
      <point x="74" y="770" type="curve"/>
      <point x="74" y="598"/>
      <point x="180" y="508"/>
      <point x="376" y="431" type="curve" smooth="yes"/>
      <point x="505" y="375"/>
      <point x="559" y="342"/>
    </contour>
    <contour>
      <point x="453" y="1290" type="move" name="top"/>
    </contour>
    <contour>
      <point x="453" y="-10" type="move" name="bottom"/>
    </contour>
    <contour>
      <point x="908" y="1600" type="move" name="top_dd"/>
    </contour>
    <contour>
      <point x="908" y="-407" type="move" name="bottom_dd"/>
    </contour>
    <contour>
      <point x="908" y="1290" type="move" name="top0315"/>
    </contour>
  </outline>
</glyph>
<glyph name="t" format="1">
  <advance width="636"/>
  <unicode hex="0074"/>
  <outline>
    <contour>
      <point x="379" y="0" type="move" name="bottom"/>
    </contour>
    <contour>
      <point x="560" y="1668" type="move" name="caron"/>
    </contour>
    <contour>
      <point x="286" y="598" type="move" name="cross"/>
    </contour>
    <contour>
      <point x="319" y="1476" type="move" name="top"/>
    </contour>
    <contour>
      <point x="641" y="1276" type="move" name="marktop"/>
    </contour>
    <contour>
      <point x="616" y="1600" type="move" name="top_dd"/>
    </contour>
    <contour>
      <point x="616" y="-407" type="move" name="bottom_dd"/>
    </contour>
    <contour>
      <point x="616" y="1476" type="move" name="top0315"/>
    </contour>
    <contour>
      <point x="592" y="1082" type="line"/>
      <point x="26" y="1082" type="line"/>
      <point x="26" y="848" type="line"/>
      <point x="592" y="848" type="line"/>
    </contour>
    <contour>
      <point x="138" y="1351" type="line"/>
      <point x="138" y="311" type="line"/>
      <point x="138" y="76"/>
      <point x="248" y="-20"/>
      <point x="434" y="-20" type="curve" smooth="yes"/>
      <point x="500" y="-20"/>
      <point x="550" y="-10"/>
      <point x="600" y="9" type="curve"/>
      <point x="602" y="250" type="line"/>
      <point x="586" y="246"/>
      <point x="565" y="244"/>
      <point x="535" y="244" type="curve" smooth="yes"/>
      <point x="469" y="244"/>
      <point x="451" y="267"/>
      <point x="451" y="353" type="curve"/>
      <point x="451" y="1351" type="line"/>
    </contour>
  </outline>
</glyph>
<glyph name="u" format="1">
  <advance width="1014"/>
  <unicode hex="0075"/>
  <outline>
    <contour>
      <point x="610" y="263" type="line"/>
      <point x="631" y="0" type="line"/>
      <point x="925" y="0" type="line"/>
      <point x="925" y="1082" type="line"/>
      <point x="610" y="1082" type="line"/>
    </contour>
    <contour>
      <point x="642" y="483" type="line"/>
      <point x="642" y="344"/>
      <point x="608" y="240"/>
      <point x="493" y="240" type="curve" smooth="yes"/>
      <point x="433" y="240"/>
      <point x="400" y="285"/>
      <point x="400" y="380" type="curve"/>
      <point x="400" y="1082" type="line"/>
      <point x="87" y="1082" type="line"/>
      <point x="87" y="382" type="line"/>
      <point x="87" y="96"/>
      <point x="211" y="-20"/>
      <point x="391" y="-20" type="curve" smooth="yes"/>
      <point x="604" y="-20"/>
      <point x="722" y="194"/>
      <point x="722" y="485" type="curve"/>
    </contour>
    <contour>
      <point x="502" y="1290" type="move" name="top"/>
    </contour>
    <contour>
      <point x="886" y="0" type="move" name="ogonek"/>
    </contour>
    <contour>
      <point x="396" y="0" type="move" name="bottomu"/>
    </contour>
    <contour>
      <point x="994" y="1600" type="move" name="top_dd"/>
    </contour>
    <contour>
      <point x="994" y="-407" type="move" name="bottom_dd"/>
    </contour>
    <contour>
      <point x="802" y="654" type="move" name="rhotichook"/>
    </contour>
    <contour>
      <point x="994" y="1290" type="move" name="top0315"/>
    </contour>
    <contour>
      <point x="505" y="0" type="move" name="bottom"/>
    </contour>
  </outline>
</glyph>
<glyph name="v" format="1">
  <advance width="935"/>
  <unicode hex="0076"/>
  <outline>
    <contour>
      <point x="426" y="231" type="line"/>
      <point x="429" y="0" type="line"/>
      <point x="622" y="0" type="line"/>
      <point x="912" y="1082" type="line"/>
      <point x="583" y="1082" type="line"/>
    </contour>
    <contour>
      <point x="349" y="1082" type="line"/>
      <point x="19" y="1082" type="line"/>
      <point x="309" y="0" type="line"/>
      <point x="503" y="0" type="line"/>
      <point x="505" y="231" type="line"/>
    </contour>
    <contour>
      <point x="467" y="1280" type="move" name="top"/>
    </contour>
    <contour>
      <point x="467" y="10" type="move" name="bottom"/>
    </contour>
    <contour>
      <point x="915" y="1600" type="move" name="top_dd"/>
    </contour>
    <contour>
      <point x="915" y="-407" type="move" name="bottom_dd"/>
    </contour>
    <contour>
      <point x="915" y="1280" type="move" name="top0315"/>
    </contour>
  </outline>
</glyph>
<glyph name="w" format="1">
  <advance width="1285"/>
  <unicode hex="0077"/>
  <outline>
    <contour>
      <point x="642" y="1290" type="move" name="top"/>
    </contour>
    <contour>
      <point x="645" y="10" type="move" name="bottom"/>
    </contour>
    <contour>
      <point x="642" y="1290" type="move" name="marktop"/>
    </contour>
    <contour>
      <point x="1265" y="1600" type="move" name="top_dd"/>
    </contour>
    <contour>
      <point x="1265" y="-407" type="move" name="bottom_dd"/>
    </contour>
    <contour>
      <point x="1265" y="1290" type="move" name="top0315"/>
    </contour>
    <contour>
      <point x="362" y="322" type="line"/>
      <point x="348" y="0" type="line"/>
      <point x="505" y="0" type="line"/>
      <point x="670" y="701" type="line"/>
      <point x="727" y="1082" type="line"/>
      <point x="532" y="1082" type="line"/>
    </contour>
    <contour>
      <point x="330" y="1082" type="line"/>
      <point x="31" y="1082" type="line"/>
      <point x="242" y="0" type="line"/>
      <point x="432" y="0" type="line"/>
      <point x="431" y="328" type="line"/>
    </contour>
    <contour>
      <point x="851" y="344" type="line"/>
      <point x="852" y="0" type="line"/>
      <point x="1041" y="0" type="line"/>
      <point x="1252" y="1082" type="line"/>
      <point x="953" y="1082" type="line"/>
    </contour>
    <contour>
      <point x="750" y="1082" type="line"/>
      <point x="561" y="1082" type="line"/>
      <point x="616" y="699" type="line"/>
      <point x="778" y="0" type="line"/>
      <point x="936" y="0" type="line"/>
      <point x="922" y="324" type="line"/>
    </contour>
  </outline>
</glyph>
<glyph name="x" format="1">
  <advance width="935"/>
  <unicode hex="0078"/>
  <outline>
    <contour>
      <point x="367" y="1082" type="line"/>
      <point x="38" y="1082" type="line"/>
      <point x="268" y="555" type="line"/>
      <point x="26" y="0" type="line"/>
      <point x="355" y="0" type="line"/>
      <point x="472" y="320" type="line"/>
      <point x="590" y="0" type="line"/>
      <point x="918" y="0" type="line"/>
      <point x="676" y="555" type="line"/>
      <point x="908" y="1082" type="line"/>
      <point x="582" y="1082" type="line"/>
      <point x="472" y="784" type="line"/>
    </contour>
    <contour>
      <point x="467" y="10" type="move" name="bottom"/>
    </contour>
    <contour>
      <point x="747" y="0" type="move" name="right"/>
    </contour>
    <contour>
      <point x="471" y="551" type="move" name="cross"/>
    </contour>
    <contour>
      <point x="469" y="1280" type="move" name="top"/>
    </contour>
    <contour>
      <point x="915" y="1600" type="move" name="top_dd"/>
    </contour>
    <contour>
      <point x="915" y="-407" type="move" name="bottom_dd"/>
    </contour>
    <contour>
      <point x="915" y="1280" type="move" name="top0315"/>
    </contour>
  </outline>
</glyph>
<glyph name="y" format="1">
  <advance width="935"/>
  <unicode hex="0079"/>
  <outline>
    <contour>
      <point x="366" y="127" type="line"/>
      <point x="302" y="-82" type="line" smooth="yes"/>
      <point x="286" y="-143"/>
      <point x="256" y="-176"/>
      <point x="168" y="-176" type="curve" smooth="yes"/>
      <point x="155" y="-176"/>
      <point x="148" y="-176"/>
      <point x="135" y="-176" type="curve"/>
      <point x="135" y="-417" type="line"/>
      <point x="189" y="-432"/>
      <point x="200" y="-437"/>
      <point x="259" y="-437" type="curve" smooth="yes"/>
      <point x="468" y="-437"/>
      <point x="535" y="-270"/>
      <point x="567" y="-161" type="curve" smooth="yes"/>
      <point x="924" y="1082" type="line"/>
      <point x="589" y="1082" type="line"/>
    </contour>
    <contour>
      <point x="347" y="1082" type="line"/>
      <point x="11" y="1082" type="line"/>
      <point x="326" y="-32" type="line"/>
      <point x="536" y="-32" type="line"/>
      <point x="500" y="325" type="line"/>
    </contour>
    <contour>
      <point x="463" y="1290" type="move" name="top"/>
    </contour>
    <contour>
      <point x="732" y="-92" type="move" name="bottom"/>
    </contour>
    <contour>
      <point x="463" y="1290" type="move" name="marktop"/>
    </contour>
    <contour>
      <point x="915" y="1600" type="move" name="top_dd"/>
    </contour>
    <contour>
      <point x="915" y="-407" type="move" name="bottom_dd"/>
    </contour>
    <contour>
      <point x="718" y="654" type="move" name="rhotichook"/>
    </contour>
    <contour>
      <point x="915" y="1290" type="move" name="top0315"/>
    </contour>
  </outline>
</glyph>
<glyph name="z" format="1">
  <advance width="935"/>
  <unicode hex="007A"/>
  <outline>
    <contour>
      <point x="852" y="260" type="line"/>
      <point x="153" y="260" type="line"/>
      <point x="153" y="0" type="line"/>
      <point x="852" y="0" type="line"/>
    </contour>
    <contour>
      <point x="850" y="900" type="line"/>
      <point x="850" y="1082" type="line"/>
      <point x="635" y="1082" type="line"/>
      <point x="75" y="188" type="line"/>
      <point x="75" y="0" type="line"/>
      <point x="289" y="0" type="line"/>
    </contour>
    <contour>
      <point x="746" y="1082" type="line"/>
      <point x="89" y="1082" type="line"/>
      <point x="89" y="822" type="line"/>
      <point x="746" y="822" type="line"/>
    </contour>
    <contour>
      <point x="463" y="1290" type="move" name="top"/>
    </contour>
    <contour>
      <point x="460" y="10" type="move" name="bottom"/>
    </contour>
    <contour>
      <point x="915" y="1600" type="move" name="top_dd"/>
    </contour>
    <contour>
      <point x="915" y="-407" type="move" name="bottom_dd"/>
    </contour>
    <contour>
      <point x="915" y="1290" type="move" name="top0315"/>
    </contour>
  </outline>
</glyph>
<glyph name="braceleft" format="1">
  <advance width="603"/>
  <unicode hex="007B"/>
  <outline>
    <contour>
      <point x="487" y="1597" type="line"/>
      <point x="251" y="1520"/>
      <point x="178" y="1342"/>
      <point x="178" y="1132" type="curve"/>
      <point x="178" y="929" type="line"/>
      <point x="178" y="809"/>
      <point x="141" y="732"/>
      <point x="51" y="732" type="curve"/>
      <point x="51" y="566" type="line"/>
      <point x="334" y="566"/>
      <point x="452" y="726"/>
      <point x="452" y="929" type="curve"/>
      <point x="452" y="1132" type="line"/>
      <point x="452" y="1268"/>
      <point x="468" y="1380"/>
      <point x="546" y="1421" type="curve"/>
    </contour>
    <contour>
      <point x="545" y="-183" type="line"/>
      <point x="467" y="-142"/>
      <point x="452" y="-30"/>
      <point x="452" y="106" type="curve" smooth="yes"/>
      <point x="452" y="309" type="line" smooth="yes"/>
      <point x="452" y="512"/>
      <point x="334" y="672"/>
      <point x="51" y="672" type="curve"/>
      <point x="51" y="505" type="line"/>
      <point x="141" y="505"/>
      <point x="178" y="428"/>
      <point x="178" y="309" type="curve" smooth="yes"/>
      <point x="178" y="106" type="line" smooth="yes"/>
      <point x="178" y="-104"/>
      <point x="251" y="-283"/>
      <point x="487" y="-360" type="curve"/>
    </contour>
  </outline>
</glyph>
<glyph name="braceright" format="1">
  <advance width="603"/>
  <unicode hex="007D"/>
  <outline>
    <contour>
      <point x="58" y="1421" type="line"/>
      <point x="136" y="1380"/>
      <point x="153" y="1268"/>
      <point x="153" y="1132" type="curve" smooth="yes"/>
      <point x="153" y="929" type="line" smooth="yes"/>
      <point x="153" y="726"/>
      <point x="270" y="567"/>
      <point x="553" y="567" type="curve"/>
      <point x="553" y="732" type="line"/>
      <point x="463" y="732"/>
      <point x="426" y="809"/>
      <point x="426" y="929" type="curve" smooth="yes"/>
      <point x="426" y="1132" type="line" smooth="yes"/>
      <point x="426" y="1342"/>
      <point x="353" y="1520"/>
      <point x="117" y="1597" type="curve"/>
    </contour>
    <contour>
      <point x="117" y="-360" type="line"/>
      <point x="353" y="-283"/>
      <point x="426" y="-104"/>
      <point x="426" y="106" type="curve" smooth="yes"/>
      <point x="426" y="309" type="line" smooth="yes"/>
      <point x="426" y="428"/>
      <point x="463" y="505"/>
      <point x="553" y="505" type="curve"/>
      <point x="553" y="671" type="line"/>
      <point x="270" y="671"/>
      <point x="153" y="512"/>
      <point x="153" y="309" type="curve" smooth="yes"/>
      <point x="153" y="106" type="line" smooth="yes"/>
      <point x="153" y="-30"/>
      <point x="137" y="-142"/>
      <point x="59" y="-183" type="curve"/>
    </contour>
  </outline>
</glyph>
<glyph name="asciitilde" format="1">
  <advance width="1120"/>
  <unicode hex="007E"/>
  <outline>
    <contour>
      <point x="803" y="800" type="line"/>
      <point x="803" y="704"/>
      <point x="764" y="628"/>
      <point x="715" y="628" type="curve" smooth="yes"/>
      <point x="680" y="628"/>
      <point x="644" y="655"/>
      <point x="609" y="707" type="curve" smooth="yes"/>
      <point x="538" y="794"/>
      <point x="466" y="836"/>
      <point x="382" y="836" type="curve" smooth="yes"/>
      <point x="215" y="836"/>
      <point x="92" y="681"/>
      <point x="92" y="409" type="curve"/>
      <point x="315" y="405" type="line"/>
      <point x="315" y="500"/>
      <point x="351" y="576"/>
      <point x="402" y="576" type="curve" smooth="yes"/>
      <point x="438" y="576"/>
      <point x="473" y="549"/>
      <point x="510" y="497" type="curve" smooth="yes"/>
      <point x="586" y="406"/>
      <point x="649" y="367"/>
      <point x="735" y="367" type="curve" smooth="yes"/>
      <point x="902" y="367"/>
      <point x="1026" y="530"/>
      <point x="1026" y="799" type="curve"/>
    </contour>
  </outline>
</glyph>
<glyph name="exclamdown" format="1">
  <advance width="579"/>
  <unicode hex="00A1"/>
  <outline>
    <contour>
      <point x="122" y="-372" type="line"/>
      <point x="457" y="-372" type="line"/>
      <point x="417" y="623" type="line"/>
      <point x="162" y="623" type="line"/>
    </contour>
    <contour>
      <point x="463" y="933" type="curve" smooth="yes"/>
      <point x="463" y="1029"/>
      <point x="394" y="1102"/>
      <point x="292" y="1102" type="curve" smooth="yes"/>
      <point x="190" y="1102"/>
      <point x="122" y="1029"/>
      <point x="122" y="933" type="curve" smooth="yes"/>
      <point x="122" y="837"/>
      <point x="190" y="764"/>
      <point x="292" y="764" type="curve" smooth="yes"/>
      <point x="394" y="764"/>
      <point x="463" y="837"/>
    </contour>
  </outline>
</glyph>
<glyph name="cent" format="1">
  <advance width="1062"/>
  <unicode hex="00A2"/>
  <outline>
    <contour>
      <point x="630" y="1318" type="line"/>
      <point x="439" y="1318" type="line"/>
      <point x="439" y="1026" type="line"/>
      <point x="630" y="1026" type="line"/>
    </contour>
    <contour>
      <point x="630" y="46" type="line"/>
      <point x="439" y="46" type="line"/>
      <point x="439" y="-245" type="line"/>
      <point x="630" y="-245" type="line"/>
    </contour>
    <contour>
      <point x="525" y="240" type="curve" smooth="yes"/>
      <point x="417" y="240"/>
      <point x="411" y="369"/>
      <point x="411" y="529" type="curve" smooth="yes"/>
      <point x="411" y="552" type="line" smooth="yes"/>
      <point x="411" y="708"/>
      <point x="418" y="842"/>
      <point x="523" y="842" type="curve"/>
      <point x="603" y="842"/>
      <point x="630" y="765"/>
      <point x="628" y="668" type="curve"/>
      <point x="922" y="668" type="line"/>
      <point x="923" y="943"/>
      <point x="766" y="1102"/>
      <point x="530" y="1102" type="curve" smooth="yes"/>
      <point x="240" y="1102"/>
      <point x="98" y="865"/>
      <point x="98" y="552" type="curve" smooth="yes"/>
      <point x="98" y="529" type="line" smooth="yes"/>
      <point x="98" y="216"/>
      <point x="240" y="-20"/>
      <point x="532" y="-20" type="curve"/>
      <point x="755" y="-20"/>
      <point x="923" y="142"/>
      <point x="922" y="386" type="curve"/>
      <point x="628" y="386" type="line"/>
      <point x="630" y="294"/>
      <point x="596" y="240"/>
    </contour>
  </outline>
</glyph>
<glyph name="sterling" format="1">
  <advance width="1082"/>
  <unicode hex="00A3"/>
  <outline>
    <contour>
      <point x="1021" y="0" type="line"/>
      <point x="1021" y="270" type="line"/>
      <point x="109" y="270" type="line"/>
      <point x="109" y="0" type="line"/>
    </contour>
    <contour>
      <point x="805" y="561" type="line"/>
      <point x="805" y="822" type="line"/>
      <point x="107" y="822" type="line"/>
      <point x="107" y="561" type="line"/>
    </contour>
    <contour>
      <point x="548" y="1039" type="line"/>
      <point x="548" y="1151"/>
      <point x="580" y="1205"/>
      <point x="624" y="1205" type="curve" smooth="yes"/>
      <point x="676" y="1205"/>
      <point x="719" y="1167"/>
      <point x="719" y="1048" type="curve"/>
      <point x="1026" y="1048" type="line"/>
      <point x="1026" y="1304"/>
      <point x="882" y="1475"/>
      <point x="618" y="1475" type="curve" smooth="yes"/>
      <point x="380" y="1475"/>
      <point x="223" y="1315"/>
      <point x="223" y="1039" type="curve" smooth="yes"/>
      <point x="238" y="426" type="line" smooth="yes"/>
      <point x="238" y="352"/>
      <point x="238" y="285"/>
      <point x="190" y="270" type="curve"/>
      <point x="376" y="171" type="line"/>
      <point x="521" y="234"/>
      <point x="569" y="314"/>
      <point x="570" y="449" type="curve" smooth="yes"/>
    </contour>
  </outline>
</glyph>
<glyph name="currency" format="1">
  <advance width="1404"/>
  <unicode hex="00A4"/>
  <outline>
    <contour>
      <point x="294" y="608" type="curve"/>
      <point x="294" y="854"/>
      <point x="476" y="1042"/>
      <point x="704" y="1042" type="curve" smooth="yes"/>
      <point x="930" y="1042"/>
      <point x="1113" y="854"/>
      <point x="1113" y="608" type="curve" smooth="yes"/>
      <point x="1113" y="362"/>
      <point x="930" y="173"/>
      <point x="704" y="173" type="curve" smooth="yes"/>
      <point x="476" y="173"/>
      <point x="294" y="362"/>
    </contour>
    <contour>
      <point x="108" y="608" type="curve"/>
      <point x="108" y="254"/>
      <point x="375" y="-20"/>
      <point x="704" y="-20" type="curve" smooth="yes"/>
      <point x="1032" y="-20"/>
      <point x="1298" y="254"/>
      <point x="1298" y="608" type="curve" smooth="yes"/>
      <point x="1298" y="963"/>
      <point x="1032" y="1234"/>
      <point x="704" y="1234" type="curve" smooth="yes"/>
      <point x="375" y="1234"/>
      <point x="108" y="963"/>
    </contour>
    <contour>
      <point x="1339" y="1120" type="line"/>
      <point x="1197" y="1265" type="line"/>
      <point x="996" y="1059" type="line"/>
      <point x="1137" y="914" type="line"/>
    </contour>
    <contour>
      <point x="416" y="180" type="line"/>
      <point x="275" y="323" type="line"/>
      <point x="73" y="118" type="line"/>
      <point x="214" y="-26" type="line"/>
    </contour>
    <contour>
      <point x="1197" y="-27" type="line"/>
      <point x="1339" y="118" type="line"/>
      <point x="1137" y="323" type="line"/>
      <point x="996" y="179" type="line"/>
    </contour>
    <contour>
      <point x="275" y="914" type="line"/>
      <point x="416" y="1058" type="line"/>
      <point x="214" y="1264" type="line"/>
      <point x="73" y="1120" type="line"/>
    </contour>
  </outline>
</glyph>
<glyph name="yen" format="1">
  <advance width="979"/>
  <unicode hex="00A5"/>
  <outline>
    <contour>
      <point x="863" y="742" type="line"/>
      <point x="82" y="742" type="line"/>
      <point x="82" y="552" type="line"/>
      <point x="863" y="552" type="line"/>
    </contour>
    <contour>
      <point x="863" y="452" type="line"/>
      <point x="82" y="452" type="line"/>
      <point x="82" y="263" type="line"/>
      <point x="863" y="263" type="line"/>
    </contour>
    <contour>
      <point x="412" y="729" type="line"/>
      <point x="460" y="540" type="line"/>
      <point x="632" y="540" type="line"/>
      <point x="955" y="1456" type="line"/>
      <point x="622" y="1456" type="line"/>
    </contour>
    <contour>
      <point x="359" y="1456" type="line"/>
      <point x="25" y="1456" type="line"/>
      <point x="350" y="540" type="line"/>
      <point x="521" y="540" type="line"/>
      <point x="573" y="720" type="line"/>
    </contour>
    <contour>
      <point x="649" y="752" type="line"/>
      <point x="324" y="752" type="line"/>
      <point x="324" y="0" type="line"/>
      <point x="649" y="0" type="line"/>
    </contour>
  </outline>
</glyph>
<glyph name="brokenbar" format="1">
  <advance width="522"/>
  <unicode hex="00A6"/>
  <outline>
    <contour>
      <point x="404" y="-270" type="line"/>
      <point x="404" y="525" type="line"/>
      <point x="122" y="525" type="line"/>
      <point x="122" y="-270" type="line"/>
    </contour>
    <contour>
      <point x="404" y="1456" type="line"/>
      <point x="122" y="1456" type="line"/>
      <point x="122" y="698" type="line"/>
      <point x="404" y="698" type="line"/>
    </contour>
  </outline>
</glyph>
<glyph name="section" format="1">
  <advance width="1141"/>
  <unicode hex="00A7"/>
  <outline>
    <contour>
      <point x="581" y="151" type="line"/>
      <point x="857" y="151"/>
      <point x="1036" y="267"/>
      <point x="1036" y="500" type="curve"/>
      <point x="1036" y="738"/>
      <point x="889" y="843"/>
      <point x="627" y="920" type="curve" smooth="yes"/>
      <point x="459" y="977"/>
      <point x="422" y="1008"/>
      <point x="422" y="1092" type="curve"/>
      <point x="422" y="1161"/>
      <point x="462" y="1216"/>
      <point x="564" y="1216" type="curve" smooth="yes"/>
      <point x="660" y="1216"/>
      <point x="706" y="1144"/>
      <point x="706" y="1051" type="curve"/>
      <point x="1019" y="1051" type="line"/>
      <point x="1019" y="1325"/>
      <point x="846" y="1476"/>
      <point x="564" y="1476" type="curve" smooth="yes"/>
      <point x="287" y="1476"/>
      <point x="107" y="1324"/>
      <point x="107" y="1090" type="curve"/>
      <point x="107" y="832"/>
      <point x="265" y="738"/>
      <point x="524" y="652" type="curve" smooth="yes"/>
      <point x="681" y="589"/>
      <point x="728" y="545"/>
      <point x="728" y="462" type="curve"/>
      <point x="728" y="367"/>
      <point x="673" y="301"/>
      <point x="581" y="301" type="curve"/>
    </contour>
    <contour>
      <point x="536" y="878" type="line"/>
      <point x="269" y="878"/>
      <point x="95" y="754"/>
      <point x="95" y="528" type="curve" smooth="yes"/>
      <point x="95" y="290"/>
      <point x="246" y="188"/>
      <point x="500" y="109" type="curve"/>
      <point x="662" y="51"/>
      <point x="710" y="12"/>
      <point x="710" y="-62" type="curve" smooth="yes"/>
      <point x="710" y="-135"/>
      <point x="663" y="-176"/>
      <point x="569" y="-176" type="curve" smooth="yes"/>
      <point x="488" y="-176"/>
      <point x="409" y="-153"/>
      <point x="409" y="-25" type="curve"/>
      <point x="96" y="-25" type="line"/>
      <point x="96" y="-344"/>
      <point x="332" y="-437"/>
      <point x="569" y="-437" type="curve" smooth="yes"/>
      <point x="843" y="-437"/>
      <point x="1023" y="-305"/>
      <point x="1023" y="-61" type="curve" smooth="yes"/>
      <point x="1023" y="198"/>
      <point x="873" y="294"/>
      <point x="605" y="376" type="curve" smooth="yes"/>
      <point x="442" y="442"/>
      <point x="408" y="474"/>
      <point x="408" y="568" type="curve" smooth="yes"/>
      <point x="408" y="659"/>
      <point x="445" y="725"/>
      <point x="536" y="725" type="curve"/>
    </contour>
  </outline>
</glyph>
<glyph name="dieresis" format="1">
  <advance width="995"/>
  <unicode hex="00A8"/>
  <outline>
    <contour>
      <point x="95" y="1365" type="curve" smooth="yes"/>
      <point x="95" y="1290"/>
      <point x="160" y="1232"/>
      <point x="242" y="1232" type="curve" smooth="yes"/>
      <point x="324" y="1232"/>
      <point x="389" y="1290"/>
      <point x="389" y="1365" type="curve" smooth="yes"/>
      <point x="389" y="1440"/>
      <point x="324" y="1498"/>
      <point x="242" y="1498" type="curve" smooth="yes"/>
      <point x="160" y="1498"/>
      <point x="95" y="1440"/>
    </contour>
    <contour>
      <point x="604" y="1365" type="curve" smooth="yes"/>
      <point x="604" y="1290"/>
      <point x="669" y="1232"/>
      <point x="751" y="1232" type="curve" smooth="yes"/>
      <point x="833" y="1232"/>
      <point x="898" y="1290"/>
      <point x="898" y="1365" type="curve" smooth="yes"/>
      <point x="898" y="1440"/>
      <point x="833" y="1498"/>
      <point x="751" y="1498" type="curve" smooth="yes"/>
      <point x="669" y="1498"/>
      <point x="604" y="1440"/>
    </contour>
    <contour>
      <point x="498" y="1290" type="move" name="_top"/>
    </contour>
    <contour>
      <point x="498" y="1610" type="move" name="mkmktop_acc"/>
    </contour>
  </outline>
</glyph>
<glyph name="copyright" format="1">
  <advance width="1608"/>
  <unicode hex="00A9"/>
  <outline>
    <contour>
      <point x="961" y="596" type="line"/>
      <point x="961" y="466"/>
      <point x="900" y="417"/>
      <point x="782" y="417" type="curve" smooth="yes"/>
      <point x="654" y="417"/>
      <point x="588" y="520"/>
      <point x="588" y="669" type="curve" smooth="yes"/>
      <point x="588" y="789" type="line" smooth="yes"/>
      <point x="588" y="936"/>
      <point x="654" y="1040"/>
      <point x="782" y="1040" type="curve" smooth="yes"/>
      <point x="900" y="1040"/>
      <point x="962" y="989"/>
      <point x="962" y="861" type="curve"/>
      <point x="1118" y="861" type="line"/>
      <point x="1118" y="1070"/>
      <point x="988" y="1175"/>
      <point x="782" y="1175" type="curve" smooth="yes"/>
      <point x="567" y="1175"/>
      <point x="433" y="1017"/>
      <point x="433" y="788" type="curve"/>
      <point x="433" y="669" type="line"/>
      <point x="433" y="439"/>
      <point x="567" y="282"/>
      <point x="782" y="282" type="curve" smooth="yes"/>
      <point x="988" y="282"/>
      <point x="1117" y="386"/>
      <point x="1117" y="596" type="curve"/>
    </contour>
    <contour>
      <point x="208" y="729" type="curve"/>
      <point x="208" y="1082"/>
      <point x="471" y="1351"/>
      <point x="796" y="1351" type="curve" smooth="yes"/>
      <point x="1120" y="1351"/>
      <point x="1383" y="1082"/>
      <point x="1383" y="729" type="curve" smooth="yes"/>
      <point x="1383" y="376"/>
      <point x="1120" y="105"/>
      <point x="796" y="105" type="curve" smooth="yes"/>
      <point x="471" y="105"/>
      <point x="208" y="376"/>
    </contour>
    <contour>
      <point x="86" y="729" type="curve"/>
      <point x="86" y="306"/>
      <point x="404" y="-20"/>
      <point x="796" y="-20" type="curve" smooth="yes"/>
      <point x="1187" y="-20"/>
      <point x="1506" y="306"/>
      <point x="1506" y="729" type="curve" smooth="yes"/>
      <point x="1506" y="1152"/>
      <point x="1187" y="1476"/>
      <point x="796" y="1476" type="curve" smooth="yes"/>
      <point x="404" y="1476"/>
      <point x="86" y="1152"/>
    </contour>
  </outline>
</glyph>
<glyph name="ordfeminine" format="1">
  <advance width="802"/>
  <unicode hex="00AA"/>
  <outline>
    <contour>
      <point x="493" y="861" type="line"/>
      <point x="493" y="806"/>
      <point x="500" y="752"/>
      <point x="513" y="705" type="curve"/>
      <point x="681" y="705" type="line"/>
      <point x="665" y="763"/>
      <point x="659" y="821"/>
      <point x="659" y="886" type="curve" smooth="yes"/>
      <point x="659" y="1200" type="line"/>
      <point x="659" y="1383"/>
      <point x="559" y="1476"/>
      <point x="409" y="1476" type="curve" smooth="yes"/>
      <point x="249" y="1476"/>
      <point x="144" y="1378"/>
      <point x="144" y="1243" type="curve"/>
      <point x="309" y="1229" type="line"/>
      <point x="309" y="1293"/>
      <point x="346" y="1328"/>
      <point x="409" y="1328" type="curve" smooth="yes"/>
      <point x="466" y="1328"/>
      <point x="493" y="1283"/>
      <point x="493" y="1201" type="curve"/>
    </contour>
    <contour>
      <point x="533" y="1150" type="line"/>
      <point x="418" y="1150" type="line"/>
      <point x="220" y="1150"/>
      <point x="128" y="1066"/>
      <point x="128" y="919" type="curve" smooth="yes"/>
      <point x="128" y="781"/>
      <point x="203" y="691"/>
      <point x="337" y="691" type="curve" smooth="yes"/>
      <point x="452" y="691"/>
      <point x="511" y="769"/>
      <point x="536" y="833" type="curve"/>
      <point x="522" y="950" type="line"/>
      <point x="522" y="901"/>
      <point x="442" y="835"/>
      <point x="380" y="835" type="curve" smooth="yes"/>
      <point x="323" y="835"/>
      <point x="294" y="868"/>
      <point x="294" y="923" type="curve" smooth="yes"/>
      <point x="294" y="981"/>
      <point x="330" y="1033"/>
      <point x="419" y="1033" type="curve"/>
      <point x="534" y="1033" type="line"/>
    </contour>
  </outline>
</glyph>
<glyph name="logicalnot" format="1">
  <advance width="990"/>
  <unicode hex="00AC"/>
  <outline>
    <contour>
      <point x="835" y="805" type="line"/>
      <point x="126" y="805" type="line"/>
      <point x="126" y="634" type="line"/>
      <point x="835" y="634" type="line"/>
    </contour>
    <contour>
      <point x="835" y="728" type="line"/>
      <point x="643" y="728" type="line"/>
      <point x="643" y="374" type="line"/>
      <point x="835" y="374" type="line"/>
    </contour>
  </outline>
</glyph>
<glyph name="registered" format="1">
  <advance width="1608"/>
  <unicode hex="00AE"/>
  <outline>
    <contour>
      <point x="820" y="653" type="line"/>
      <point x="859" y="653"/>
      <point x="840" y="653"/>
      <point x="875" y="674" type="curve" smooth="yes"/>
      <point x="879" y="674"/>
      <point x="884" y="688"/>
      <point x="888" y="688" type="curve" smooth="yes"/>
      <point x="1029" y="726"/>
      <point x="1107" y="794"/>
      <point x="1107" y="902" type="curve"/>
      <point x="1107" y="1074"/>
      <point x="980" y="1166"/>
      <point x="782" y="1166" type="curve"/>
      <point x="501" y="1166" type="line"/>
      <point x="501" y="316" type="line"/>
      <point x="652" y="316" type="line"/>
      <point x="652" y="1033" type="line"/>
      <point x="782" y="1033" type="line"/>
      <point x="912" y="1033"/>
      <point x="957" y="1000"/>
      <point x="957" y="903" type="curve"/>
      <point x="957" y="826"/>
      <point x="875" y="787"/>
      <point x="782" y="787" type="curve"/>
      <point x="604" y="787" type="line"/>
      <point x="606" y="653" type="line"/>
    </contour>
    <contour>
      <point x="810" y="653" type="line"/>
      <point x="914" y="653"/>
      <point x="953" y="608"/>
      <point x="953" y="514" type="curve"/>
      <point x="953" y="460" type="line"/>
      <point x="953" y="431"/>
      <point x="953" y="350"/>
      <point x="966" y="316" type="curve"/>
      <point x="1121" y="316" type="line"/>
      <point x="1121" y="332" type="line"/>
      <point x="1108" y="362"/>
      <point x="1104" y="409"/>
      <point x="1104" y="459" type="curve"/>
      <point x="1104" y="515" type="line"/>
      <point x="1104" y="661"/>
      <point x="1040" y="768"/>
      <point x="831" y="768" type="curve"/>
    </contour>
    <contour>
      <point x="208" y="729" type="curve" smooth="yes"/>
      <point x="208" y="1082"/>
      <point x="471" y="1351"/>
      <point x="796" y="1351" type="curve" smooth="yes"/>
      <point x="1120" y="1351"/>
      <point x="1383" y="1082"/>
      <point x="1383" y="729" type="curve" smooth="yes"/>
      <point x="1383" y="376"/>
      <point x="1120" y="105"/>
      <point x="796" y="105" type="curve" smooth="yes"/>
      <point x="471" y="105"/>
      <point x="208" y="376"/>
    </contour>
    <contour>
      <point x="86" y="729" type="curve" smooth="yes"/>
      <point x="86" y="306"/>
      <point x="404" y="-20"/>
      <point x="796" y="-20" type="curve" smooth="yes"/>
      <point x="1187" y="-20"/>
      <point x="1506" y="306"/>
      <point x="1506" y="729" type="curve" smooth="yes"/>
      <point x="1506" y="1152"/>
      <point x="1187" y="1476"/>
      <point x="796" y="1476" type="curve" smooth="yes"/>
      <point x="404" y="1476"/>
      <point x="86" y="1152"/>
    </contour>
  </outline>
</glyph>
<glyph name="macron" format="1">
  <advance width="963"/>
  <unicode hex="00AF"/>
  <outline>
    <contour>
      <point x="778" y="1458" type="line"/>
      <point x="176" y="1458" type="line"/>
      <point x="176" y="1285" type="line"/>
      <point x="778" y="1285" type="line"/>
    </contour>
    <contour>
      <point x="477" y="1296" type="move" name="_top"/>
    </contour>
    <contour>
      <point x="477" y="1610" type="move" name="mkmktop_acc"/>
    </contour>
  </outline>
</glyph>
<glyph name="degree" format="1">
  <advance width="808"/>
  <unicode hex="00B0"/>
  <outline>
    <contour>
      <point x="126" y="1195" type="curve"/>
      <point x="126" y="1041"/>
      <point x="252" y="918"/>
      <point x="404" y="918" type="curve" smooth="yes"/>
      <point x="554" y="918"/>
      <point x="677" y="1041"/>
      <point x="677" y="1195" type="curve" smooth="yes"/>
      <point x="677" y="1349"/>
      <point x="554" y="1476"/>
      <point x="404" y="1476" type="curve" smooth="yes"/>
      <point x="252" y="1476"/>
      <point x="126" y="1349"/>
    </contour>
    <contour>
      <point x="278" y="1195" type="curve"/>
      <point x="278" y="1268"/>
      <point x="336" y="1323"/>
      <point x="404" y="1323" type="curve" smooth="yes"/>
      <point x="472" y="1323"/>
      <point x="525" y="1268"/>
      <point x="525" y="1195" type="curve" smooth="yes"/>
      <point x="525" y="1123"/>
      <point x="472" y="1071"/>
      <point x="404" y="1071" type="curve" smooth="yes"/>
      <point x="336" y="1071"/>
      <point x="278" y="1124"/>
    </contour>
  </outline>
</glyph>
<glyph name="plusminus" format="1">
  <advance width="970"/>
  <unicode hex="00B1"/>
  <outline>
    <contour>
      <point x="864" y="974" type="line"/>
      <point x="94" y="974" type="line"/>
      <point x="94" y="703" type="line"/>
      <point x="864" y="703" type="line"/>
    </contour>
    <contour>
      <point x="614" y="1293" type="line"/>
      <point x="342" y="1293" type="line"/>
      <point x="342" y="355" type="line"/>
      <point x="614" y="355" type="line"/>
    </contour>
    <contour>
      <point x="846" y="265" type="line"/>
      <point x="105" y="265" type="line"/>
      <point x="105" y="1" type="line"/>
      <point x="846" y="1" type="line"/>
    </contour>
  </outline>
</glyph>
<glyph name="acute" format="1">
  <advance width="688"/>
  <unicode hex="00B4"/>
  <outline>
    <contour>
      <point x="94" y="1222" type="line"/>
      <point x="356" y="1222" type="line"/>
      <point x="634" y="1536" type="line"/>
      <point x="291" y="1536" type="line"/>
    </contour>
    <contour>
      <point x="243" y="1290" type="move" name="_top"/>
    </contour>
    <contour>
      <point x="243" y="1670" type="move" name="mkmktop_acc"/>
    </contour>
  </outline>
</glyph>
<glyph name="mu" format="1">
  <advance width="1158"/>
  <unicode hex="00B5"/>
  <outline>
    <contour>
      <point x="690" y="1082" type="line"/>
      <point x="690" y="250" type="line"/>
      <point x="710" y="0" type="line"/>
      <point x="1004" y="0" type="line"/>
      <point x="1004" y="1082" type="line"/>
    </contour>
    <contour>
      <point x="727" y="503" type="line"/>
      <point x="727" y="354"/>
      <point x="681" y="243"/>
      <point x="561" y="243" type="curve" smooth="yes"/>
      <point x="481" y="243"/>
      <point x="441" y="283"/>
      <point x="441" y="462" type="curve"/>
      <point x="280" y="462" type="line"/>
      <point x="305" y="216" type="line"/>
      <point x="355" y="51"/>
      <point x="433" y="-21"/>
      <point x="548" y="-21" type="curve" smooth="yes"/>
      <point x="745" y="-21"/>
      <point x="851" y="202"/>
      <point x="851" y="505" type="curve"/>
    </contour>
    <contour>
      <point x="128" y="1082" type="line"/>
      <point x="128" y="-416" type="line"/>
      <point x="441" y="-416" type="line"/>
      <point x="441" y="1082" type="line"/>
    </contour>
  </outline>
</glyph>
<glyph name="periodcentered" format="1">
  <advance width="609"/>
  <unicode hex="00B7"/>
  <outline>
    <contour>
      <point x="130" y="685" type="curve" smooth="yes"/>
      <point x="130" y="589"/>
      <point x="199" y="516"/>
      <point x="301" y="516" type="curve" smooth="yes"/>
      <point x="403" y="516"/>
      <point x="471" y="589"/>
      <point x="471" y="685" type="curve" smooth="yes"/>
      <point x="471" y="781"/>
      <point x="403" y="854"/>
      <point x="301" y="854" type="curve" smooth="yes"/>
      <point x="199" y="854"/>
      <point x="130" y="781"/>
    </contour>
  </outline>
</glyph>
<glyph name="cedilla" format="1">
  <advance width="525"/>
  <unicode hex="00B8"/>
  <outline>
    <contour>
      <point x="116" y="10" type="line"/>
      <point x="89" y="-136" type="line"/>
      <point x="167" y="-142"/>
      <point x="196" y="-158"/>
      <point x="196" y="-209" type="curve" smooth="yes"/>
      <point x="196" y="-264"/>
      <point x="177" y="-286"/>
      <point x="138" y="-286" type="curve"/>
      <point x="144" y="-472" type="line"/>
      <point x="356" y="-472"/>
      <point x="464" y="-373"/>
      <point x="464" y="-224" type="curve" smooth="yes"/>
      <point x="464" y="-109"/>
      <point x="402" y="-64"/>
      <point x="343" y="-51" type="curve"/>
      <point x="352" y="10" type="line"/>
    </contour>
    <contour>
      <point x="231" y="0" type="move" name="_bottom"/>
    </contour>
    <contour>
      <point x="231" y="-472" type="move" name="mkmkbottom_acc"/>
    </contour>
  </outline>
</glyph>
<glyph name="ordmasculine" format="1">
  <advance width="832"/>
  <unicode hex="00BA"/>
  <outline>
    <contour>
      <point x="114" y="1044" type="line"/>
      <point x="114" y="837"/>
      <point x="230" y="690"/>
      <point x="413" y="690" type="curve" smooth="yes"/>
      <point x="596" y="690"/>
      <point x="710" y="837"/>
      <point x="710" y="1044" type="curve"/>
      <point x="710" y="1121" type="line"/>
      <point x="710" y="1328"/>
      <point x="596" y="1476"/>
      <point x="412" y="1476" type="curve" smooth="yes"/>
      <point x="230" y="1476"/>
      <point x="114" y="1328"/>
      <point x="114" y="1121" type="curve"/>
    </contour>
    <contour>
      <point x="281" y="1121" type="line"/>
      <point x="281" y="1238"/>
      <point x="324" y="1328"/>
      <point x="412" y="1328" type="curve" smooth="yes"/>
      <point x="500" y="1328"/>
      <point x="543" y="1238"/>
      <point x="543" y="1121" type="curve"/>
      <point x="543" y="1044" type="line"/>
      <point x="543" y="925"/>
      <point x="500" y="836"/>
      <point x="413" y="836" type="curve" smooth="yes"/>
      <point x="325" y="836"/>
      <point x="281" y="925"/>
      <point x="281" y="1044" type="curve"/>
    </contour>
  </outline>
</glyph>
<glyph name="questiondown" format="1">
  <advance width="930"/>
  <unicode hex="00BF"/>
  <outline>
    <contour>
      <point x="361" y="630" type="line"/>
      <point x="358" y="525"/>
      <point x="347" y="473"/>
      <point x="286" y="405" type="curve"/>
      <point x="177" y="282"/>
      <point x="75" y="184"/>
      <point x="75" y="11" type="curve" smooth="yes"/>
      <point x="75" y="-247"/>
      <point x="227" y="-385"/>
      <point x="479" y="-385" type="curve" smooth="yes"/>
      <point x="709" y="-385"/>
      <point x="887" y="-260"/>
      <point x="890" y="38" type="curve"/>
      <point x="576" y="38" type="line"/>
      <point x="574" y="-77"/>
      <point x="525" y="-125"/>
      <point x="472" y="-125" type="curve" smooth="yes"/>
      <point x="425" y="-125"/>
      <point x="389" y="-84"/>
      <point x="389" y="11" type="curve" smooth="yes"/>
      <point x="389" y="112"/>
      <point x="438" y="174"/>
      <point x="512" y="258" type="curve" smooth="yes"/>
      <point x="603" y="350"/>
      <point x="630" y="455"/>
      <point x="630" y="630" type="curve"/>
    </contour>
    <contour>
      <point x="673" y="934" type="curve" smooth="yes"/>
      <point x="673" y="1030"/>
      <point x="605" y="1103"/>
      <point x="503" y="1103" type="curve" smooth="yes"/>
      <point x="401" y="1103"/>
      <point x="333" y="1030"/>
      <point x="333" y="934" type="curve" smooth="yes"/>
      <point x="333" y="838"/>
      <point x="401" y="765"/>
      <point x="503" y="765" type="curve" smooth="yes"/>
      <point x="605" y="765"/>
      <point x="673" y="838"/>
    </contour>
  </outline>
</glyph>
<glyph name="Atilde" format="1">
  <advance width="1234"/>
  <unicode hex="00C3"/>
  <outline>
    <component base="A"/>
    <component base="tilde" xOffset="165" yOffset="305"/>
    <contour>
      <point x="619" y="1600" type="move" name="parent_top"/>
    </contour>
    <contour>
      <point x="619" y="9" type="move" name="bottom"/>
    </contour>
    <contour>
      <point x="1214" y="1600" type="move" name="top_dd"/>
    </contour>
    <contour>
      <point x="1214" y="-407" type="move" name="bottom_dd"/>
    </contour>
    <contour>
      <point x="1214" y="1600" type="move" name="top0315"/>
    </contour>
    <contour>
      <point x="620" y="1981" type="move" name="top"/>
    </contour>
  </outline>
</glyph>
<glyph name="AE" format="1">
  <advance width="1675"/>
  <unicode hex="00C6"/>
  <outline>
    <contour>
      <point x="799" y="1612" type="move" name="top"/>
    </contour>
    <contour>
      <point x="1655" y="1600" type="move" name="top_dd"/>
    </contour>
    <contour>
      <point x="1655" y="1612" type="move" name="top0315"/>
    </contour>
    <contour>
      <point x="869" y="1298" type="line"/>
      <point x="829" y="1456" type="line"/>
      <point x="634" y="1456" type="line"/>
      <point x="24" y="0" type="line"/>
      <point x="388" y="0" type="line"/>
    </contour>
    <contour>
      <point x="951" y="599" type="line"/>
      <point x="302" y="599" type="line"/>
      <point x="302" y="329" type="line"/>
      <point x="951" y="329" type="line"/>
    </contour>
    <contour>
      <point x="1593" y="264" type="line"/>
      <point x="978" y="264" type="line"/>
      <point x="978" y="0" type="line"/>
      <point x="1593" y="0" type="line"/>
    </contour>
    <contour>
      <point x="1079" y="1456" type="line"/>
      <point x="765" y="1456" type="line"/>
      <point x="816" y="0" type="line"/>
      <point x="1130" y="0" type="line"/>
    </contour>
    <contour>
      <point x="1474" y="876" type="line"/>
      <point x="944" y="876" type="line"/>
      <point x="944" y="612" type="line"/>
      <point x="1474" y="612" type="line"/>
    </contour>
    <contour>
      <point x="1542" y="1456" type="line"/>
      <point x="927" y="1456" type="line"/>
      <point x="927" y="1192" type="line"/>
      <point x="1542" y="1192" type="line"/>
    </contour>
  </outline>
</glyph>
<glyph name="Ccedilla" format="1">
  <advance width="1171"/>
  <unicode hex="00C7"/>
  <outline>
    <contour>
      <point x="603" y="1600" type="move" name="parent_top"/>
    </contour>
    <contour>
      <point x="1151" y="1600" type="move" name="top_dd"/>
    </contour>
    <contour>
      <point x="1151" y="-407" type="move" name="bottom_dd"/>
    </contour>
    <contour>
      <point x="1151" y="1600" type="move" name="top0315"/>
    </contour>
    <contour>
      <point x="603" y="1600" type="move" name="top"/>
    </contour>
    <contour>
      <point x="599" y="-472" type="move" name="bottom"/>
    </contour>
    <component base="C"/>
    <component base="cedilla" xOffset="367"/>
  </outline>
</glyph>
<glyph name="Eacute" format="1">
  <advance width="1001"/>
  <unicode hex="00C9"/>
  <outline>
    <component base="E"/>
    <component base="acute" xOffset="326" yOffset="310"/>
    <contour>
      <point x="562" y="1600" type="move" name="parent_top"/>
    </contour>
    <contour>
      <point x="566" y="10" type="move" name="bottom"/>
    </contour>
    <contour>
      <point x="981" y="1600" type="move" name="top_dd"/>
    </contour>
    <contour>
      <point x="981" y="-407" type="move" name="bottom_dd"/>
    </contour>
    <contour>
      <point x="981" y="1600" type="move" name="top0315"/>
    </contour>
    <contour>
      <point x="562" y="1980" type="move" name="top"/>
    </contour>
  </outline>
</glyph>
<glyph name="Edieresis" format="1">
  <advance width="1001"/>
  <unicode hex="00CB"/>
  <outline>
    <component base="E"/>
    <component base="dieresis" xOffset="116" yOffset="310"/>
    <contour>
      <point x="562" y="1600" type="move" name="parent_top"/>
    </contour>
    <contour>
      <point x="566" y="10" type="move" name="bottom"/>
    </contour>
    <contour>
      <point x="981" y="1600" type="move" name="top_dd"/>
    </contour>
    <contour>
      <point x="981" y="-407" type="move" name="bottom_dd"/>
    </contour>
    <contour>
      <point x="981" y="1600" type="move" name="top0315"/>
    </contour>
    <contour>
      <point x="562" y="1920" type="move" name="top"/>
    </contour>
  </outline>
</glyph>
<glyph name="Igrave" format="1">
  <advance width="567"/>
  <unicode hex="00CC"/>
  <outline>
    <component base="I"/>
    <component base="grave" xOffset="-121" yOffset="310"/>
    <contour>
      <point x="282" y="1600" type="move" name="parent_top"/>
    </contour>
    <contour>
      <point x="283" y="0" type="move" name="bottom"/>
    </contour>
    <contour>
      <point x="547" y="1600" type="move" name="top_dd"/>
    </contour>
    <contour>
      <point x="547" y="-407" type="move" name="bottom_dd"/>
    </contour>
    <contour>
      <point x="547" y="1600" type="move" name="top0315"/>
    </contour>
    <contour>
      <point x="282" y="1980" type="move" name="top"/>
    </contour>
  </outline>
</glyph>
<glyph name="Eth" format="1">
  <advance width="1178"/>
  <unicode hex="00D0"/>
  <outline>
    <component base="D" xOffset="25"/>
    <component base="crossbar" xOffset="-133" yOffset="-16"/>
    <contour>
      <point x="422" y="1600" type="move" name="parent_top"/>
    </contour>
    <contour>
      <point x="422" y="10" type="move" name="bottom"/>
    </contour>
    <contour>
      <point x="1158" y="1600" type="move" name="top_dd"/>
    </contour>
    <contour>
      <point x="1158" y="-407" type="move" name="bottom_dd"/>
    </contour>
    <contour>
      <point x="1158" y="1600" type="move" name="top0315"/>
    </contour>
    <contour>
      <point x="422" y="1600" type="move" name="top"/>
    </contour>
  </outline>
</glyph>
<glyph name="Ntilde" format="1">
  <advance width="1249"/>
  <unicode hex="00D1"/>
  <outline>
    <component base="N"/>
    <component base="tilde" xOffset="176" yOffset="305"/>
    <contour>
      <point x="630" y="1600" type="move" name="parent_top"/>
    </contour>
    <contour>
      <point x="630" y="0" type="move" name="bottom"/>
    </contour>
    <contour>
      <point x="1229" y="1600" type="move" name="top_dd"/>
    </contour>
    <contour>
      <point x="1229" y="-407" type="move" name="bottom_dd"/>
    </contour>
    <contour>
      <point x="1229" y="1600" type="move" name="top0315"/>
    </contour>
    <contour>
      <point x="630" y="1981" type="move" name="top"/>
    </contour>
  </outline>
</glyph>
<glyph name="Oacute" format="1">
  <advance width="1236"/>
  <unicode hex="00D3"/>
  <outline>
    <component base="O"/>
    <component base="acute" xOffset="380" yOffset="310"/>
    <contour>
      <point x="617" y="1600" type="move" name="parent_top"/>
    </contour>
    <contour>
      <point x="623" y="0" type="move" name="bottom"/>
    </contour>
    <contour>
      <point x="1216" y="1600" type="move" name="top_dd"/>
    </contour>
    <contour>
      <point x="1216" y="-407" type="move" name="bottom_dd"/>
    </contour>
    <contour>
      <point x="1216" y="1600" type="move" name="top0315"/>
    </contour>
    <contour>
      <point x="617" y="1980" type="move" name="top"/>
    </contour>
  </outline>
</glyph>
<glyph name="Otilde" format="1">
  <advance width="1236"/>
  <unicode hex="00D5"/>
  <outline>
    <component base="O"/>
    <component base="tilde" xOffset="163" yOffset="305"/>
    <contour>
      <point x="617" y="1600" type="move" name="parent_top"/>
    </contour>
    <contour>
      <point x="623" y="0" type="move" name="bottom"/>
    </contour>
    <contour>
      <point x="1216" y="1600" type="move" name="top_dd"/>
    </contour>
    <contour>
      <point x="1216" y="-407" type="move" name="bottom_dd"/>
    </contour>
    <contour>
      <point x="1216" y="1600" type="move" name="top0315"/>
    </contour>
    <contour>
      <point x="617" y="1981" type="move" name="top"/>
    </contour>
  </outline>
</glyph>
<glyph name="multiply" format="1">
  <advance width="957"/>
  <unicode hex="00D7"/>
  <outline>
    <contour>
      <point x="241" y="198" type="line"/>
      <point x="895" y="992" type="line"/>
      <point x="716" y="1175" type="line"/>
      <point x="61" y="381" type="line"/>
    </contour>
    <contour>
      <point x="711" y="198" type="line"/>
      <point x="891" y="381" type="line"/>
      <point x="237" y="1175" type="line"/>
      <point x="57" y="992" type="line"/>
    </contour>
  </outline>
</glyph>
<glyph name="Oslash" format="1">
  <advance width="1232"/>
  <unicode hex="00D8"/>
  <outline>
    <contour>
      <point x="1100" y="1518" type="line"/>
      <point x="909" y="1518" type="line"/>
      <point x="134" y="-95" type="line"/>
      <point x="324" y="-95" type="line"/>
    </contour>
    <contour>
      <point x="1171" y="757" type="line"/>
      <point x="1171" y="1202"/>
      <point x="943" y="1476"/>
      <point x="627" y="1476" type="curve" smooth="yes"/>
      <point x="308" y="1476"/>
      <point x="84" y="1202"/>
      <point x="84" y="757" type="curve"/>
      <point x="84" y="698" type="line"/>
      <point x="84" y="253"/>
      <point x="310" y="-20"/>
      <point x="629" y="-20" type="curve" smooth="yes"/>
      <point x="945" y="-20"/>
      <point x="1171" y="253"/>
      <point x="1171" y="698" type="curve"/>
    </contour>
    <contour>
      <point x="840" y="698" type="line"/>
      <point x="840" y="413"/>
      <point x="764" y="254"/>
      <point x="629" y="254" type="curve" smooth="yes"/>
      <point x="488" y="254"/>
      <point x="415" y="413"/>
      <point x="415" y="698" type="curve" smooth="yes"/>
      <point x="415" y="759" type="line" smooth="yes"/>
      <point x="415" y="1047"/>
      <point x="486" y="1201"/>
      <point x="627" y="1201" type="curve" smooth="yes"/>
      <point x="763" y="1201"/>
      <point x="840" y="1047"/>
      <point x="840" y="759" type="curve"/>
    </contour>
    <contour>
      <point x="622" y="1674" type="move" name="top"/>
    </contour>
    <contour>
      <point x="1212" y="1600" type="move" name="top_dd"/>
    </contour>
    <contour>
      <point x="1212" y="1674" type="move" name="top0315"/>
    </contour>
  </outline>
</glyph>
<glyph name="Ugrave" format="1">
  <advance width="1179"/>
  <unicode hex="00D9"/>
  <outline>
    <component base="U"/>
    <component base="grave" xOffset="178" yOffset="310"/>
    <contour>
      <point x="581" y="1600" type="move" name="parent_top"/>
    </contour>
    <contour>
      <point x="584" y="0" type="move" name="bottom"/>
    </contour>
    <contour>
      <point x="1159" y="1600" type="move" name="top_dd"/>
    </contour>
    <contour>
      <point x="1159" y="-407" type="move" name="bottom_dd"/>
    </contour>
    <contour>
      <point x="1159" y="1600" type="move" name="top0315"/>
    </contour>
    <contour>
      <point x="581" y="1980" type="move" name="top"/>
    </contour>
  </outline>
</glyph>
<glyph name="Udieresis" format="1">
  <advance width="1179"/>
  <unicode hex="00DC"/>
  <outline>
    <component base="U"/>
    <component base="dieresis" xOffset="135" yOffset="310"/>
    <contour>
      <point x="581" y="1600" type="move" name="parent_top"/>
    </contour>
    <contour>
      <point x="584" y="0" type="move" name="bottom"/>
    </contour>
    <contour>
      <point x="1159" y="1600" type="move" name="top_dd"/>
    </contour>
    <contour>
      <point x="1159" y="-407" type="move" name="bottom_dd"/>
    </contour>
    <contour>
      <point x="1159" y="1600" type="move" name="top0315"/>
    </contour>
    <contour>
      <point x="581" y="1920" type="move" name="top"/>
    </contour>
  </outline>
</glyph>
<glyph name="Yacute" format="1">
  <advance width="1124"/>
  <unicode hex="00DD"/>
  <outline>
    <component base="Y"/>
    <component base="acute" xOffset="327" yOffset="310"/>
    <contour>
      <point x="564" y="1600" type="move" name="parent_top"/>
    </contour>
    <contour>
      <point x="560" y="47" type="move" name="bottom"/>
    </contour>
    <contour>
      <point x="1104" y="1600" type="move" name="top_dd"/>
    </contour>
    <contour>
      <point x="1104" y="-407" type="move" name="bottom_dd"/>
    </contour>
    <contour>
      <point x="1104" y="1600" type="move" name="top0315"/>
    </contour>
    <contour>
      <point x="564" y="1980" type="move" name="top"/>
    </contour>
  </outline>
</glyph>
<glyph name="Thorn" format="1">
  <advance width="1105"/>
  <unicode hex="00DE"/>
  <outline>
    <contour>
      <point x="110" y="1456" type="line"/>
      <point x="110" y="0" type="line"/>
      <point x="424" y="0" type="line"/>
      <point x="424" y="1456" type="line"/>
    </contour>
    <contour>
      <point x="209" y="1198" type="line"/>
      <point x="428" y="938" type="line"/>
      <point x="571" y="938" type="line" smooth="yes"/>
      <point x="691" y="938"/>
      <point x="738" y="842"/>
      <point x="738" y="736" type="curve" smooth="yes"/>
      <point x="738" y="632"/>
      <point x="691" y="538"/>
      <point x="571" y="538" type="curve" smooth="yes"/>
      <point x="390" y="538" type="line"/>
      <point x="390" y="278" type="line"/>
      <point x="571" y="278" type="line" smooth="yes"/>
      <point x="882" y="278"/>
      <point x="1052" y="470"/>
      <point x="1052" y="738" type="curve" smooth="yes"/>
      <point x="1052" y="1007"/>
      <point x="882" y="1198"/>
      <point x="571" y="1198" type="curve" smooth="yes"/>
    </contour>
  </outline>
</glyph>
<glyph name="germandbls" format="1">
  <advance width="1169"/>
  <unicode hex="00DF"/>
  <outline>
    <contour>
      <point x="442" y="1093" type="line" name="hr00"/>
      <point x="442" y="1254"/>
      <point x="482" y="1302"/>
      <point x="544" y="1302" type="curve" smooth="yes"/>
      <point x="609" y="1302"/>
      <point x="651" y="1245"/>
      <point x="651" y="1167" type="curve" smooth="yes"/>
      <point x="651" y="1011"/>
      <point x="570" y="1003"/>
      <point x="570" y="817" type="curve" smooth="yes"/>
      <point x="570" y="564"/>
      <point x="795" y="520"/>
      <point x="795" y="365" type="curve" smooth="yes"/>
      <point x="795" y="285"/>
      <point x="757" y="240"/>
      <point x="699" y="240" type="curve" smooth="yes"/>
      <point x="619" y="240"/>
      <point x="563" y="263"/>
      <point x="531" y="284" type="curve"/>
      <point x="477" y="31" type="line"/>
      <point x="523" y="-1"/>
      <point x="616" y="-20"/>
      <point x="699" y="-20" type="curve" smooth="yes"/>
      <point x="979" y="-20"/>
      <point x="1107" y="128"/>
      <point x="1107" y="368" type="curve" smooth="yes"/>
      <point x="1107" y="617"/>
      <point x="883" y="717"/>
      <point x="883" y="835" type="curve" smooth="yes"/>
      <point x="883" y="1000"/>
      <point x="963" y="990"/>
      <point x="963" y="1181" type="curve" smooth="yes"/>
      <point x="963" y="1430"/>
      <point x="789" y="1561"/>
      <point x="577" y="1561" type="curve" smooth="yes"/>
      <point x="300" y="1561"/>
      <point x="129" y="1404"/>
      <point x="129" y="1099" type="curve" smooth="yes"/>
      <point x="129" y="0" type="line"/>
      <point x="442" y="0" type="line"/>
    </contour>
  </outline>
</glyph>
<glyph name="aacute" format="1">
  <advance width="958"/>
  <unicode hex="00E1"/>
  <outline>
    <component base="a"/>
    <component base="acute" xOffset="231"/>
    <contour>
      <point x="468" y="1290" type="move" name="parent_top"/>
    </contour>
    <contour>
      <point x="406" y="22" type="move" name="bottom"/>
    </contour>
    <contour>
      <point x="938" y="1600" type="move" name="top_dd"/>
    </contour>
    <contour>
      <point x="938" y="-407" type="move" name="bottom_dd"/>
    </contour>
    <contour>
      <point x="938" y="1290" type="move" name="top0315"/>
    </contour>
    <contour>
      <point x="468" y="1670" type="move" name="top"/>
    </contour>
  </outline>
</glyph>
<glyph name="atilde" format="1">
  <advance width="958"/>
  <unicode hex="00E3"/>
  <outline>
    <component base="a"/>
    <component base="tilde" xOffset="14" yOffset="-5"/>
    <contour>
      <point x="468" y="1290" type="move" name="parent_top"/>
    </contour>
    <contour>
      <point x="406" y="22" type="move" name="bottom"/>
    </contour>
    <contour>
      <point x="938" y="1600" type="move" name="top_dd"/>
    </contour>
    <contour>
      <point x="938" y="-407" type="move" name="bottom_dd"/>
    </contour>
    <contour>
      <point x="938" y="1290" type="move" name="top0315"/>
    </contour>
    <contour>
      <point x="468" y="1671" type="move" name="top"/>
    </contour>
  </outline>
</glyph>
<glyph name="adieresis" format="1">
  <advance width="958"/>
  <unicode hex="00E4"/>
  <outline>
    <component base="a"/>
    <component base="dieresis" xOffset="22"/>
    <contour>
      <point x="468" y="1290" type="move" name="parent_top"/>
    </contour>
    <contour>
      <point x="406" y="22" type="move" name="bottom"/>
    </contour>
    <contour>
      <point x="938" y="1600" type="move" name="top_dd"/>
    </contour>
    <contour>
      <point x="938" y="-407" type="move" name="bottom_dd"/>
    </contour>
    <contour>
      <point x="938" y="1290" type="move" name="top0315"/>
    </contour>
    <contour>
      <point x="468" y="1610" type="move" name="top"/>
    </contour>
  </outline>
</glyph>
<glyph name="aring" format="1">
  <advance width="958"/>
  <unicode hex="00E5"/>
  <outline>
    <contour>
      <point x="468" y="1290" type="move" name="parent_top"/>
    </contour>
    <contour>
      <point x="406" y="22" type="move" name="bottom"/>
    </contour>
    <contour>
      <point x="938" y="1600" type="move" name="top_dd"/>
    </contour>
    <contour>
      <point x="938" y="-407" type="move" name="bottom_dd"/>
    </contour>
    <contour>
      <point x="938" y="1290" type="move" name="top0315"/>
    </contour>
    <contour>
      <point x="468" y="1696" type="move" name="top"/>
    </contour>
    <component base="a"/>
    <component base="ring" xOffset="152" yOffset="125"/>
  </outline>
</glyph>
<glyph name="ae" format="1">
  <advance width="1492"/>
  <unicode hex="00E6"/>
  <outline>
    <contour>
      <point x="746" y="1291" type="move" name="top"/>
    </contour>
    <contour>
      <point x="1472" y="1600" type="move" name="top_dd"/>
    </contour>
    <contour>
      <point x="1472" y="1291" type="move" name="top0315"/>
    </contour>
    <contour>
      <point x="610" y="183" type="line"/>
      <point x="913" y="218" type="line"/>
      <point x="913" y="699" type="line"/>
      <point x="913" y="967"/>
      <point x="759" y="1102"/>
      <point x="520" y="1102" type="curve" smooth="yes"/>
      <point x="265" y="1102"/>
      <point x="101" y="958"/>
      <point x="101" y="759" type="curve"/>
      <point x="414" y="740" type="line"/>
      <point x="414" y="797"/>
      <point x="450" y="842"/>
      <point x="516" y="842" type="curve" smooth="yes"/>
      <point x="575" y="842"/>
      <point x="610" y="789"/>
      <point x="610" y="701" type="curve"/>
    </contour>
    <contour>
      <point x="650" y="655" type="line"/>
      <point x="511" y="655" type="line"/>
      <point x="220" y="655"/>
      <point x="68" y="535"/>
      <point x="68" y="324" type="curve" smooth="yes"/>
      <point x="68" y="115"/>
      <point x="195" y="-20"/>
      <point x="427" y="-20" type="curve" smooth="yes"/>
      <point x="634" y="-20"/>
      <point x="753" y="96"/>
      <point x="796" y="193" type="curve"/>
      <point x="658" y="349" type="line"/>
      <point x="661" y="290"/>
      <point x="561" y="212"/>
      <point x="488" y="212" type="curve" smooth="yes"/>
      <point x="413" y="212"/>
      <point x="381" y="253"/>
      <point x="381" y="320" type="curve" smooth="yes"/>
      <point x="381" y="388"/>
      <point x="428" y="451"/>
      <point x="513" y="451" type="curve"/>
      <point x="652" y="451" type="line"/>
    </contour>
    <contour>
      <point x="1058" y="-20" type="curve"/>
      <point x="1202" y="-20"/>
      <point x="1343" y="38"/>
      <point x="1409" y="101" type="curve"/>
      <point x="1334" y="307" type="line"/>
      <point x="1265" y="269"/>
      <point x="1209" y="240"/>
      <point x="1099" y="240" type="curve" smooth="yes"/>
      <point x="965" y="240"/>
      <point x="913" y="344"/>
      <point x="913" y="485" type="curve" smooth="yes"/>
      <point x="913" y="564" type="line" smooth="yes"/>
      <point x="913" y="725"/>
      <point x="935" y="842"/>
      <point x="1046" y="842" type="curve"/>
      <point x="1103" y="842"/>
      <point x="1132" y="779"/>
      <point x="1132" y="672" type="curve"/>
      <point x="1132" y="646" type="line"/>
      <point x="730" y="646" type="line"/>
      <point x="730" y="435" type="line"/>
      <point x="1438" y="435" type="line"/>
      <point x="1438" y="612" type="line" smooth="yes"/>
      <point x="1438" y="913"/>
      <point x="1288" y="1102"/>
      <point x="1046" y="1102" type="curve" smooth="yes"/>
      <point x="751" y="1104"/>
      <point x="610" y="880"/>
      <point x="610" y="564" type="curve" smooth="yes"/>
      <point x="610" y="485" type="line" smooth="yes"/>
      <point x="610" y="191"/>
      <point x="769" y="-20"/>
    </contour>
  </outline>
</glyph>
<glyph name="ccedilla" format="1">
  <advance width="940"/>
  <unicode hex="00E7"/>
  <outline>
    <component base="c"/>
    <component base="cedilla" xOffset="264"/>
    <contour>
      <point x="468" y="1290" type="move" name="parent_top"/>
    </contour>
    <contour>
      <point x="920" y="1600" type="move" name="top_dd"/>
    </contour>
    <contour>
      <point x="920" y="-407" type="move" name="bottom_dd"/>
    </contour>
    <contour>
      <point x="920" y="1290" type="move" name="top0315"/>
    </contour>
    <contour>
      <point x="468" y="1290" type="move" name="top"/>
    </contour>
    <contour>
      <point x="495" y="-472" type="move" name="bottom"/>
    </contour>
  </outline>
</glyph>
<glyph name="igrave" format="1">
  <advance width="552"/>
  <unicode hex="00EC"/>
  <outline>
    <component base="dotlessi"/>
    <component base="grave" xOffset="-128" yOffset="-21"/>
    <contour>
      <point x="276" y="1269" type="move" name="parent_top"/>
    </contour>
    <contour>
      <point x="264" y="10" type="move" name="bottom"/>
    </contour>
    <contour>
      <point x="532" y="1269" type="move" name="top0315"/>
    </contour>
    <contour>
      <point x="276" y="1649" type="move" name="top"/>
    </contour>
  </outline>
</glyph>
<glyph name="iacute" format="1">
  <advance width="552"/>
  <unicode hex="00ED"/>
  <outline>
    <component base="dotlessi"/>
    <component base="acute" xOffset="39" yOffset="-21"/>
    <contour>
      <point x="276" y="1269" type="move" name="parent_top"/>
    </contour>
    <contour>
      <point x="264" y="10" type="move" name="bottom"/>
    </contour>
    <contour>
      <point x="532" y="1269" type="move" name="top0315"/>
    </contour>
    <contour>
      <point x="276" y="1649" type="move" name="top"/>
    </contour>
  </outline>
</glyph>
<glyph name="icircumflex" format="1">
  <advance width="552"/>
  <unicode hex="00EE"/>
  <outline>
    <component base="dotlessi"/>
    <component base="circumflex" xOffset="-192" yOffset="-21"/>
    <contour>
      <point x="276" y="1269" type="move" name="parent_top"/>
    </contour>
    <contour>
      <point x="264" y="10" type="move" name="bottom"/>
    </contour>
    <contour>
      <point x="532" y="1269" type="move" name="top0315"/>
    </contour>
    <contour>
      <point x="276" y="1619" type="move" name="top"/>
    </contour>
  </outline>
</glyph>
<glyph name="idieresis" format="1">
  <advance width="552"/>
  <unicode hex="00EF"/>
  <outline>
    <component base="dotlessi"/>
    <component base="dieresis" xOffset="-170" yOffset="-21"/>
    <contour>
      <point x="276" y="1269" type="move" name="parent_top"/>
    </contour>
    <contour>
      <point x="264" y="10" type="move" name="bottom"/>
    </contour>
    <contour>
      <point x="532" y="1269" type="move" name="top0315"/>
    </contour>
    <contour>
      <point x="275" y="1589" type="move" name="top"/>
    </contour>
  </outline>
</glyph>
<glyph name="eth" format="1">
  <advance width="1021"/>
  <unicode hex="00F0"/>
  <outline>
    <contour>
      <point x="195" y="1335" type="line"/>
      <point x="424" y="1260"/>
      <point x="657" y="1061"/>
      <point x="657" y="658" type="curve" smooth="yes"/>
      <point x="657" y="553" type="line" smooth="yes"/>
      <point x="657" y="374"/>
      <point x="611" y="240"/>
      <point x="506" y="240" type="curve" smooth="yes"/>
      <point x="425" y="240"/>
      <point x="377" y="336"/>
      <point x="377" y="468" type="curve"/>
      <point x="377" y="624"/>
      <point x="424" y="720"/>
      <point x="519" y="720" type="curve"/>
      <point x="632" y="720"/>
      <point x="687" y="641"/>
      <point x="687" y="580" type="curve"/>
      <point x="796" y="578" type="line"/>
      <point x="776" y="806"/>
      <point x="638" y="961"/>
      <point x="448" y="961" type="curve"/>
      <point x="197" y="961"/>
      <point x="63" y="764"/>
      <point x="63" y="468" type="curve"/>
      <point x="63" y="196"/>
      <point x="238" y="-20"/>
      <point x="502" y="-20" type="curve" smooth="yes"/>
      <point x="772" y="-20"/>
      <point x="971" y="229"/>
      <point x="971" y="593" type="curve"/>
      <point x="971" y="656" type="line"/>
      <point x="971" y="1146"/>
      <point x="682" y="1486"/>
      <point x="294" y="1579" type="curve"/>
    </contour>
    <contour>
      <point x="850" y="1386" type="line"/>
      <point x="778" y="1504" type="line"/>
      <point x="280" y="1148" type="line"/>
      <point x="353" y="1030" type="line"/>
    </contour>
  </outline>
</glyph>
<glyph name="ntilde" format="1">
  <advance width="1014"/>
  <unicode hex="00F1"/>
  <outline>
    <contour>
      <point x="505" y="1290" type="move" name="parent_top"/>
    </contour>
    <contour>
      <point x="505" y="10" type="move" name="bottom"/>
    </contour>
    <contour>
      <point x="994" y="1600" type="move" name="top_dd"/>
    </contour>
    <contour>
      <point x="994" y="-407" type="move" name="bottom_dd"/>
    </contour>
    <contour>
      <point x="994" y="1290" type="move" name="top0315"/>
    </contour>
    <contour>
      <point x="505" y="1671" type="move" name="top"/>
    </contour>
    <component base="n"/>
    <component base="tilde" xOffset="51" yOffset="-5"/>
  </outline>
</glyph>
<glyph name="otilde" format="1">
  <advance width="1013"/>
  <unicode hex="00F5"/>
  <outline>
    <component base="o"/>
    <component base="tilde" xOffset="51" yOffset="-5"/>
    <contour>
      <point x="505" y="1290" type="move" name="parent_top"/>
    </contour>
    <contour>
      <point x="505" y="-10" type="move" name="bottom"/>
    </contour>
    <contour>
      <point x="993" y="1600" type="move" name="top_dd"/>
    </contour>
    <contour>
      <point x="993" y="-407" type="move" name="bottom_dd"/>
    </contour>
    <contour>
      <point x="993" y="1290" type="move" name="top0315"/>
    </contour>
    <contour>
      <point x="506" y="1671" type="move" name="top"/>
    </contour>
  </outline>
</glyph>
<glyph name="divide" format="1">
  <advance width="1022"/>
  <unicode hex="00F7"/>
  <outline>
    <contour>
      <point x="949" y="807" type="line"/>
      <point x="69" y="807" type="line"/>
      <point x="69" y="563" type="line"/>
      <point x="949" y="563" type="line"/>
    </contour>
    <contour>
      <point x="336" y="1086" type="curve" smooth="yes"/>
      <point x="336" y="990"/>
      <point x="405" y="922"/>
      <point x="507" y="922" type="curve" smooth="yes"/>
      <point x="609" y="922"/>
      <point x="677" y="990"/>
      <point x="677" y="1086" type="curve" smooth="yes"/>
      <point x="677" y="1182"/>
      <point x="609" y="1250"/>
      <point x="507" y="1250" type="curve" smooth="yes"/>
      <point x="405" y="1250"/>
      <point x="336" y="1182"/>
    </contour>
    <contour>
      <point x="336" y="277" type="curve" smooth="yes"/>
      <point x="336" y="181"/>
      <point x="405" y="113"/>
      <point x="507" y="113" type="curve" smooth="yes"/>
      <point x="609" y="113"/>
      <point x="677" y="181"/>
      <point x="677" y="277" type="curve" smooth="yes"/>
      <point x="677" y="373"/>
      <point x="609" y="441"/>
      <point x="507" y="441" type="curve" smooth="yes"/>
      <point x="405" y="441"/>
      <point x="336" y="373"/>
    </contour>
  </outline>
</glyph>
<glyph name="oslash" format="1">
  <advance width="1014"/>
  <unicode hex="00F8"/>
  <outline>
    <contour>
      <point x="867" y="1219" type="line"/>
      <point x="705" y="1219" type="line"/>
      <point x="148" y="-145" type="line"/>
      <point x="310" y="-145" type="line"/>
    </contour>
    <contour>
      <point x="63" y="530" type="line"/>
      <point x="63" y="214"/>
      <point x="216" y="-20"/>
      <point x="507" y="-20" type="curve" smooth="yes"/>
      <point x="797" y="-20"/>
      <point x="950" y="214"/>
      <point x="950" y="530" type="curve"/>
      <point x="950" y="551" type="line"/>
      <point x="950" y="867"/>
      <point x="797" y="1102"/>
      <point x="505" y="1102" type="curve" smooth="yes"/>
      <point x="216" y="1102"/>
      <point x="63" y="867"/>
      <point x="63" y="551" type="curve"/>
    </contour>
    <contour>
      <point x="376" y="551" type="line"/>
      <point x="376" y="709"/>
      <point x="400" y="842"/>
      <point x="505" y="842" type="curve" smooth="yes"/>
      <point x="614" y="842"/>
      <point x="636" y="709"/>
      <point x="636" y="551" type="curve"/>
      <point x="636" y="530" type="line"/>
      <point x="636" y="367"/>
      <point x="613" y="240"/>
      <point x="507" y="240" type="curve" smooth="yes"/>
      <point x="399" y="240"/>
      <point x="376" y="367"/>
      <point x="376" y="530" type="curve"/>
    </contour>
    <contour>
      <point x="477" y="1284" type="move" name="top"/>
    </contour>
    <contour>
      <point x="994" y="1600" type="move" name="top_dd"/>
    </contour>
    <contour>
      <point x="994" y="1284" type="move" name="top0315"/>
    </contour>
  </outline>
</glyph>
<glyph name="udieresis" format="1">
  <advance width="1014"/>
  <unicode hex="00FC"/>
  <outline>
    <component base="u"/>
    <component base="dieresis" xOffset="56"/>
    <contour>
      <point x="502" y="1290" type="move" name="parent_top"/>
    </contour>
    <contour>
      <point x="994" y="1600" type="move" name="top_dd"/>
    </contour>
    <contour>
      <point x="994" y="-407" type="move" name="bottom_dd"/>
    </contour>
    <contour>
      <point x="994" y="1290" type="move" name="top0315"/>
    </contour>
    <contour>
      <point x="505" y="0" type="move" name="bottom"/>
    </contour>
    <contour>
      <point x="502" y="1610" type="move" name="top"/>
    </contour>
  </outline>
</glyph>
<glyph name="yacute" format="1">
  <advance width="935"/>
  <unicode hex="00FD"/>
  <outline>
    <component base="y"/>
    <component base="acute" xOffset="227"/>
    <contour>
      <point x="463" y="1290" type="move" name="parent_top"/>
    </contour>
    <contour>
      <point x="732" y="-92" type="move" name="bottom"/>
    </contour>
    <contour>
      <point x="915" y="1600" type="move" name="top_dd"/>
    </contour>
    <contour>
      <point x="915" y="-407" type="move" name="bottom_dd"/>
    </contour>
    <contour>
      <point x="915" y="1290" type="move" name="top0315"/>
    </contour>
    <contour>
      <point x="463" y="1670" type="move" name="top"/>
    </contour>
  </outline>
</glyph>
<glyph name="thorn" format="1">
  <advance width="1014"/>
  <unicode hex="00FE"/>
  <outline>
    <contour>
      <point x="408" y="1536" type="line"/>
      <point x="94" y="1536" type="line"/>
      <point x="94" y="-416" type="line"/>
      <point x="408" y="-416" type="line"/>
    </contour>
    <contour>
      <point x="954" y="554" type="line"/>
      <point x="954" y="883"/>
      <point x="831" y="1102"/>
      <point x="597" y="1102" type="curve" smooth="yes"/>
      <point x="374" y="1102"/>
      <point x="290" y="863"/>
      <point x="256" y="550" type="curve"/>
      <point x="256" y="523" type="line"/>
      <point x="292" y="231"/>
      <point x="375" y="-20"/>
      <point x="599" y="-20" type="curve" smooth="yes"/>
      <point x="831" y="-20"/>
      <point x="954" y="218"/>
      <point x="954" y="533" type="curve" smooth="yes"/>
    </contour>
    <contour>
      <point x="641" y="533" type="line"/>
      <point x="641" y="371"/>
      <point x="615" y="240"/>
      <point x="518" y="240" type="curve" smooth="yes"/>
      <point x="405" y="240"/>
      <point x="374" y="343"/>
      <point x="380" y="495" type="curve"/>
      <point x="380" y="577" type="line"/>
      <point x="375" y="753"/>
      <point x="413" y="842"/>
      <point x="516" y="842" type="curve" smooth="yes"/>
      <point x="611" y="842"/>
      <point x="641" y="722"/>
      <point x="641" y="554" type="curve" smooth="yes"/>
    </contour>
  </outline>
</glyph>
<glyph name="ydieresis" format="1">
  <advance width="935"/>
  <unicode hex="00FF"/>
  <outline>
    <component base="y"/>
    <component base="dieresis" xOffset="17"/>
    <contour>
      <point x="463" y="1290" type="move" name="parent_top"/>
    </contour>
    <contour>
      <point x="732" y="-92" type="move" name="bottom"/>
    </contour>
    <contour>
      <point x="915" y="1600" type="move" name="top_dd"/>
    </contour>
    <contour>
      <point x="915" y="-407" type="move" name="bottom_dd"/>
    </contour>
    <contour>
      <point x="915" y="1290" type="move" name="top0315"/>
    </contour>
    <contour>
      <point x="463" y="1610" type="move" name="top"/>
    </contour>
  </outline>
</glyph>
<glyph name="Amacron" format="1">
  <advance width="1234"/>
  <unicode hex="0100"/>
  <outline>
    <contour>
      <point x="619" y="1600" type="move" name="parent_top"/>
    </contour>
    <contour>
      <point x="619" y="9" type="move" name="bottom"/>
    </contour>
    <contour>
      <point x="1214" y="1600" type="move" name="top_dd"/>
    </contour>
    <contour>
      <point x="1214" y="-407" type="move" name="bottom_dd"/>
    </contour>
    <contour>
      <point x="1214" y="1600" type="move" name="top0315"/>
    </contour>
    <contour>
      <point x="619" y="1914" type="move" name="top"/>
    </contour>
    <component base="A"/>
    <component base="macron" xOffset="142" yOffset="304"/>
  </outline>
</glyph>
<glyph name="amacron" format="1">
  <advance width="958"/>
  <unicode hex="0101"/>
  <outline>
    <component base="a"/>
    <component base="macron" xOffset="-9" yOffset="-6"/>
    <contour>
      <point x="468" y="1290" type="move" name="parent_top"/>
    </contour>
    <contour>
      <point x="406" y="22" type="move" name="bottom"/>
    </contour>
    <contour>
      <point x="938" y="1600" type="move" name="top_dd"/>
    </contour>
    <contour>
      <point x="938" y="-407" type="move" name="bottom_dd"/>
    </contour>
    <contour>
      <point x="938" y="1290" type="move" name="top0315"/>
    </contour>
    <contour>
      <point x="468" y="1604" type="move" name="top"/>
    </contour>
  </outline>
</glyph>
<glyph name="Aogonek" format="1">
  <advance width="1234"/>
  <unicode hex="0104"/>
  <outline>
    <component base="A"/>
    <component base="ogonek" xOffset="741"/>
    <contour>
      <point x="619" y="1600" type="move" name="parent_top"/>
    </contour>
    <contour>
      <point x="619" y="9" type="move" name="bottom"/>
    </contour>
    <contour>
      <point x="1214" y="1600" type="move" name="top_dd"/>
    </contour>
    <contour>
      <point x="1214" y="-407" type="move" name="bottom_dd"/>
    </contour>
    <contour>
      <point x="1214" y="1600" type="move" name="top0315"/>
    </contour>
    <contour>
      <point x="619" y="1600" type="move" name="top"/>
    </contour>
  </outline>
</glyph>
<glyph name="aogonek" format="1">
  <advance width="958"/>
  <unicode hex="0105"/>
  <outline>
    <component base="a"/>
    <component base="ogonek" xOffset="476"/>
    <contour>
      <point x="468" y="1290" type="move" name="parent_top"/>
    </contour>
    <contour>
      <point x="406" y="22" type="move" name="bottom"/>
    </contour>
    <contour>
      <point x="938" y="1600" type="move" name="top_dd"/>
    </contour>
    <contour>
      <point x="938" y="-407" type="move" name="bottom_dd"/>
    </contour>
    <contour>
      <point x="938" y="1290" type="move" name="top0315"/>
    </contour>
    <contour>
      <point x="468" y="1290" type="move" name="top"/>
    </contour>
  </outline>
</glyph>
<glyph name="Cacute" format="1">
  <advance width="1171"/>
  <unicode hex="0106"/>
  <outline>
    <component base="C"/>
    <component base="acute" xOffset="366" yOffset="310"/>
    <contour>
      <point x="603" y="1600" type="move" name="parent_top"/>
    </contour>
    <contour>
      <point x="599" y="0" type="move" name="bottom"/>
    </contour>
    <contour>
      <point x="1151" y="1600" type="move" name="top_dd"/>
    </contour>
    <contour>
      <point x="1151" y="-407" type="move" name="bottom_dd"/>
    </contour>
    <contour>
      <point x="1151" y="1600" type="move" name="top0315"/>
    </contour>
    <contour>
      <point x="603" y="1980" type="move" name="top"/>
    </contour>
  </outline>
</glyph>
<glyph name="cacute" format="1">
  <advance width="940"/>
  <unicode hex="0107"/>
  <outline>
    <component base="c"/>
    <component base="acute" xOffset="232"/>
    <contour>
      <point x="468" y="1290" type="move" name="parent_top"/>
    </contour>
    <contour>
      <point x="495" y="0" type="move" name="bottom"/>
    </contour>
    <contour>
      <point x="920" y="1600" type="move" name="top_dd"/>
    </contour>
    <contour>
      <point x="920" y="-407" type="move" name="bottom_dd"/>
    </contour>
    <contour>
      <point x="920" y="1290" type="move" name="top0315"/>
    </contour>
    <contour>
      <point x="468" y="1670" type="move" name="top"/>
    </contour>
  </outline>
</glyph>
<glyph name="Ccircumflex" format="1">
  <advance width="1171"/>
  <unicode hex="0108"/>
  <outline>
    <component base="C"/>
    <component base="circumflex" xOffset="135" yOffset="310"/>
    <contour>
      <point x="603" y="1600" type="move" name="parent_top"/>
    </contour>
    <contour>
      <point x="599" y="0" type="move" name="bottom"/>
    </contour>
    <contour>
      <point x="1151" y="1600" type="move" name="top_dd"/>
    </contour>
    <contour>
      <point x="1151" y="-407" type="move" name="bottom_dd"/>
    </contour>
    <contour>
      <point x="1151" y="1600" type="move" name="top0315"/>
    </contour>
    <contour>
      <point x="603" y="1950" type="move" name="top"/>
    </contour>
  </outline>
</glyph>
<glyph name="uni010A" format="1">
  <advance width="1171"/>
  <unicode hex="010A"/>
  <outline>
    <component base="C"/>
    <component base="dotaccent" xOffset="344" yOffset="333"/>
    <contour>
      <point x="603" y="1600" type="move" name="parent_top"/>
    </contour>
    <contour>
      <point x="599" y="0" type="move" name="bottom"/>
    </contour>
    <contour>
      <point x="1151" y="1600" type="move" name="top_dd"/>
    </contour>
    <contour>
      <point x="1151" y="-407" type="move" name="bottom_dd"/>
    </contour>
    <contour>
      <point x="1151" y="1600" type="move" name="top0315"/>
    </contour>
    <contour>
      <point x="603" y="1978" type="move" name="top"/>
    </contour>
  </outline>
</glyph>
<glyph name="uni010B" format="1">
  <advance width="940"/>
  <unicode hex="010B"/>
  <outline>
    <contour>
      <point x="468" y="1290" type="move" name="parent_top"/>
    </contour>
    <contour>
      <point x="495" y="0" type="move" name="bottom"/>
    </contour>
    <contour>
      <point x="920" y="1600" type="move" name="top_dd"/>
    </contour>
    <contour>
      <point x="920" y="-407" type="move" name="bottom_dd"/>
    </contour>
    <contour>
      <point x="920" y="1290" type="move" name="top0315"/>
    </contour>
    <contour>
      <point x="468" y="1668" type="move" name="top"/>
    </contour>
    <component base="c"/>
    <component base="dotaccent" xOffset="210" yOffset="23"/>
  </outline>
</glyph>
<glyph name="Ccaron" format="1">
  <advance width="1171"/>
  <unicode hex="010C"/>
  <outline>
    <contour>
      <point x="603" y="1600" type="move" name="parent_top"/>
    </contour>
    <contour>
      <point x="599" y="0" type="move" name="bottom"/>
    </contour>
    <contour>
      <point x="1151" y="1600" type="move" name="top_dd"/>
    </contour>
    <contour>
      <point x="1151" y="-407" type="move" name="bottom_dd"/>
    </contour>
    <contour>
      <point x="1151" y="1600" type="move" name="top0315"/>
    </contour>
    <contour>
      <point x="603" y="1960" type="move" name="top"/>
    </contour>
    <component base="C"/>
    <component base="caron" xOffset="158" yOffset="310"/>
  </outline>
</glyph>
<glyph name="Dcaron" format="1">
  <advance width="1153"/>
  <unicode hex="010E"/>
  <outline>
    <contour>
      <point x="422" y="1600" type="move" name="parent_top"/>
    </contour>
    <contour>
      <point x="422" y="10" type="move" name="bottom"/>
    </contour>
    <contour>
      <point x="1133" y="1600" type="move" name="top_dd"/>
    </contour>
    <contour>
      <point x="1133" y="-407" type="move" name="bottom_dd"/>
    </contour>
    <contour>
      <point x="1133" y="1600" type="move" name="top0315"/>
    </contour>
    <contour>
      <point x="422" y="1960" type="move" name="top"/>
    </contour>
    <component base="D"/>
    <component base="caron" xOffset="-23" yOffset="310"/>
  </outline>
</glyph>
<glyph name="dcaron" format="1">
  <advance width="1140"/>
  <unicode hex="010F"/>
  <outline>
    <component base="d"/>
    <component base="commaaccent" xOffset="948" yOffset="1252"/>
    <contour>
      <point x="503" y="0" type="move" name="bottom"/>
    </contour>
    <contour>
      <point x="413" y="1600" type="move" name="parent_top"/>
    </contour>
    <contour>
      <point x="1120" y="1600" type="move" name="top_dd"/>
    </contour>
    <contour>
      <point x="1120" y="-407" type="move" name="bottom_dd"/>
    </contour>
    <contour>
      <point x="1120" y="1600" type="move" name="top0315"/>
    </contour>
    <contour>
      <point x="413" y="1600" type="move" name="top"/>
    </contour>
  </outline>
</glyph>
<glyph name="dcroat" format="1">
  <advance width="1173"/>
  <unicode hex="0111"/>
  <outline>
    <contour>
      <point x="604" y="248" type="line"/>
      <point x="637" y="0" type="line"/>
      <point x="919" y="0" type="line"/>
      <point x="919" y="1536" type="line"/>
      <point x="604" y="1536" type="line"/>
    </contour>
    <contour>
      <point x="57" y="528" type="line"/>
      <point x="57" y="213"/>
      <point x="181" y="-20"/>
      <point x="413" y="-20" type="curve" smooth="yes"/>
      <point x="624" y="-20"/>
      <point x="722" y="227"/>
      <point x="757" y="520" type="curve"/>
      <point x="757" y="545" type="line"/>
      <point x="724" y="858"/>
      <point x="625" y="1102"/>
      <point x="414" y="1102" type="curve" smooth="yes"/>
      <point x="181" y="1102"/>
      <point x="57" y="878"/>
      <point x="57" y="549" type="curve" smooth="yes"/>
    </contour>
    <contour>
      <point x="371" y="549" type="line"/>
      <point x="371" y="717"/>
      <point x="400" y="842"/>
      <point x="496" y="842" type="curve" smooth="yes"/>
      <point x="587" y="842"/>
      <point x="637" y="748"/>
      <point x="633" y="572" type="curve"/>
      <point x="633" y="493" type="line"/>
      <point x="638" y="339"/>
      <point x="593" y="240"/>
      <point x="495" y="240" type="curve" smooth="yes"/>
      <point x="396" y="240"/>
      <point x="371" y="366"/>
      <point x="371" y="528" type="curve" smooth="yes"/>
    </contour>
    <contour>
      <point x="1039" y="1406" type="line"/>
      <point x="412" y="1406" type="line"/>
      <point x="412" y="1215" type="line"/>
      <point x="1039" y="1215" type="line"/>
    </contour>
    <contour>
      <point x="1014" y="1536" type="move" name="caron"/>
    </contour>
    <contour>
      <point x="503" y="0" type="move" name="bottom"/>
    </contour>
    <contour>
      <point x="413" y="1600" type="move" name="top"/>
    </contour>
    <contour>
      <point x="994" y="1600" type="move" name="top_dd"/>
    </contour>
    <contour>
      <point x="994" y="-407" type="move" name="bottom_dd"/>
    </contour>
    <contour>
      <point x="503" y="0" type="move" name="markbottom"/>
    </contour>
    <contour>
      <point x="1153" y="1600" type="move" name="top0315"/>
    </contour>
    <contour>
      <point x="728" y="1313" type="move" name="parenthesses.w2"/>
    </contour>
  </outline>
</glyph>
<glyph name="Emacron" format="1">
  <advance width="1001"/>
  <unicode hex="0112"/>
  <outline>
    <component base="E"/>
    <component base="macron" xOffset="85" yOffset="304"/>
    <contour>
      <point x="562" y="1600" type="move" name="parent_top"/>
    </contour>
    <contour>
      <point x="566" y="10" type="move" name="bottom"/>
    </contour>
    <contour>
      <point x="981" y="1600" type="move" name="top_dd"/>
    </contour>
    <contour>
      <point x="981" y="-407" type="move" name="bottom_dd"/>
    </contour>
    <contour>
      <point x="981" y="1600" type="move" name="top0315"/>
    </contour>
    <contour>
      <point x="562" y="1914" type="move" name="top"/>
    </contour>
  </outline>
</glyph>
<glyph name="emacron" format="1">
  <advance width="988"/>
  <unicode hex="0113"/>
  <outline>
    <component base="e"/>
    <component base="macron" xOffset="-11" yOffset="-5"/>
    <contour>
      <point x="466" y="1291" type="move" name="parent_top"/>
    </contour>
    <contour>
      <point x="500" y="0" type="move" name="bottom"/>
    </contour>
    <contour>
      <point x="968" y="1600" type="move" name="top_dd"/>
    </contour>
    <contour>
      <point x="968" y="-407" type="move" name="bottom_dd"/>
    </contour>
    <contour>
      <point x="968" y="1291" type="move" name="top0315"/>
    </contour>
    <contour>
      <point x="466" y="1605" type="move" name="top"/>
    </contour>
  </outline>
</glyph>
<glyph name="Ebreve" format="1">
  <advance width="1001"/>
  <unicode hex="0114"/>
  <outline>
    <component base="E"/>
    <component base="breve" xOffset="150" yOffset="310"/>
    <contour>
      <point x="562" y="1600" type="move" name="parent_top"/>
    </contour>
    <contour>
      <point x="566" y="10" type="move" name="bottom"/>
    </contour>
    <contour>
      <point x="981" y="1600" type="move" name="top_dd"/>
    </contour>
    <contour>
      <point x="981" y="-407" type="move" name="bottom_dd"/>
    </contour>
    <contour>
      <point x="981" y="1600" type="move" name="top0315"/>
    </contour>
    <contour>
      <point x="562" y="1944" type="move" name="top"/>
    </contour>
  </outline>
</glyph>
<glyph name="ebreve" format="1">
  <advance width="988"/>
  <unicode hex="0115"/>
  <outline>
    <contour>
      <point x="466" y="1291" type="move" name="parent_top"/>
    </contour>
    <contour>
      <point x="500" y="0" type="move" name="bottom"/>
    </contour>
    <contour>
      <point x="968" y="1600" type="move" name="top_dd"/>
    </contour>
    <contour>
      <point x="968" y="-407" type="move" name="bottom_dd"/>
    </contour>
    <contour>
      <point x="968" y="1291" type="move" name="top0315"/>
    </contour>
    <contour>
      <point x="466" y="1635" type="move" name="top"/>
    </contour>
    <component base="e"/>
    <component base="breve" xOffset="55" yOffset="1"/>
  </outline>
</glyph>
<glyph name="edotaccent" format="1">
  <advance width="988"/>
  <unicode hex="0117"/>
  <outline>
    <contour>
      <point x="466" y="1291" type="move" name="parent_top"/>
    </contour>
    <contour>
      <point x="500" y="0" type="move" name="bottom"/>
    </contour>
    <contour>
      <point x="968" y="1600" type="move" name="top_dd"/>
    </contour>
    <contour>
      <point x="968" y="-407" type="move" name="bottom_dd"/>
    </contour>
    <contour>
      <point x="968" y="1291" type="move" name="top0315"/>
    </contour>
    <contour>
      <point x="466" y="1669" type="move" name="top"/>
    </contour>
    <component base="e"/>
    <component base="dotaccent" xOffset="208" yOffset="24"/>
  </outline>
</glyph>
